<?xml version="1.0" encoding="UTF-8" standalone="no"?>
<!-- Created with Inkscape (http://www.inkscape.org/) -->

<svg
   xmlns:ns0="http://www.iki.fi/pav/software/textext/"
   xmlns:dc="http://purl.org/dc/elements/1.1/"
   xmlns:cc="http://creativecommons.org/ns#"
   xmlns:rdf="http://www.w3.org/1999/02/22-rdf-syntax-ns#"
   xmlns:svg="http://www.w3.org/2000/svg"
   xmlns="http://www.w3.org/2000/svg"
   xmlns:xlink="http://www.w3.org/1999/xlink"
   xmlns:sodipodi="http://sodipodi.sourceforge.net/DTD/sodipodi-0.dtd"
   xmlns:inkscape="http://www.inkscape.org/namespaces/inkscape"
   width="4.4130731in"
   height="2.6915162in"
   viewBox="0 0 397.17657 242.23646"
   id="svg2"
   version="1.1"
   inkscape:version="0.91 r"
   sodipodi:docname="DielectricSubstrateCartoon.svg"
   inkscape:export-filename="/tmp/doom.png"
   inkscape:export-xdpi="200"
   inkscape:export-ydpi="200">
  <sodipodi:namedview
     id="base"
     pagecolor="#ffffff"
     bordercolor="#666666"
     borderopacity="1.0"
     inkscape:pageopacity="0.0"
     inkscape:pageshadow="2"
     inkscape:zoom="0.96029675"
     inkscape:cx="218.24708"
     inkscape:cy="118.13662"
     inkscape:document-units="px"
     inkscape:current-layer="g6421"
     showgrid="true"
     units="in"
     inkscape:window-width="740"
     inkscape:window-height="412"
     inkscape:window-x="356"
     inkscape:window-y="885"
     inkscape:window-maximized="0"
     inkscape:snap-global="false"
     fit-margin-top="0"
     fit-margin-left="0"
     fit-margin-right="0"
     fit-margin-bottom="0">
    <inkscape:grid
       originy="-685.63218"
       originx="-103.4026"
       type="xygrid"
       id="grid4136"
       spacingx="5"
       spacingy="5" />
  </sodipodi:namedview>
  <defs
     id="defs4">
    <inkscape:path-effect
       is_visible="true"
       id="path-effect5563"
       effect="spiro" />
    <inkscape:path-effect
       effect="spiro"
       id="path-effect11242"
       is_visible="true" />
    <inkscape:path-effect
       is_visible="true"
       id="path-effect10555"
       effect="spiro" />
    <inkscape:path-effect
       effect="spiro"
       id="path-effect10551"
       is_visible="true" />
    <inkscape:path-effect
       effect="spiro"
       id="path-effect11029"
       is_visible="true" />
    <inkscape:path-effect
       effect="spiro"
       id="path-effect11021"
       is_visible="true" />
    <inkscape:path-effect
       is_visible="true"
       id="path-effect8947"
       effect="spiro" />
    <inkscape:path-effect
       is_visible="true"
       id="path-effect8945"
       effect="spiro" />
    <marker
       inkscape:stockid="Arrow2Mend"
       orient="auto"
       refY="0"
       refX="0"
       id="marker6656"
       style="overflow:visible"
       inkscape:isstock="true">
      <path
         inkscape:connector-curvature="0"
         id="path6658"
         style="fill:#000000;fill-opacity:1;fill-rule:evenodd;stroke:#000000;stroke-width:0.625;stroke-linejoin:round;stroke-opacity:1"
         d="M 8.7185878,4.0337352 -2.2072895,0.01601326 8.7185884,-4.0017078 c -1.7454984,2.3720609 -1.7354408,5.6174519 -6e-7,8.035443 z"
         transform="scale(-0.6,-0.6)" />
    </marker>
    <marker
       inkscape:stockid="Arrow2Mstart"
       orient="auto"
       refY="0"
       refX="0"
       id="marker6646"
       style="overflow:visible"
       inkscape:isstock="true">
      <path
         inkscape:connector-curvature="0"
         id="path6648"
         style="fill:#000000;fill-opacity:1;fill-rule:evenodd;stroke:#000000;stroke-width:0.625;stroke-linejoin:round;stroke-opacity:1"
         d="M 8.7185878,4.0337352 -2.2072895,0.01601326 8.7185884,-4.0017078 c -1.7454984,2.3720609 -1.7354408,5.6174519 -6e-7,8.035443 z"
         transform="scale(0.6,0.6)" />
    </marker>
    <inkscape:path-effect
       is_visible="true"
       id="path-effect6644"
       effect="spiro" />
    <marker
       inkscape:stockid="Arrow1Mstart"
       orient="auto"
       refY="0"
       refX="0"
       id="Arrow1Mstart"
       style="overflow:visible"
       inkscape:isstock="true">
      <path
         inkscape:connector-curvature="0"
         id="path4327"
         d="M 0,0 5,-5 -12.5,0 5,5 0,0 Z"
         style="fill:#000000;fill-opacity:1;fill-rule:evenodd;stroke:#000000;stroke-width:1pt;stroke-opacity:1"
         transform="matrix(0.4,0,0,0.4,4,0)" />
    </marker>
    <inkscape:path-effect
       effect="spiro"
       id="path-effect4315"
       is_visible="true" />
    <inkscape:path-effect
       effect="spiro"
       id="path-effect4311"
       is_visible="true" />
    <inkscape:path-effect
       effect="spiro"
       id="path-effect4140"
       is_visible="true" />
  </defs>
  <metadata
     id="metadata7">
    <rdf:RDF>
      <cc:Work
         rdf:about="">
        <dc:format>image/svg+xml</dc:format>
        <dc:type
           rdf:resource="http://purl.org/dc/dcmitype/StillImage" />
        <dc:title></dc:title>
      </cc:Work>
    </rdf:RDF>
  </metadata>
  <g
     style="display:none"
     inkscape:label="Points"
     inkscape:groupmode="layer"
     id="layer1"
     transform="translate(-103.40258,-124.49353)">
    <circle
       r="2.4179351"
       cy="127.36221"
       cx="400"
       id="path4201"
       style="opacity:1;fill:#000000;fill-opacity:1;stroke:none;stroke-width:0.69999999;stroke-miterlimit:4;stroke-dasharray:none;stroke-dashoffset:0;stroke-opacity:1" />
    <circle
       style="opacity:1;fill:#000000;fill-opacity:1;stroke:none;stroke-width:0.69999999;stroke-miterlimit:4;stroke-dasharray:none;stroke-dashoffset:0;stroke-opacity:1"
       id="circle4203"
       cx="250"
       cy="102.36221"
       r="2.4179351" />
    <g
       ns0:text="$\\vb x\\subt{D}$"
       ns0:preamble="/home/homer/misc/physcmds.tex"
       transform="matrix(2.3914845,0,0,2.3914845,-309.42463,-206.6994)"
       id="g8966">
      <defs
         id="defs8968">
        <g
           id="g8970">
          <symbol
             style="overflow:visible"
             overflow="visible"
             id="textext-fd006cd4-0">
            <path
               inkscape:connector-curvature="0"
               style="stroke:none"
               d=""
               id="path8973" />
          </symbol>
          <symbol
             style="overflow:visible"
             overflow="visible"
             id="textext-fd006cd4-1">
            <path
               inkscape:connector-curvature="0"
               style="stroke:none"
               d="M 3.453125,-2.453125 4.609375,-3.75 C 4.75,-3.890625 4.8125,-3.953125 5.625,-3.953125 l 0,-0.46875 c -0.34375,0.015625 -0.859375,0.03125 -0.90625,0.03125 -0.25,0 -0.75,-0.03125 -1.03125,-0.03125 l 0,0.46875 c 0.140625,0 0.265625,0.015625 0.375,0.078125 -0.03125,0.0625 -0.03125,0.09375 -0.078125,0.125 l -0.828125,0.9375 -0.984375,-1.140625 0.40625,0 0,-0.46875 c -0.265625,0 -0.890625,0.03125 -1.21875,0.03125 -0.3125,0 -0.765625,-0.03125 -1.09375,-0.03125 l 0,0.46875 0.71875,0 1.546875,1.828125 -1.3125,1.46875 c -0.15625,0.1875 -0.515625,0.1875 -1,0.1875 l 0,0.46875 c 0.34375,-0.015625 0.875,-0.03125 0.921875,-0.03125 0.25,0 0.828125,0.015625 1.015625,0.03125 l 0,-0.46875 c -0.171875,0 -0.359375,-0.046875 -0.359375,-0.109375 0,-0.015625 0,-0.015625 0.0625,-0.09375 l 0.96875,-1.09375 1.09375,1.296875 -0.390625,0 0,0.46875 c 0.265625,-0.015625 0.875,-0.03125 1.203125,-0.03125 0.3125,0 0.765625,0.015625 1.09375,0.03125 l 0,-0.46875 -0.703125,0 z m 0,0"
               id="path8976" />
          </symbol>
          <symbol
             style="overflow:visible"
             overflow="visible"
             id="textext-fd006cd4-2">
            <path
               inkscape:connector-curvature="0"
               style="stroke:none"
               d=""
               id="path8979" />
          </symbol>
          <symbol
             style="overflow:visible"
             overflow="visible"
             id="textext-fd006cd4-3">
            <path
               inkscape:connector-curvature="0"
               style="stroke:none"
               d="m 0.984375,-0.4375 c 0,0.125 0,0.1875 -0.1875,0.203125 C 0.6875,-0.21875 0.53125,-0.21875 0.421875,-0.21875 l 0,0.21875 2.1875,0 c 1.0625,0 1.90625,-0.75 1.90625,-1.671875 0,-0.9375 -0.828125,-1.734375 -1.90625,-1.734375 l -2.1875,0 0,0.21875 c 0.125,0 0.265625,0 0.375,0.015625 0.1875,0.015625 0.1875,0.078125 0.1875,0.203125 z m 0.75,0.21875 c -0.25,0 -0.25,-0.03125 -0.25,-0.203125 l 0,-2.5625 c 0,-0.171875 0,-0.203125 0.25,-0.203125 l 0.734375,0 c 0.59375,0 0.953125,0.25 1.078125,0.375 0.1875,0.1875 0.40625,0.484375 0.40625,1.140625 0,0.4375 -0.09375,0.796875 -0.390625,1.078125 -0.15625,0.15625 -0.515625,0.375 -1.09375,0.375 z m 0,0"
               id="path8982" />
          </symbol>
        </g>
      </defs>
      <g
         id="textext-fd006cd4-4">
        <g
           style="fill:#000000;fill-opacity:1"
           id="g8985">
          <use
             height="100%"
             width="100%"
             xlink:href="#textext-fd006cd4-1"
             x="223.43201"
             y="134.765"
             id="use8987" />
        </g>
        <g
           style="fill:#000000;fill-opacity:1"
           id="g8989">
          <use
             height="100%"
             width="100%"
             xlink:href="#textext-fd006cd4-3"
             x="229.479"
             y="136.259"
             id="use8991" />
        </g>
      </g>
    </g>
    <g
       id="g9455"
       transform="matrix(2.3914845,0,0,2.3914845,-119.42463,-176.6994)"
       ns0:preamble="/home/homer/misc/physcmds.tex"
       ns0:text="$\\vb x\\subt{S}$">
      <defs
         id="defs9457">
        <g
           id="g9459">
          <symbol
             id="textext-5e206131-0"
             overflow="visible"
             style="overflow:visible">
            <path
               id="path9462"
               d=""
               style="stroke:none"
               inkscape:connector-curvature="0" />
          </symbol>
          <symbol
             id="textext-5e206131-1"
             overflow="visible"
             style="overflow:visible">
            <path
               id="path9465"
               d="M 3.453125,-2.453125 4.609375,-3.75 C 4.75,-3.890625 4.8125,-3.953125 5.625,-3.953125 l 0,-0.46875 c -0.34375,0.015625 -0.859375,0.03125 -0.90625,0.03125 -0.25,0 -0.75,-0.03125 -1.03125,-0.03125 l 0,0.46875 c 0.140625,0 0.265625,0.015625 0.375,0.078125 -0.03125,0.0625 -0.03125,0.09375 -0.078125,0.125 l -0.828125,0.9375 -0.984375,-1.140625 0.40625,0 0,-0.46875 c -0.265625,0 -0.890625,0.03125 -1.21875,0.03125 -0.3125,0 -0.765625,-0.03125 -1.09375,-0.03125 l 0,0.46875 0.71875,0 1.546875,1.828125 -1.3125,1.46875 c -0.15625,0.1875 -0.515625,0.1875 -1,0.1875 l 0,0.46875 c 0.34375,-0.015625 0.875,-0.03125 0.921875,-0.03125 0.25,0 0.828125,0.015625 1.015625,0.03125 l 0,-0.46875 c -0.171875,0 -0.359375,-0.046875 -0.359375,-0.109375 0,-0.015625 0,-0.015625 0.0625,-0.09375 l 0.96875,-1.09375 1.09375,1.296875 -0.390625,0 0,0.46875 c 0.265625,-0.015625 0.875,-0.03125 1.203125,-0.03125 0.3125,0 0.765625,0.015625 1.09375,0.03125 l 0,-0.46875 -0.703125,0 z m 0,0"
               style="stroke:none"
               inkscape:connector-curvature="0" />
          </symbol>
          <symbol
             id="textext-5e206131-2"
             overflow="visible"
             style="overflow:visible">
            <path
               id="path9468"
               d=""
               style="stroke:none"
               inkscape:connector-curvature="0" />
          </symbol>
          <symbol
             id="textext-5e206131-3"
             overflow="visible"
             style="overflow:visible">
            <path
               id="path9471"
               d="m 3.078125,-3.375 c 0,-0.078125 0,-0.140625 -0.078125,-0.140625 -0.03125,0 -0.0625,0 -0.109375,0.0625 l -0.1875,0.296875 c -0.234375,-0.21875 -0.546875,-0.359375 -1,-0.359375 -0.71875,0 -1.21875,0.4375 -1.21875,0.9375 0,0.28125 0.15625,0.5 0.296875,0.625 0.265625,0.21875 0.515625,0.265625 0.734375,0.3125 0.09375,0.015625 0.75,0.15625 0.796875,0.15625 0.328125,0.078125 0.640625,0.328125 0.640625,0.671875 0,0.34375 -0.359375,0.703125 -0.9375,0.703125 -0.21875,0 -0.640625,-0.03125 -0.953125,-0.234375 -0.234375,-0.15625 -0.359375,-0.375 -0.375,-0.671875 0,-0.078125 0,-0.109375 -0.09375,-0.109375 -0.109375,0 -0.109375,0.03125 -0.109375,0.140625 l 0,0.953125 c 0,0.09375 0,0.140625 0.078125,0.140625 0.046875,0 0.0625,-0.015625 0.09375,-0.0625 0.015625,-0.03125 0.1875,-0.265625 0.1875,-0.28125 0.375,0.28125 0.84375,0.34375 1.171875,0.34375 0.75,0 1.234375,-0.5 1.234375,-1.015625 C 3.25,-1.28125 3.015625,-1.5 2.9375,-1.578125 2.703125,-1.8125 2.421875,-1.859375 2.015625,-1.9375 1.734375,-2 1.453125,-2.046875 1.40625,-2.0625 1.203125,-2.109375 0.78125,-2.28125 0.78125,-2.671875 0.78125,-3 1.15625,-3.3125 1.703125,-3.3125 c 0.890625,0 1.109375,0.59375 1.15625,0.953125 0.015625,0.078125 0.03125,0.09375 0.109375,0.09375 0.109375,0 0.109375,-0.046875 0.109375,-0.140625 z m 0,0"
               style="stroke:none"
               inkscape:connector-curvature="0" />
          </symbol>
        </g>
      </defs>
      <g
         id="textext-5e206131-4">
        <g
           id="g9474"
           style="fill:#000000;fill-opacity:1">
          <use
             id="use9476"
             y="134.765"
             x="223.43201"
             xlink:href="#textext-5e206131-1"
             width="100%"
             height="100%" />
        </g>
        <g
           id="g9478"
           style="fill:#000000;fill-opacity:1">
          <use
             id="use9480"
             y="136.259"
             x="229.479"
             xlink:href="#textext-5e206131-3"
             width="100%"
             height="100%" />
        </g>
      </g>
    </g>
  </g>
  <g
     transform="translate(46.247415,-34.479372)"
     inkscape:groupmode="layer"
     id="layer3"
     inkscape:label="Ground plane"
     style="display:inline" />
  <g
     inkscape:label="Dielectric layers"
     inkscape:groupmode="layer"
     id="g6421"
     transform="translate(-103.40258,-124.49353)"
     style="display:inline">
    <rect
       style="opacity:1;fill:#00ff00;fill-opacity:0.19607843;stroke:none;stroke-width:0.69999999;stroke-miterlimit:4;stroke-dasharray:none;stroke-dashoffset:0;stroke-opacity:1"
       id="rect6425"
       width="350"
       height="50.000008"
       x="150"
       y="177.3622" />
    <g
       id="g7398"
       transform="matrix(3.2805,0,0,3.2805,-421.28183,-233.50715)"
       ns0:preamble="/home/homer/misc/physcmds.tex"
       ns0:text="$\\epsilon_1$">
      <defs
         id="defs7400">
        <g
           id="g7402">
          <symbol
             style="overflow:visible"
             id="textext-ddbc7512-0"
             overflow="visible">
            <path
               inkscape:connector-curvature="0"
               id="path7405"
               d=""
               style="stroke:none" />
          </symbol>
          <symbol
             style="overflow:visible"
             id="textext-ddbc7512-1"
             overflow="visible">
            <path
               inkscape:connector-curvature="0"
               id="path7408"
               d="m 2.96875,-2.25 c 0.15625,0 0.34375,0 0.34375,-0.171875 0,-0.140625 -0.125,-0.140625 -0.296875,-0.140625 l -1.609375,0 c 0.234375,-0.84375 0.796875,-1.421875 1.703125,-1.421875 l 0.3125,0 c 0.171875,0 0.328125,0 0.328125,-0.171875 0,-0.140625 -0.125,-0.140625 -0.296875,-0.140625 l -0.359375,0 c -1.296875,0 -2.625,1 -2.625,2.515625 0,1.109375 0.75,1.890625 1.796875,1.890625 0.65625,0 1.296875,-0.40625 1.296875,-0.515625 0,-0.015625 0,-0.125 -0.09375,-0.125 -0.015625,0 -0.046875,0 -0.125,0.046875 -0.3125,0.203125 -0.6875,0.375 -1.046875,0.375 -0.578125,0 -1.078125,-0.421875 -1.078125,-1.296875 0,-0.34375 0.078125,-0.734375 0.109375,-0.84375 z m 0,0"
               style="stroke:none" />
          </symbol>
          <symbol
             style="overflow:visible"
             id="textext-ddbc7512-2"
             overflow="visible">
            <path
               inkscape:connector-curvature="0"
               id="path7411"
               d=""
               style="stroke:none" />
          </symbol>
          <symbol
             style="overflow:visible"
             id="textext-ddbc7512-3"
             overflow="visible">
            <path
               inkscape:connector-curvature="0"
               id="path7414"
               d="m 2.328125,-4.4375 c 0,-0.1875 0,-0.1875 -0.203125,-0.1875 -0.453125,0.4375 -1.078125,0.4375 -1.359375,0.4375 l 0,0.25 c 0.15625,0 0.625,0 1,-0.1875 l 0,3.546875 c 0,0.234375 0,0.328125 -0.6875,0.328125 l -0.265625,0 0,0.25 c 0.125,0 0.984375,-0.03125 1.234375,-0.03125 0.21875,0 1.09375,0.03125 1.25,0.03125 l 0,-0.25 -0.265625,0 c -0.703125,0 -0.703125,-0.09375 -0.703125,-0.328125 z m 0,0"
               style="stroke:none" />
          </symbol>
        </g>
      </defs>
      <g
         id="textext-ddbc7512-4">
        <g
           id="g7417"
           style="fill:#000000;fill-opacity:1">
          <use
             height="100%"
             width="100%"
             id="use7419"
             y="134.765"
             x="223.43201"
             xlink:href="#textext-ddbc7512-1" />
        </g>
        <g
           id="g7421"
           style="fill:#000000;fill-opacity:1">
          <use
             height="100%"
             width="100%"
             id="use7423"
             y="136.259"
             x="227.476"
             xlink:href="#textext-ddbc7512-3" />
        </g>
      </g>
    </g>
    <rect
       y="227.3622"
       x="149.4966"
       height="35.160854"
       width="350"
       id="rect5227"
       style="opacity:1;fill:#00ffff;fill-opacity:1;stroke:none;stroke-width:0.69999999;stroke-miterlimit:4;stroke-dasharray:none;stroke-dashoffset:0;stroke-opacity:1" />
    <rect
       style="opacity:1;fill:#ff0000;fill-opacity:0.19607843;stroke:none;stroke-width:0.69999999;stroke-miterlimit:4;stroke-dasharray:none;stroke-dashoffset:0;stroke-opacity:1"
       id="rect5309"
       width="350"
       height="50.000008"
       x="150"
       y="312.36221" />
    <g
       id="g6234"
       transform="matrix(3.2805,0,0,3.2805,-421.28183,-192.55655)"
       ns0:preamble="/home/homer/misc/physcmds.tex"
       ns0:text="$\\epsilon_2$">
      <defs
         id="defs6236">
        <g
           id="g6238">
          <symbol
             id="textext-02d92908-0"
             overflow="visible"
             style="overflow:visible">
            <path
               id="path6241"
               d=""
               style="stroke:none"
               inkscape:connector-curvature="0" />
          </symbol>
          <symbol
             id="textext-02d92908-1"
             overflow="visible"
             style="overflow:visible">
            <path
               id="path6244"
               d="m 2.96875,-2.25 c 0.15625,0 0.34375,0 0.34375,-0.171875 0,-0.140625 -0.125,-0.140625 -0.296875,-0.140625 l -1.609375,0 c 0.234375,-0.84375 0.796875,-1.421875 1.703125,-1.421875 l 0.3125,0 c 0.171875,0 0.328125,0 0.328125,-0.171875 0,-0.140625 -0.125,-0.140625 -0.296875,-0.140625 l -0.359375,0 c -1.296875,0 -2.625,1 -2.625,2.515625 0,1.109375 0.75,1.890625 1.796875,1.890625 0.65625,0 1.296875,-0.40625 1.296875,-0.515625 0,-0.015625 0,-0.125 -0.09375,-0.125 -0.015625,0 -0.046875,0 -0.125,0.046875 -0.3125,0.203125 -0.6875,0.375 -1.046875,0.375 -0.578125,0 -1.078125,-0.421875 -1.078125,-1.296875 0,-0.34375 0.078125,-0.734375 0.109375,-0.84375 z m 0,0"
               style="stroke:none"
               inkscape:connector-curvature="0" />
          </symbol>
          <symbol
             id="textext-02d92908-2"
             overflow="visible"
             style="overflow:visible">
            <path
               id="path6247"
               d=""
               style="stroke:none"
               inkscape:connector-curvature="0" />
          </symbol>
          <symbol
             id="textext-02d92908-3"
             overflow="visible"
             style="overflow:visible">
            <path
               id="path6250"
               d="m 3.515625,-1.265625 -0.234375,0 c -0.015625,0.15625 -0.09375,0.5625 -0.1875,0.625 -0.046875,0.046875 -0.578125,0.046875 -0.6875,0.046875 l -1.28125,0 c 0.734375,-0.640625 0.984375,-0.84375 1.390625,-1.171875 0.515625,-0.40625 1,-0.84375 1,-1.5 0,-0.84375 -0.734375,-1.359375 -1.625,-1.359375 -0.859375,0 -1.453125,0.609375 -1.453125,1.25 0,0.34375 0.296875,0.390625 0.375,0.390625 0.15625,0 0.359375,-0.125 0.359375,-0.375 0,-0.125 -0.046875,-0.375 -0.40625,-0.375 C 0.984375,-4.21875 1.453125,-4.375 1.78125,-4.375 c 0.703125,0 1.0625,0.546875 1.0625,1.109375 0,0.609375 -0.4375,1.078125 -0.65625,1.328125 L 0.515625,-0.265625 C 0.4375,-0.203125 0.4375,-0.1875 0.4375,0 l 2.875,0 z m 0,0"
               style="stroke:none"
               inkscape:connector-curvature="0" />
          </symbol>
        </g>
      </defs>
      <g
         id="textext-02d92908-4">
        <g
           id="g6253"
           style="fill:#000000;fill-opacity:1">
          <use
             id="use6255"
             y="134.765"
             x="223.43201"
             xlink:href="#textext-02d92908-1"
             width="100%"
             height="100%" />
        </g>
        <g
           id="g6257"
           style="fill:#000000;fill-opacity:1">
          <use
             id="use6259"
             y="136.259"
             x="227.476"
             xlink:href="#textext-02d92908-3"
             width="100%"
             height="100%" />
        </g>
      </g>
    </g>
    <g
       ns0:text="$\\epsilon\\subt{$N$}$"
       ns0:preamble="/home/homer/misc/physcmds.tex"
       transform="matrix(3.2805,0,0,3.2805,-421.28183,-98.507124)"
       id="g8031">
      <defs
         id="defs8033">
        <g
           id="g8035">
          <symbol
             overflow="visible"
             id="textext-a913e9a8-0"
             style="overflow:visible">
            <path
               style="stroke:none"
               d=""
               id="path8038"
               inkscape:connector-curvature="0" />
          </symbol>
          <symbol
             overflow="visible"
             id="textext-a913e9a8-1"
             style="overflow:visible">
            <path
               style="stroke:none"
               d="m 2.96875,-2.25 c 0.15625,0 0.34375,0 0.34375,-0.171875 0,-0.140625 -0.125,-0.140625 -0.296875,-0.140625 l -1.609375,0 c 0.234375,-0.84375 0.796875,-1.421875 1.703125,-1.421875 l 0.3125,0 c 0.171875,0 0.328125,0 0.328125,-0.171875 0,-0.140625 -0.125,-0.140625 -0.296875,-0.140625 l -0.359375,0 c -1.296875,0 -2.625,1 -2.625,2.515625 0,1.109375 0.75,1.890625 1.796875,1.890625 0.65625,0 1.296875,-0.40625 1.296875,-0.515625 0,-0.015625 0,-0.125 -0.09375,-0.125 -0.015625,0 -0.046875,0 -0.125,0.046875 -0.3125,0.203125 -0.6875,0.375 -1.046875,0.375 -0.578125,0 -1.078125,-0.421875 -1.078125,-1.296875 0,-0.34375 0.078125,-0.734375 0.109375,-0.84375 z m 0,0"
               id="path8041"
               inkscape:connector-curvature="0" />
          </symbol>
          <symbol
             overflow="visible"
             id="textext-a913e9a8-2"
             style="overflow:visible">
            <path
               style="stroke:none"
               d=""
               id="path8044"
               inkscape:connector-curvature="0" />
          </symbol>
          <symbol
             overflow="visible"
             id="textext-a913e9a8-3"
             style="overflow:visible">
            <path
               style="stroke:none"
               d="m 4.765625,-2.84375 c 0.03125,-0.125 0.078125,-0.328125 0.53125,-0.34375 0.046875,0 0.125,0 0.125,-0.125 0,-0.03125 -0.015625,-0.09375 -0.078125,-0.09375 -0.09375,0 -0.1875,0.015625 -0.28125,0.015625 -0.09375,0 -0.1875,0 -0.28125,0 -0.09375,0 -0.203125,0 -0.296875,0 -0.09375,0 -0.1875,-0.015625 -0.28125,-0.015625 -0.03125,0 -0.125,0 -0.125,0.140625 0,0.078125 0.078125,0.078125 0.125,0.078125 0.328125,0.015625 0.359375,0.109375 0.359375,0.203125 0,0.03125 -0.015625,0.0625 -0.015625,0.09375 L 4,-0.75 2.5,-3.3125 C 2.453125,-3.40625 2.453125,-3.40625 2.328125,-3.40625 l -0.765625,0 c -0.109375,0 -0.1875,0 -0.1875,0.140625 0,0.078125 0.078125,0.078125 0.1875,0.078125 0.015625,0 0.21875,0 0.34375,0.03125 L 1.25,-0.5625 c -0.03125,0.140625 -0.078125,0.328125 -0.546875,0.34375 -0.03125,0 -0.125,0 -0.125,0.140625 C 0.578125,-0.046875 0.625,0 0.671875,0 0.75,0 0.859375,-0.015625 0.953125,-0.015625 c 0.09375,0 0.1875,0 0.28125,0 0.09375,0 0.203125,0 0.296875,0 C 1.625,-0.015625 1.71875,0 1.8125,0 1.875,0 1.9375,-0.03125 1.9375,-0.140625 1.9375,-0.21875 1.859375,-0.21875 1.796875,-0.21875 1.5625,-0.234375 1.453125,-0.296875 1.453125,-0.40625 c 0,-0.046875 0.015625,-0.078125 0.03125,-0.125 l 0.625,-2.5 1.703125,2.9375 C 3.875,0 3.890625,0 3.953125,0 c 0.09375,0 0.109375,-0.03125 0.125,-0.125 z m 0,0"
               id="path8047"
               inkscape:connector-curvature="0" />
          </symbol>
        </g>
      </defs>
      <g
         id="textext-a913e9a8-4">
        <g
           style="fill:#000000;fill-opacity:1"
           id="g8050">
          <use
             xlink:href="#textext-a913e9a8-1"
             x="223.43201"
             y="134.765"
             id="use8052"
             width="100%"
             height="100%" />
        </g>
        <g
           style="fill:#000000;fill-opacity:1"
           id="g8054">
          <use
             xlink:href="#textext-a913e9a8-3"
             x="227.476"
             y="136.259"
             id="use8056"
             width="100%"
             height="100%" />
        </g>
      </g>
    </g>
    <g
       ns0:text="$\\epsilon\\subt{$A$}$"
       ns0:preamble="/home/homer/misc/physcmds.tex"
       transform="matrix(3.2805,0,0,3.2805,-421.28183,-293.50715)"
       id="g5109">
      <defs
         id="defs5111">
        <g
           id="g5113">
          <symbol
             style="overflow:visible"
             overflow="visible"
             id="textext-aa4f573b-0">
            <path
               inkscape:connector-curvature="0"
               style="stroke:none"
               d=""
               id="path5116" />
          </symbol>
          <symbol
             style="overflow:visible"
             overflow="visible"
             id="textext-aa4f573b-1">
            <path
               inkscape:connector-curvature="0"
               style="stroke:none"
               d="m 2.96875,-2.25 c 0.15625,0 0.34375,0 0.34375,-0.171875 0,-0.140625 -0.125,-0.140625 -0.296875,-0.140625 l -1.609375,0 c 0.234375,-0.84375 0.796875,-1.421875 1.703125,-1.421875 l 0.3125,0 c 0.171875,0 0.328125,0 0.328125,-0.171875 0,-0.140625 -0.125,-0.140625 -0.296875,-0.140625 l -0.359375,0 c -1.296875,0 -2.625,1 -2.625,2.515625 0,1.109375 0.75,1.890625 1.796875,1.890625 0.65625,0 1.296875,-0.40625 1.296875,-0.515625 0,-0.015625 0,-0.125 -0.09375,-0.125 -0.015625,0 -0.046875,0 -0.125,0.046875 -0.3125,0.203125 -0.6875,0.375 -1.046875,0.375 -0.578125,0 -1.078125,-0.421875 -1.078125,-1.296875 0,-0.34375 0.078125,-0.734375 0.109375,-0.84375 z m 0,0"
               id="path5119" />
          </symbol>
          <symbol
             style="overflow:visible"
             overflow="visible"
             id="textext-aa4f573b-2">
            <path
               inkscape:connector-curvature="0"
               style="stroke:none"
               d=""
               id="path5122" />
          </symbol>
          <symbol
             style="overflow:visible"
             overflow="visible"
             id="textext-aa4f573b-3">
            <path
               inkscape:connector-curvature="0"
               style="stroke:none"
               d="m 3.625,-3.4375 c -0.015625,-0.09375 -0.046875,-0.125 -0.15625,-0.125 -0.109375,0 -0.140625,0.03125 -0.1875,0.109375 L 1.328125,-0.625 c -0.21875,0.3125 -0.390625,0.390625 -0.71875,0.40625 -0.09375,0 -0.09375,0.125 -0.09375,0.140625 C 0.515625,-0.015625 0.578125,0 0.59375,0 0.671875,0 0.75,-0.015625 0.828125,-0.015625 c 0.078125,0 0.15625,0 0.25,0 0.09375,0 0.1875,0 0.265625,0 C 1.4375,-0.015625 1.546875,0 1.640625,0 1.671875,0 1.75,0 1.75,-0.140625 1.75,-0.21875 1.6875,-0.21875 1.65625,-0.21875 c -0.03125,0 -0.234375,-0.015625 -0.234375,-0.140625 0,-0.046875 0.0625,-0.140625 0.09375,-0.1875 l 0.375,-0.53125 c 0.015625,-0.03125 0.015625,-0.03125 0.125,-0.03125 l 1.5,0 C 3.53125,-1.0625 3.53125,-1.03125 3.546875,-0.96875 3.5625,-0.875 3.65625,-0.390625 3.65625,-0.328125 c 0,0.109375 -0.3125,0.109375 -0.328125,0.109375 -0.078125,0 -0.15625,0 -0.15625,0.140625 C 3.171875,-0.03125 3.203125,0 3.265625,0 c 0.09375,0 0.21875,-0.015625 0.328125,-0.015625 0.125,0 0.234375,0 0.359375,0 0.09375,0 0.203125,0 0.3125,0 0.09375,0 0.21875,0.015625 0.3125,0.015625 0.09375,0 0.125,-0.0625 0.125,-0.140625 0,-0.078125 -0.078125,-0.078125 -0.15625,-0.078125 -0.328125,0 -0.328125,-0.046875 -0.34375,-0.15625 z m -0.453125,0.484375 0.3125,1.609375 -1.421875,0 z m 0,0"
               id="path5125" />
          </symbol>
        </g>
      </defs>
      <g
         id="textext-aa4f573b-4">
        <g
           style="fill:#000000;fill-opacity:1"
           id="g5128">
          <use
             height="100%"
             width="100%"
             xlink:href="#textext-aa4f573b-1"
             x="223.43201"
             y="134.765"
             id="use5130" />
        </g>
        <g
           style="fill:#000000;fill-opacity:1"
           id="g5132">
          <use
             height="100%"
             width="100%"
             xlink:href="#textext-aa4f573b-3"
             x="227.476"
             y="136.259"
             id="use5134" />
        </g>
      </g>
    </g>
    <path
       inkscape:connector-curvature="0"
       inkscape:original-d="m 500.57914,363.11658 c -350.08434,0 -350.08434,0 -350.08434,0"
       inkscape:path-effect="#path-effect5563"
       id="path5561"
       d="m 500.57914,363.11658 -350.08434,0"
       style="fill:none;fill-rule:evenodd;stroke:#0000ff;stroke-width:4;stroke-linecap:butt;stroke-linejoin:miter;stroke-miterlimit:4;stroke-dasharray:none;stroke-opacity:1" />
  </g>
  <g
     style="display:none"
     transform="translate(-103.40258,-124.49353)"
     id="g10445"
     inkscape:groupmode="layer"
     inkscape:label="Sigma layers">
    <path
       style="fill:#00ff00;fill-opacity:0.19607843;fill-rule:evenodd;stroke:#00ff00;stroke-width:4;stroke-linecap:butt;stroke-linejoin:miter;stroke-miterlimit:4;stroke-dasharray:none;stroke-opacity:0.19607843"
       d="m 149.74242,177.20523 350.15218,0.52068"
       id="path10549"
       inkscape:path-effect="#path-effect10551"
       inkscape:original-d="m 149.74242,177.20523 c 350.41252,0 350.15218,0.52068 350.15218,0.52068"
       inkscape:connector-curvature="0" />
    <path
       inkscape:connector-curvature="0"
       inkscape:original-d="m 149.74242,312.20523 c 350.41252,0 350.15218,0.52068 350.15218,0.52068"
       inkscape:path-effect="#path-effect10555"
       id="path10553"
       d="m 149.74242,312.20523 350.15218,0.52068"
       style="fill:#ff0000;fill-opacity:0.19607843;fill-rule:evenodd;stroke:#ff0000;stroke-width:4;stroke-linecap:butt;stroke-linejoin:miter;stroke-miterlimit:4;stroke-dasharray:none;stroke-opacity:0.19607843" />
    <g
       style="fill:#00ff00;fill-opacity:0.19607843"
       ns0:text="$\\sigma_1$"
       ns0:preamble="/home/homer/misc/physcmds.tex"
       transform="matrix(3.2805,0,0,3.2805,-571.28183,-273.50715)"
       id="g10726">
      <defs
         id="defs10728">
        <g
           id="g10730">
          <symbol
             style="overflow:visible"
             overflow="visible"
             id="textext-64f6aa1c-0">
            <path
               inkscape:connector-curvature="0"
               style="stroke:none"
               d=""
               id="path10733" />
          </symbol>
          <symbol
             style="overflow:visible"
             overflow="visible"
             id="textext-64f6aa1c-1">
            <path
               inkscape:connector-curvature="0"
               style="stroke:none"
               d="m 5.15625,-3.71875 c 0.140625,0 0.5,0 0.5,-0.34375 0,-0.234375 -0.21875,-0.234375 -0.390625,-0.234375 l -2.28125,0 c -1.5,0 -2.609375,1.640625 -2.609375,2.828125 0,0.875 0.59375,1.578125 1.5,1.578125 1.171875,0 2.5,-1.203125 2.5,-2.734375 0,-0.171875 0,-0.65625 -0.3125,-1.09375 z M 1.890625,-0.109375 C 1.390625,-0.109375 1,-0.46875 1,-1.1875 c 0,-0.296875 0.109375,-1.109375 0.46875,-1.703125 0.421875,-0.6875 1.015625,-0.828125 1.359375,-0.828125 0.828125,0 0.90625,0.65625 0.90625,0.96875 0,0.46875 -0.203125,1.28125 -0.53125,1.796875 -0.390625,0.578125 -0.9375,0.84375 -1.3125,0.84375 z m 0,0"
               id="path10736" />
          </symbol>
          <symbol
             style="overflow:visible"
             overflow="visible"
             id="textext-64f6aa1c-2">
            <path
               inkscape:connector-curvature="0"
               style="stroke:none"
               d=""
               id="path10739" />
          </symbol>
          <symbol
             style="overflow:visible"
             overflow="visible"
             id="textext-64f6aa1c-3">
            <path
               inkscape:connector-curvature="0"
               style="stroke:none"
               d="m 2.328125,-4.4375 c 0,-0.1875 0,-0.1875 -0.203125,-0.1875 -0.453125,0.4375 -1.078125,0.4375 -1.359375,0.4375 l 0,0.25 c 0.15625,0 0.625,0 1,-0.1875 l 0,3.546875 c 0,0.234375 0,0.328125 -0.6875,0.328125 l -0.265625,0 0,0.25 c 0.125,0 0.984375,-0.03125 1.234375,-0.03125 0.21875,0 1.09375,0.03125 1.25,0.03125 l 0,-0.25 -0.265625,0 c -0.703125,0 -0.703125,-0.09375 -0.703125,-0.328125 z m 0,0"
               id="path10742" />
          </symbol>
        </g>
      </defs>
      <g
         style="fill:#00ff00;fill-opacity:0.19607843"
         id="textext-64f6aa1c-4">
        <g
           style="fill:#00ff00;fill-opacity:0.19607843"
           id="g10745">
          <use
             style="fill:#00ff00;fill-opacity:0.19607843"
             height="100%"
             width="100%"
             xlink:href="#textext-64f6aa1c-1"
             x="223.43201"
             y="134.765"
             id="use10747" />
        </g>
        <g
           style="fill:#00ff00;fill-opacity:0.19607843"
           id="g10749">
          <use
             style="fill:#00ff00;fill-opacity:0.19607843"
             height="100%"
             width="100%"
             xlink:href="#textext-64f6aa1c-3"
             x="229.125"
             y="136.259"
             id="use10751" />
        </g>
      </g>
    </g>
    <path
       style="fill:#00ffff;fill-opacity:1;fill-rule:evenodd;stroke:#00ffff;stroke-width:4;stroke-linecap:butt;stroke-linejoin:miter;stroke-miterlimit:4;stroke-dasharray:none;stroke-opacity:1"
       d="m 149.74242,227.20523 350.15218,0.52068"
       id="path11240"
       inkscape:path-effect="#path-effect11242"
       inkscape:original-d="m 149.74242,227.20523 c 350.41252,0 350.15218,0.52068 350.15218,0.52068"
       inkscape:connector-curvature="0" />
    <g
       style="fill:#ff0000;fill-opacity:0.19607843"
       id="g11425"
       transform="matrix(3.2805,0,0,3.2805,-571.28183,-138.50715)"
       ns0:preamble="/home/homer/misc/physcmds.tex"
       ns0:text="$\\sigma\\subt{$N$}$">
      <defs
         id="defs11427">
        <g
           id="g11429">
          <symbol
             style="overflow:visible"
             id="textext-44a9a892-0"
             overflow="visible">
            <path
               inkscape:connector-curvature="0"
               id="path11432"
               d=""
               style="stroke:none" />
          </symbol>
          <symbol
             style="overflow:visible"
             id="textext-44a9a892-1"
             overflow="visible">
            <path
               inkscape:connector-curvature="0"
               id="path11435"
               d="m 5.15625,-3.71875 c 0.140625,0 0.5,0 0.5,-0.34375 0,-0.234375 -0.21875,-0.234375 -0.390625,-0.234375 l -2.28125,0 c -1.5,0 -2.609375,1.640625 -2.609375,2.828125 0,0.875 0.59375,1.578125 1.5,1.578125 1.171875,0 2.5,-1.203125 2.5,-2.734375 0,-0.171875 0,-0.65625 -0.3125,-1.09375 z M 1.890625,-0.109375 C 1.390625,-0.109375 1,-0.46875 1,-1.1875 c 0,-0.296875 0.109375,-1.109375 0.46875,-1.703125 0.421875,-0.6875 1.015625,-0.828125 1.359375,-0.828125 0.828125,0 0.90625,0.65625 0.90625,0.96875 0,0.46875 -0.203125,1.28125 -0.53125,1.796875 -0.390625,0.578125 -0.9375,0.84375 -1.3125,0.84375 z m 0,0"
               style="stroke:none" />
          </symbol>
          <symbol
             style="overflow:visible"
             id="textext-44a9a892-2"
             overflow="visible">
            <path
               inkscape:connector-curvature="0"
               id="path11438"
               d=""
               style="stroke:none" />
          </symbol>
          <symbol
             style="overflow:visible"
             id="textext-44a9a892-3"
             overflow="visible">
            <path
               inkscape:connector-curvature="0"
               id="path11441"
               d="m 4.765625,-2.84375 c 0.03125,-0.125 0.078125,-0.328125 0.53125,-0.34375 0.046875,0 0.125,0 0.125,-0.125 0,-0.03125 -0.015625,-0.09375 -0.078125,-0.09375 -0.09375,0 -0.1875,0.015625 -0.28125,0.015625 -0.09375,0 -0.1875,0 -0.28125,0 -0.09375,0 -0.203125,0 -0.296875,0 -0.09375,0 -0.1875,-0.015625 -0.28125,-0.015625 -0.03125,0 -0.125,0 -0.125,0.140625 0,0.078125 0.078125,0.078125 0.125,0.078125 0.328125,0.015625 0.359375,0.109375 0.359375,0.203125 0,0.03125 -0.015625,0.0625 -0.015625,0.09375 L 4,-0.75 2.5,-3.3125 C 2.453125,-3.40625 2.453125,-3.40625 2.328125,-3.40625 l -0.765625,0 c -0.109375,0 -0.1875,0 -0.1875,0.140625 0,0.078125 0.078125,0.078125 0.1875,0.078125 0.015625,0 0.21875,0 0.34375,0.03125 L 1.25,-0.5625 c -0.03125,0.140625 -0.078125,0.328125 -0.546875,0.34375 -0.03125,0 -0.125,0 -0.125,0.140625 C 0.578125,-0.046875 0.625,0 0.671875,0 0.75,0 0.859375,-0.015625 0.953125,-0.015625 c 0.09375,0 0.1875,0 0.28125,0 0.09375,0 0.203125,0 0.296875,0 C 1.625,-0.015625 1.71875,0 1.8125,0 1.875,0 1.9375,-0.03125 1.9375,-0.140625 1.9375,-0.21875 1.859375,-0.21875 1.796875,-0.21875 1.5625,-0.234375 1.453125,-0.296875 1.453125,-0.40625 c 0,-0.046875 0.015625,-0.078125 0.03125,-0.125 l 0.625,-2.5 1.703125,2.9375 C 3.875,0 3.890625,0 3.953125,0 c 0.09375,0 0.109375,-0.03125 0.125,-0.125 z m 0,0"
               style="stroke:none" />
          </symbol>
        </g>
      </defs>
      <g
         style="fill:#ff0000;fill-opacity:0.19607843"
         id="textext-44a9a892-4">
        <g
           id="g11444"
           style="fill:#ff0000;fill-opacity:0.19607843">
          <use
             height="100%"
             width="100%"
             style="fill:#ff0000;fill-opacity:0.19607843"
             id="use11446"
             y="134.765"
             x="223.43201"
             xlink:href="#textext-44a9a892-1" />
        </g>
        <g
           id="g11448"
           style="fill:#ff0000;fill-opacity:0.19607843">
          <use
             height="100%"
             width="100%"
             style="fill:#ff0000;fill-opacity:0.19607843"
             id="use11450"
             y="136.259"
             x="229.125"
             xlink:href="#textext-44a9a892-3" />
        </g>
      </g>
    </g>
    <g
       style="fill:#00ffff;fill-opacity:1"
       ns0:text="$\\sigma_2$"
       ns0:preamble="/home/homer/misc/physcmds.tex"
       transform="matrix(3.2805,0,0,3.2805,-571.28183,-223.50715)"
       id="g11960">
      <defs
         id="defs11962">
        <g
           id="g11964">
          <symbol
             style="overflow:visible"
             overflow="visible"
             id="textext-2e0821a7-0">
            <path
               inkscape:connector-curvature="0"
               style="stroke:none"
               d=""
               id="path11967" />
          </symbol>
          <symbol
             style="overflow:visible"
             overflow="visible"
             id="textext-2e0821a7-1">
            <path
               inkscape:connector-curvature="0"
               style="stroke:none"
               d="m 5.15625,-3.71875 c 0.140625,0 0.5,0 0.5,-0.34375 0,-0.234375 -0.21875,-0.234375 -0.390625,-0.234375 l -2.28125,0 c -1.5,0 -2.609375,1.640625 -2.609375,2.828125 0,0.875 0.59375,1.578125 1.5,1.578125 1.171875,0 2.5,-1.203125 2.5,-2.734375 0,-0.171875 0,-0.65625 -0.3125,-1.09375 z M 1.890625,-0.109375 C 1.390625,-0.109375 1,-0.46875 1,-1.1875 c 0,-0.296875 0.109375,-1.109375 0.46875,-1.703125 0.421875,-0.6875 1.015625,-0.828125 1.359375,-0.828125 0.828125,0 0.90625,0.65625 0.90625,0.96875 0,0.46875 -0.203125,1.28125 -0.53125,1.796875 -0.390625,0.578125 -0.9375,0.84375 -1.3125,0.84375 z m 0,0"
               id="path11970" />
          </symbol>
          <symbol
             style="overflow:visible"
             overflow="visible"
             id="textext-2e0821a7-2">
            <path
               inkscape:connector-curvature="0"
               style="stroke:none"
               d=""
               id="path11973" />
          </symbol>
          <symbol
             style="overflow:visible"
             overflow="visible"
             id="textext-2e0821a7-3">
            <path
               inkscape:connector-curvature="0"
               style="stroke:none"
               d="m 3.515625,-1.265625 -0.234375,0 c -0.015625,0.15625 -0.09375,0.5625 -0.1875,0.625 -0.046875,0.046875 -0.578125,0.046875 -0.6875,0.046875 l -1.28125,0 c 0.734375,-0.640625 0.984375,-0.84375 1.390625,-1.171875 0.515625,-0.40625 1,-0.84375 1,-1.5 0,-0.84375 -0.734375,-1.359375 -1.625,-1.359375 -0.859375,0 -1.453125,0.609375 -1.453125,1.25 0,0.34375 0.296875,0.390625 0.375,0.390625 0.15625,0 0.359375,-0.125 0.359375,-0.375 0,-0.125 -0.046875,-0.375 -0.40625,-0.375 C 0.984375,-4.21875 1.453125,-4.375 1.78125,-4.375 c 0.703125,0 1.0625,0.546875 1.0625,1.109375 0,0.609375 -0.4375,1.078125 -0.65625,1.328125 L 0.515625,-0.265625 C 0.4375,-0.203125 0.4375,-0.1875 0.4375,0 l 2.875,0 z m 0,0"
               id="path11976" />
          </symbol>
        </g>
      </defs>
      <g
         style="fill:#00ffff;fill-opacity:1"
         id="textext-2e0821a7-4">
        <g
           style="fill:#00ffff;fill-opacity:1"
           id="g11979">
          <use
             height="100%"
             width="100%"
             style="fill:#00ffff;fill-opacity:1"
             xlink:href="#textext-2e0821a7-1"
             x="223.43201"
             y="134.765"
             id="use11981" />
        </g>
        <g
           style="fill:#00ffff;fill-opacity:1"
           id="g11983">
          <use
             height="100%"
             width="100%"
             style="fill:#00ffff;fill-opacity:1"
             xlink:href="#textext-2e0821a7-3"
             x="229.125"
             y="136.259"
             id="use11985" />
        </g>
      </g>
    </g>
  </g>
  <g
     transform="translate(-103.40258,-124.49353)"
     id="g10351"
     inkscape:groupmode="layer"
     inkscape:label="Ellipses"
     style="display:inline">
    <circle
       style="opacity:1;fill:#000000;fill-opacity:1;stroke:none;stroke-width:0.69999999;stroke-miterlimit:4;stroke-dasharray:none;stroke-dashoffset:0;stroke-opacity:1"
       id="circle10357"
       cx="325"
       cy="277.36221"
       r="2.4179351" />
    <circle
       r="2.4179351"
       cy="287.36221"
       cx="325"
       id="circle10359"
       style="opacity:1;fill:#000000;fill-opacity:1;stroke:none;stroke-width:0.69999999;stroke-miterlimit:4;stroke-dasharray:none;stroke-dashoffset:0;stroke-opacity:1" />
    <circle
       style="opacity:1;fill:#000000;fill-opacity:1;stroke:none;stroke-width:0.69999999;stroke-miterlimit:4;stroke-dasharray:none;stroke-dashoffset:0;stroke-opacity:1"
       id="circle10361"
       cx="325"
       cy="297.36221"
       r="2.4179351" />
    <circle
       r="2.4179351"
       cy="297.36221"
       cx="325"
       id="circle10363"
       style="opacity:1;fill:#000000;fill-opacity:1;stroke:none;stroke-width:0.69999999;stroke-miterlimit:4;stroke-dasharray:none;stroke-dashoffset:0;stroke-opacity:1" />
    <circle
       r="2.4179351"
       cy="277.36221"
       cx="225"
       id="circle10365"
       style="opacity:1;fill:#000000;fill-opacity:1;stroke:none;stroke-width:0.69999999;stroke-miterlimit:4;stroke-dasharray:none;stroke-dashoffset:0;stroke-opacity:1" />
    <circle
       style="opacity:1;fill:#000000;fill-opacity:1;stroke:none;stroke-width:0.69999999;stroke-miterlimit:4;stroke-dasharray:none;stroke-dashoffset:0;stroke-opacity:1"
       id="circle10367"
       cx="225"
       cy="287.36221"
       r="2.4179351" />
    <circle
       r="2.4179351"
       cy="297.36221"
       cx="225"
       id="circle10369"
       style="opacity:1;fill:#000000;fill-opacity:1;stroke:none;stroke-width:0.69999999;stroke-miterlimit:4;stroke-dasharray:none;stroke-dashoffset:0;stroke-opacity:1" />
    <circle
       style="opacity:1;fill:#000000;fill-opacity:1;stroke:none;stroke-width:0.69999999;stroke-miterlimit:4;stroke-dasharray:none;stroke-dashoffset:0;stroke-opacity:1"
       id="circle10371"
       cx="225"
       cy="297.36221"
       r="2.4179351" />
    <circle
       style="opacity:1;fill:#000000;fill-opacity:1;stroke:none;stroke-width:0.69999999;stroke-miterlimit:4;stroke-dasharray:none;stroke-dashoffset:0;stroke-opacity:1"
       id="circle10373"
       cx="425"
       cy="277.36221"
       r="2.4179351" />
    <circle
       r="2.4179351"
       cy="287.36221"
       cx="425"
       id="circle10375"
       style="opacity:1;fill:#000000;fill-opacity:1;stroke:none;stroke-width:0.69999999;stroke-miterlimit:4;stroke-dasharray:none;stroke-dashoffset:0;stroke-opacity:1" />
    <circle
       style="opacity:1;fill:#000000;fill-opacity:1;stroke:none;stroke-width:0.69999999;stroke-miterlimit:4;stroke-dasharray:none;stroke-dashoffset:0;stroke-opacity:1"
       id="circle10377"
       cx="425"
       cy="297.36221"
       r="2.4179351" />
    <circle
       r="2.4179351"
       cy="297.36221"
       cx="425"
       id="circle10379"
       style="opacity:1;fill:#000000;fill-opacity:1;stroke:none;stroke-width:0.69999999;stroke-miterlimit:4;stroke-dasharray:none;stroke-dashoffset:0;stroke-opacity:1" />
  </g>
  <g
     style="display:inline"
     transform="translate(-103.40258,-124.49353)"
     id="g9913"
     inkscape:groupmode="layer"
     inkscape:label="Z labels">
    <g
       ns0:text="$z=z_1$"
       ns0:preamble="/home/homer/misc/physcmds.tex"
       transform="matrix(1.4121478,0,0,1.4121477,-207.7122,-10.842299)"
       style="display:inline"
       id="g9949">
      <defs
         id="defs9951">
        <g
           id="g9953">
          <symbol
             style="overflow:visible"
             overflow="visible"
             id="symbol9955">
            <path
               inkscape:connector-curvature="0"
               style="stroke:none"
               d=""
               id="path9957" />
          </symbol>
          <symbol
             style="overflow:visible"
             overflow="visible"
             id="symbol9959">
            <path
               inkscape:connector-curvature="0"
               style="stroke:none"
               d="m 1.328125,-0.828125 c 0.53125,-0.578125 0.828125,-0.828125 1.1875,-1.140625 0,0 0.609375,-0.53125 0.96875,-0.890625 C 4.4375,-3.78125 4.65625,-4.265625 4.65625,-4.3125 c 0,-0.09375 -0.09375,-0.09375 -0.109375,-0.09375 -0.078125,0 -0.09375,0.015625 -0.15625,0.109375 -0.296875,0.484375 -0.5,0.640625 -0.734375,0.640625 -0.25,0 -0.359375,-0.15625 -0.515625,-0.328125 -0.1875,-0.21875 -0.359375,-0.421875 -0.6875,-0.421875 -0.75,0 -1.203125,0.921875 -1.203125,1.140625 0,0.046875 0.03125,0.109375 0.109375,0.109375 0.09375,0 0.109375,-0.046875 0.140625,-0.109375 0.1875,-0.46875 0.765625,-0.46875 0.84375,-0.46875 0.203125,0 0.390625,0.0625 0.625,0.140625 0.40625,0.15625 0.515625,0.15625 0.765625,0.15625 -0.359375,0.421875 -1.1875,1.140625 -1.375,1.296875 l -0.90625,0.84375 C 0.78125,-0.625 0.421875,-0.0625 0.421875,0.015625 c 0,0.09375 0.109375,0.09375 0.125,0.09375 0.078125,0 0.09375,-0.015625 0.15625,-0.125 0.234375,-0.359375 0.53125,-0.625 0.859375,-0.625 0.21875,0 0.328125,0.09375 0.578125,0.375 0.15625,0.21875 0.34375,0.375 0.625,0.375 1,0 1.578125,-1.265625 1.578125,-1.53125 0,-0.046875 -0.046875,-0.109375 -0.125,-0.109375 -0.09375,0 -0.109375,0.0625 -0.140625,0.140625 C 3.84375,-0.75 3.203125,-0.5625 2.875,-0.5625 c -0.1875,0 -0.375,-0.0625 -0.578125,-0.125 -0.34375,-0.125 -0.5,-0.171875 -0.703125,-0.171875 -0.015625,0 -0.171875,0 -0.265625,0.03125 z m 0,0"
               id="path9961" />
          </symbol>
          <symbol
             style="overflow:visible"
             overflow="visible"
             id="symbol9963">
            <path
               inkscape:connector-curvature="0"
               style="stroke:none"
               d=""
               id="path9965" />
          </symbol>
          <symbol
             style="overflow:visible"
             overflow="visible"
             id="symbol9967">
            <path
               inkscape:connector-curvature="0"
               style="stroke:none"
               d="m 6.84375,-3.265625 c 0.15625,0 0.34375,0 0.34375,-0.1875 C 7.1875,-3.65625 7,-3.65625 6.859375,-3.65625 l -5.96875,0 c -0.140625,0 -0.328125,0 -0.328125,0.203125 0,0.1875 0.1875,0.1875 0.328125,0.1875 z m 0.015625,1.9375 c 0.140625,0 0.328125,0 0.328125,-0.203125 0,-0.1875 -0.1875,-0.1875 -0.34375,-0.1875 l -5.953125,0 c -0.140625,0 -0.328125,0 -0.328125,0.1875 0,0.203125 0.1875,0.203125 0.328125,0.203125 z m 0,0"
               id="path9969" />
          </symbol>
          <symbol
             style="overflow:visible"
             overflow="visible"
             id="symbol9971">
            <path
               inkscape:connector-curvature="0"
               style="stroke:none"
               d=""
               id="path9973" />
          </symbol>
          <symbol
             style="overflow:visible"
             overflow="visible"
             id="symbol9975">
            <path
               inkscape:connector-curvature="0"
               style="stroke:none"
               d="m 2.328125,-4.4375 c 0,-0.1875 0,-0.1875 -0.203125,-0.1875 -0.453125,0.4375 -1.078125,0.4375 -1.359375,0.4375 l 0,0.25 c 0.15625,0 0.625,0 1,-0.1875 l 0,3.546875 c 0,0.234375 0,0.328125 -0.6875,0.328125 l -0.265625,0 0,0.25 c 0.125,0 0.984375,-0.03125 1.234375,-0.03125 0.21875,0 1.09375,0.03125 1.25,0.03125 l 0,-0.25 -0.265625,0 c -0.703125,0 -0.703125,-0.09375 -0.703125,-0.328125 z m 0,0"
               id="path9977" />
          </symbol>
        </g>
      </defs>
      <g
         id="g9979">
        <g
           style="fill:#000000;fill-opacity:1"
           id="g9981">
          <g
             id="use9983"
             transform="translate(223.43201,134.765)">
            <path
               inkscape:connector-curvature="0"
               style="stroke:none"
               d="m 1.328125,-0.828125 c 0.53125,-0.578125 0.828125,-0.828125 1.1875,-1.140625 0,0 0.609375,-0.53125 0.96875,-0.890625 C 4.4375,-3.78125 4.65625,-4.265625 4.65625,-4.3125 c 0,-0.09375 -0.09375,-0.09375 -0.109375,-0.09375 -0.078125,0 -0.09375,0.015625 -0.15625,0.109375 -0.296875,0.484375 -0.5,0.640625 -0.734375,0.640625 -0.25,0 -0.359375,-0.15625 -0.515625,-0.328125 -0.1875,-0.21875 -0.359375,-0.421875 -0.6875,-0.421875 -0.75,0 -1.203125,0.921875 -1.203125,1.140625 0,0.046875 0.03125,0.109375 0.109375,0.109375 0.09375,0 0.109375,-0.046875 0.140625,-0.109375 0.1875,-0.46875 0.765625,-0.46875 0.84375,-0.46875 0.203125,0 0.390625,0.0625 0.625,0.140625 0.40625,0.15625 0.515625,0.15625 0.765625,0.15625 -0.359375,0.421875 -1.1875,1.140625 -1.375,1.296875 l -0.90625,0.84375 C 0.78125,-0.625 0.421875,-0.0625 0.421875,0.015625 c 0,0.09375 0.109375,0.09375 0.125,0.09375 0.078125,0 0.09375,-0.015625 0.15625,-0.125 0.234375,-0.359375 0.53125,-0.625 0.859375,-0.625 0.21875,0 0.328125,0.09375 0.578125,0.375 0.15625,0.21875 0.34375,0.375 0.625,0.375 1,0 1.578125,-1.265625 1.578125,-1.53125 0,-0.046875 -0.046875,-0.109375 -0.125,-0.109375 -0.09375,0 -0.109375,0.0625 -0.140625,0.140625 C 3.84375,-0.75 3.203125,-0.5625 2.875,-0.5625 c -0.1875,0 -0.375,-0.0625 -0.578125,-0.125 -0.34375,-0.125 -0.5,-0.171875 -0.703125,-0.171875 -0.015625,0 -0.171875,0 -0.265625,0.03125 z m 0,0"
               id="path10329" />
          </g>
        </g>
        <g
           style="fill:#000000;fill-opacity:1"
           id="g9985">
          <g
             id="use9987"
             transform="translate(231.271,134.765)">
            <path
               inkscape:connector-curvature="0"
               style="stroke:none"
               d="m 6.84375,-3.265625 c 0.15625,0 0.34375,0 0.34375,-0.1875 C 7.1875,-3.65625 7,-3.65625 6.859375,-3.65625 l -5.96875,0 c -0.140625,0 -0.328125,0 -0.328125,0.203125 0,0.1875 0.1875,0.1875 0.328125,0.1875 z m 0.015625,1.9375 c 0.140625,0 0.328125,0 0.328125,-0.203125 0,-0.1875 -0.1875,-0.1875 -0.34375,-0.1875 l -5.953125,0 c -0.140625,0 -0.328125,0 -0.328125,0.1875 0,0.203125 0.1875,0.203125 0.328125,0.203125 z m 0,0"
               id="path10341" />
          </g>
        </g>
        <g
           style="fill:#000000;fill-opacity:1"
           id="g9989">
          <g
             id="use9991"
             transform="translate(241.787,134.765)">
            <path
               inkscape:connector-curvature="0"
               style="stroke:none"
               d="m 1.328125,-0.828125 c 0.53125,-0.578125 0.828125,-0.828125 1.1875,-1.140625 0,0 0.609375,-0.53125 0.96875,-0.890625 C 4.4375,-3.78125 4.65625,-4.265625 4.65625,-4.3125 c 0,-0.09375 -0.09375,-0.09375 -0.109375,-0.09375 -0.078125,0 -0.09375,0.015625 -0.15625,0.109375 -0.296875,0.484375 -0.5,0.640625 -0.734375,0.640625 -0.25,0 -0.359375,-0.15625 -0.515625,-0.328125 -0.1875,-0.21875 -0.359375,-0.421875 -0.6875,-0.421875 -0.75,0 -1.203125,0.921875 -1.203125,1.140625 0,0.046875 0.03125,0.109375 0.109375,0.109375 0.09375,0 0.109375,-0.046875 0.140625,-0.109375 0.1875,-0.46875 0.765625,-0.46875 0.84375,-0.46875 0.203125,0 0.390625,0.0625 0.625,0.140625 0.40625,0.15625 0.515625,0.15625 0.765625,0.15625 -0.359375,0.421875 -1.1875,1.140625 -1.375,1.296875 l -0.90625,0.84375 C 0.78125,-0.625 0.421875,-0.0625 0.421875,0.015625 c 0,0.09375 0.109375,0.09375 0.125,0.09375 0.078125,0 0.09375,-0.015625 0.15625,-0.125 0.234375,-0.359375 0.53125,-0.625 0.859375,-0.625 0.21875,0 0.328125,0.09375 0.578125,0.375 0.15625,0.21875 0.34375,0.375 0.625,0.375 1,0 1.578125,-1.265625 1.578125,-1.53125 0,-0.046875 -0.046875,-0.109375 -0.125,-0.109375 -0.09375,0 -0.109375,0.0625 -0.140625,0.140625 C 3.84375,-0.75 3.203125,-0.5625 2.875,-0.5625 c -0.1875,0 -0.375,-0.0625 -0.578125,-0.125 -0.34375,-0.125 -0.5,-0.171875 -0.703125,-0.171875 -0.015625,0 -0.171875,0 -0.265625,0.03125 z m 0,0"
               id="path10333" />
          </g>
        </g>
        <g
           style="fill:#000000;fill-opacity:1"
           id="g9993">
          <g
             id="use9995"
             transform="translate(246.42,136.259)">
            <path
               inkscape:connector-curvature="0"
               style="stroke:none"
               d="m 2.328125,-4.4375 c 0,-0.1875 0,-0.1875 -0.203125,-0.1875 -0.453125,0.4375 -1.078125,0.4375 -1.359375,0.4375 l 0,0.25 c 0.15625,0 0.625,0 1,-0.1875 l 0,3.546875 c 0,0.234375 0,0.328125 -0.6875,0.328125 l -0.265625,0 0,0.25 c 0.125,0 0.984375,-0.03125 1.234375,-0.03125 0.21875,0 1.09375,0.03125 1.25,0.03125 l 0,-0.25 -0.265625,0 c -0.703125,0 -0.703125,-0.09375 -0.703125,-0.328125 z m 0,0"
               id="path10349" />
          </g>
        </g>
      </g>
    </g>
    <g
       id="g10001"
       style="display:inline"
       transform="matrix(1.4121478,0,0,1.4121477,-207.7122,39.157707)"
       ns0:preamble="/home/homer/misc/physcmds.tex"
       ns0:text="$z=z_2$">
      <defs
         id="defs10003">
        <g
           id="g10005">
          <symbol
             style="overflow:visible"
             id="symbol10007"
             overflow="visible">
            <path
               inkscape:connector-curvature="0"
               id="path10009"
               d=""
               style="stroke:none" />
          </symbol>
          <symbol
             style="overflow:visible"
             id="symbol10011"
             overflow="visible">
            <path
               inkscape:connector-curvature="0"
               id="path10013"
               d="m 1.328125,-0.828125 c 0.53125,-0.578125 0.828125,-0.828125 1.1875,-1.140625 0,0 0.609375,-0.53125 0.96875,-0.890625 C 4.4375,-3.78125 4.65625,-4.265625 4.65625,-4.3125 c 0,-0.09375 -0.09375,-0.09375 -0.109375,-0.09375 -0.078125,0 -0.09375,0.015625 -0.15625,0.109375 -0.296875,0.484375 -0.5,0.640625 -0.734375,0.640625 -0.25,0 -0.359375,-0.15625 -0.515625,-0.328125 -0.1875,-0.21875 -0.359375,-0.421875 -0.6875,-0.421875 -0.75,0 -1.203125,0.921875 -1.203125,1.140625 0,0.046875 0.03125,0.109375 0.109375,0.109375 0.09375,0 0.109375,-0.046875 0.140625,-0.109375 0.1875,-0.46875 0.765625,-0.46875 0.84375,-0.46875 0.203125,0 0.390625,0.0625 0.625,0.140625 0.40625,0.15625 0.515625,0.15625 0.765625,0.15625 -0.359375,0.421875 -1.1875,1.140625 -1.375,1.296875 l -0.90625,0.84375 C 0.78125,-0.625 0.421875,-0.0625 0.421875,0.015625 c 0,0.09375 0.109375,0.09375 0.125,0.09375 0.078125,0 0.09375,-0.015625 0.15625,-0.125 0.234375,-0.359375 0.53125,-0.625 0.859375,-0.625 0.21875,0 0.328125,0.09375 0.578125,0.375 0.15625,0.21875 0.34375,0.375 0.625,0.375 1,0 1.578125,-1.265625 1.578125,-1.53125 0,-0.046875 -0.046875,-0.109375 -0.125,-0.109375 -0.09375,0 -0.109375,0.0625 -0.140625,0.140625 C 3.84375,-0.75 3.203125,-0.5625 2.875,-0.5625 c -0.1875,0 -0.375,-0.0625 -0.578125,-0.125 -0.34375,-0.125 -0.5,-0.171875 -0.703125,-0.171875 -0.015625,0 -0.171875,0 -0.265625,0.03125 z m 0,0"
               style="stroke:none" />
          </symbol>
          <symbol
             style="overflow:visible"
             id="symbol10015"
             overflow="visible">
            <path
               inkscape:connector-curvature="0"
               id="path10017"
               d=""
               style="stroke:none" />
          </symbol>
          <symbol
             style="overflow:visible"
             id="symbol10019"
             overflow="visible">
            <path
               inkscape:connector-curvature="0"
               id="path10021"
               d="m 6.84375,-3.265625 c 0.15625,0 0.34375,0 0.34375,-0.1875 C 7.1875,-3.65625 7,-3.65625 6.859375,-3.65625 l -5.96875,0 c -0.140625,0 -0.328125,0 -0.328125,0.203125 0,0.1875 0.1875,0.1875 0.328125,0.1875 z m 0.015625,1.9375 c 0.140625,0 0.328125,0 0.328125,-0.203125 0,-0.1875 -0.1875,-0.1875 -0.34375,-0.1875 l -5.953125,0 c -0.140625,0 -0.328125,0 -0.328125,0.1875 0,0.203125 0.1875,0.203125 0.328125,0.203125 z m 0,0"
               style="stroke:none" />
          </symbol>
          <symbol
             style="overflow:visible"
             id="symbol10023"
             overflow="visible">
            <path
               inkscape:connector-curvature="0"
               id="path10025"
               d=""
               style="stroke:none" />
          </symbol>
          <symbol
             style="overflow:visible"
             id="symbol10027"
             overflow="visible">
            <path
               inkscape:connector-curvature="0"
               id="path10029"
               d="m 3.515625,-1.265625 -0.234375,0 c -0.015625,0.15625 -0.09375,0.5625 -0.1875,0.625 -0.046875,0.046875 -0.578125,0.046875 -0.6875,0.046875 l -1.28125,0 c 0.734375,-0.640625 0.984375,-0.84375 1.390625,-1.171875 0.515625,-0.40625 1,-0.84375 1,-1.5 0,-0.84375 -0.734375,-1.359375 -1.625,-1.359375 -0.859375,0 -1.453125,0.609375 -1.453125,1.25 0,0.34375 0.296875,0.390625 0.375,0.390625 0.15625,0 0.359375,-0.125 0.359375,-0.375 0,-0.125 -0.046875,-0.375 -0.40625,-0.375 C 0.984375,-4.21875 1.453125,-4.375 1.78125,-4.375 c 0.703125,0 1.0625,0.546875 1.0625,1.109375 0,0.609375 -0.4375,1.078125 -0.65625,1.328125 L 0.515625,-0.265625 C 0.4375,-0.203125 0.4375,-0.1875 0.4375,0 l 2.875,0 z m 0,0"
               style="stroke:none" />
          </symbol>
        </g>
      </defs>
      <g
         id="g10031">
        <g
           id="g10033"
           style="fill:#000000;fill-opacity:1">
          <g
             id="use10035"
             transform="translate(223.43201,134.765)">
            <path
               inkscape:connector-curvature="0"
               id="path10297"
               d="m 1.328125,-0.828125 c 0.53125,-0.578125 0.828125,-0.828125 1.1875,-1.140625 0,0 0.609375,-0.53125 0.96875,-0.890625 C 4.4375,-3.78125 4.65625,-4.265625 4.65625,-4.3125 c 0,-0.09375 -0.09375,-0.09375 -0.109375,-0.09375 -0.078125,0 -0.09375,0.015625 -0.15625,0.109375 -0.296875,0.484375 -0.5,0.640625 -0.734375,0.640625 -0.25,0 -0.359375,-0.15625 -0.515625,-0.328125 -0.1875,-0.21875 -0.359375,-0.421875 -0.6875,-0.421875 -0.75,0 -1.203125,0.921875 -1.203125,1.140625 0,0.046875 0.03125,0.109375 0.109375,0.109375 0.09375,0 0.109375,-0.046875 0.140625,-0.109375 0.1875,-0.46875 0.765625,-0.46875 0.84375,-0.46875 0.203125,0 0.390625,0.0625 0.625,0.140625 0.40625,0.15625 0.515625,0.15625 0.765625,0.15625 -0.359375,0.421875 -1.1875,1.140625 -1.375,1.296875 l -0.90625,0.84375 C 0.78125,-0.625 0.421875,-0.0625 0.421875,0.015625 c 0,0.09375 0.109375,0.09375 0.125,0.09375 0.078125,0 0.09375,-0.015625 0.15625,-0.125 0.234375,-0.359375 0.53125,-0.625 0.859375,-0.625 0.21875,0 0.328125,0.09375 0.578125,0.375 0.15625,0.21875 0.34375,0.375 0.625,0.375 1,0 1.578125,-1.265625 1.578125,-1.53125 0,-0.046875 -0.046875,-0.109375 -0.125,-0.109375 -0.09375,0 -0.109375,0.0625 -0.140625,0.140625 C 3.84375,-0.75 3.203125,-0.5625 2.875,-0.5625 c -0.1875,0 -0.375,-0.0625 -0.578125,-0.125 -0.34375,-0.125 -0.5,-0.171875 -0.703125,-0.171875 -0.015625,0 -0.171875,0 -0.265625,0.03125 z m 0,0"
               style="stroke:none" />
          </g>
        </g>
        <g
           id="g10037"
           style="fill:#000000;fill-opacity:1">
          <g
             id="use10039"
             transform="translate(231.271,134.765)">
            <path
               inkscape:connector-curvature="0"
               id="path10309"
               d="m 6.84375,-3.265625 c 0.15625,0 0.34375,0 0.34375,-0.1875 C 7.1875,-3.65625 7,-3.65625 6.859375,-3.65625 l -5.96875,0 c -0.140625,0 -0.328125,0 -0.328125,0.203125 0,0.1875 0.1875,0.1875 0.328125,0.1875 z m 0.015625,1.9375 c 0.140625,0 0.328125,0 0.328125,-0.203125 0,-0.1875 -0.1875,-0.1875 -0.34375,-0.1875 l -5.953125,0 c -0.140625,0 -0.328125,0 -0.328125,0.1875 0,0.203125 0.1875,0.203125 0.328125,0.203125 z m 0,0"
               style="stroke:none" />
          </g>
        </g>
        <g
           id="g10041"
           style="fill:#000000;fill-opacity:1">
          <g
             id="use10043"
             transform="translate(241.787,134.765)">
            <path
               inkscape:connector-curvature="0"
               id="path10301"
               d="m 1.328125,-0.828125 c 0.53125,-0.578125 0.828125,-0.828125 1.1875,-1.140625 0,0 0.609375,-0.53125 0.96875,-0.890625 C 4.4375,-3.78125 4.65625,-4.265625 4.65625,-4.3125 c 0,-0.09375 -0.09375,-0.09375 -0.109375,-0.09375 -0.078125,0 -0.09375,0.015625 -0.15625,0.109375 -0.296875,0.484375 -0.5,0.640625 -0.734375,0.640625 -0.25,0 -0.359375,-0.15625 -0.515625,-0.328125 -0.1875,-0.21875 -0.359375,-0.421875 -0.6875,-0.421875 -0.75,0 -1.203125,0.921875 -1.203125,1.140625 0,0.046875 0.03125,0.109375 0.109375,0.109375 0.09375,0 0.109375,-0.046875 0.140625,-0.109375 0.1875,-0.46875 0.765625,-0.46875 0.84375,-0.46875 0.203125,0 0.390625,0.0625 0.625,0.140625 0.40625,0.15625 0.515625,0.15625 0.765625,0.15625 -0.359375,0.421875 -1.1875,1.140625 -1.375,1.296875 l -0.90625,0.84375 C 0.78125,-0.625 0.421875,-0.0625 0.421875,0.015625 c 0,0.09375 0.109375,0.09375 0.125,0.09375 0.078125,0 0.09375,-0.015625 0.15625,-0.125 0.234375,-0.359375 0.53125,-0.625 0.859375,-0.625 0.21875,0 0.328125,0.09375 0.578125,0.375 0.15625,0.21875 0.34375,0.375 0.625,0.375 1,0 1.578125,-1.265625 1.578125,-1.53125 0,-0.046875 -0.046875,-0.109375 -0.125,-0.109375 -0.09375,0 -0.109375,0.0625 -0.140625,0.140625 C 3.84375,-0.75 3.203125,-0.5625 2.875,-0.5625 c -0.1875,0 -0.375,-0.0625 -0.578125,-0.125 -0.34375,-0.125 -0.5,-0.171875 -0.703125,-0.171875 -0.015625,0 -0.171875,0 -0.265625,0.03125 z m 0,0"
               style="stroke:none" />
          </g>
        </g>
        <g
           id="g10045"
           style="fill:#000000;fill-opacity:1">
          <g
             id="use10047"
             transform="translate(246.42,136.259)">
            <path
               inkscape:connector-curvature="0"
               id="path10317"
               d="m 3.515625,-1.265625 -0.234375,0 c -0.015625,0.15625 -0.09375,0.5625 -0.1875,0.625 -0.046875,0.046875 -0.578125,0.046875 -0.6875,0.046875 l -1.28125,0 c 0.734375,-0.640625 0.984375,-0.84375 1.390625,-1.171875 0.515625,-0.40625 1,-0.84375 1,-1.5 0,-0.84375 -0.734375,-1.359375 -1.625,-1.359375 -0.859375,0 -1.453125,0.609375 -1.453125,1.25 0,0.34375 0.296875,0.390625 0.375,0.390625 0.15625,0 0.359375,-0.125 0.359375,-0.375 0,-0.125 -0.046875,-0.375 -0.40625,-0.375 C 0.984375,-4.21875 1.453125,-4.375 1.78125,-4.375 c 0.703125,0 1.0625,0.546875 1.0625,1.109375 0,0.609375 -0.4375,1.078125 -0.65625,1.328125 L 0.515625,-0.265625 C 0.4375,-0.203125 0.4375,-0.1875 0.4375,0 l 2.875,0 z m 0,0"
               style="stroke:none" />
          </g>
        </g>
      </g>
    </g>
    <g
       ns0:text="$z=z\\subt{$N$}$"
       ns0:preamble="/home/homer/misc/physcmds.tex"
       transform="matrix(1.4121478,0,0,1.4121477,-207.7122,124.15772)"
       style="display:inline"
       id="g10081">
      <defs
         id="defs10083">
        <g
           id="g10085">
          <symbol
             overflow="visible"
             id="symbol10087"
             style="overflow:visible">
            <path
               style="stroke:none"
               d=""
               id="path10089"
               inkscape:connector-curvature="0" />
          </symbol>
          <symbol
             overflow="visible"
             id="symbol10091"
             style="overflow:visible">
            <path
               style="stroke:none"
               d="m 1.328125,-0.828125 c 0.53125,-0.578125 0.828125,-0.828125 1.1875,-1.140625 0,0 0.609375,-0.53125 0.96875,-0.890625 C 4.4375,-3.78125 4.65625,-4.265625 4.65625,-4.3125 c 0,-0.09375 -0.09375,-0.09375 -0.109375,-0.09375 -0.078125,0 -0.09375,0.015625 -0.15625,0.109375 -0.296875,0.484375 -0.5,0.640625 -0.734375,0.640625 -0.25,0 -0.359375,-0.15625 -0.515625,-0.328125 -0.1875,-0.21875 -0.359375,-0.421875 -0.6875,-0.421875 -0.75,0 -1.203125,0.921875 -1.203125,1.140625 0,0.046875 0.03125,0.109375 0.109375,0.109375 0.09375,0 0.109375,-0.046875 0.140625,-0.109375 0.1875,-0.46875 0.765625,-0.46875 0.84375,-0.46875 0.203125,0 0.390625,0.0625 0.625,0.140625 0.40625,0.15625 0.515625,0.15625 0.765625,0.15625 -0.359375,0.421875 -1.1875,1.140625 -1.375,1.296875 l -0.90625,0.84375 C 0.78125,-0.625 0.421875,-0.0625 0.421875,0.015625 c 0,0.09375 0.109375,0.09375 0.125,0.09375 0.078125,0 0.09375,-0.015625 0.15625,-0.125 0.234375,-0.359375 0.53125,-0.625 0.859375,-0.625 0.21875,0 0.328125,0.09375 0.578125,0.375 0.15625,0.21875 0.34375,0.375 0.625,0.375 1,0 1.578125,-1.265625 1.578125,-1.53125 0,-0.046875 -0.046875,-0.109375 -0.125,-0.109375 -0.09375,0 -0.109375,0.0625 -0.140625,0.140625 C 3.84375,-0.75 3.203125,-0.5625 2.875,-0.5625 c -0.1875,0 -0.375,-0.0625 -0.578125,-0.125 -0.34375,-0.125 -0.5,-0.171875 -0.703125,-0.171875 -0.015625,0 -0.171875,0 -0.265625,0.03125 z m 0,0"
               id="path10093"
               inkscape:connector-curvature="0" />
          </symbol>
          <symbol
             overflow="visible"
             id="symbol10095"
             style="overflow:visible">
            <path
               style="stroke:none"
               d=""
               id="path10097"
               inkscape:connector-curvature="0" />
          </symbol>
          <symbol
             overflow="visible"
             id="symbol10099"
             style="overflow:visible">
            <path
               style="stroke:none"
               d="m 6.84375,-3.265625 c 0.15625,0 0.34375,0 0.34375,-0.1875 C 7.1875,-3.65625 7,-3.65625 6.859375,-3.65625 l -5.96875,0 c -0.140625,0 -0.328125,0 -0.328125,0.203125 0,0.1875 0.1875,0.1875 0.328125,0.1875 z m 0.015625,1.9375 c 0.140625,0 0.328125,0 0.328125,-0.203125 0,-0.1875 -0.1875,-0.1875 -0.34375,-0.1875 l -5.953125,0 c -0.140625,0 -0.328125,0 -0.328125,0.1875 0,0.203125 0.1875,0.203125 0.328125,0.203125 z m 0,0"
               id="path10101"
               inkscape:connector-curvature="0" />
          </symbol>
          <symbol
             overflow="visible"
             id="symbol10103"
             style="overflow:visible">
            <path
               style="stroke:none"
               d=""
               id="path10105"
               inkscape:connector-curvature="0" />
          </symbol>
          <symbol
             overflow="visible"
             id="symbol10107"
             style="overflow:visible">
            <path
               style="stroke:none"
               d="m 4.765625,-2.84375 c 0.03125,-0.125 0.078125,-0.328125 0.53125,-0.34375 0.046875,0 0.125,0 0.125,-0.125 0,-0.03125 -0.015625,-0.09375 -0.078125,-0.09375 -0.09375,0 -0.1875,0.015625 -0.28125,0.015625 -0.09375,0 -0.1875,0 -0.28125,0 -0.09375,0 -0.203125,0 -0.296875,0 -0.09375,0 -0.1875,-0.015625 -0.28125,-0.015625 -0.03125,0 -0.125,0 -0.125,0.140625 0,0.078125 0.078125,0.078125 0.125,0.078125 0.328125,0.015625 0.359375,0.109375 0.359375,0.203125 0,0.03125 -0.015625,0.0625 -0.015625,0.09375 L 4,-0.75 2.5,-3.3125 C 2.453125,-3.40625 2.453125,-3.40625 2.328125,-3.40625 l -0.765625,0 c -0.109375,0 -0.1875,0 -0.1875,0.140625 0,0.078125 0.078125,0.078125 0.1875,0.078125 0.015625,0 0.21875,0 0.34375,0.03125 L 1.25,-0.5625 c -0.03125,0.140625 -0.078125,0.328125 -0.546875,0.34375 -0.03125,0 -0.125,0 -0.125,0.140625 C 0.578125,-0.046875 0.625,0 0.671875,0 0.75,0 0.859375,-0.015625 0.953125,-0.015625 c 0.09375,0 0.1875,0 0.28125,0 0.09375,0 0.203125,0 0.296875,0 C 1.625,-0.015625 1.71875,0 1.8125,0 1.875,0 1.9375,-0.03125 1.9375,-0.140625 1.9375,-0.21875 1.859375,-0.21875 1.796875,-0.21875 1.5625,-0.234375 1.453125,-0.296875 1.453125,-0.40625 c 0,-0.046875 0.015625,-0.078125 0.03125,-0.125 l 0.625,-2.5 1.703125,2.9375 C 3.875,0 3.890625,0 3.953125,0 c 0.09375,0 0.109375,-0.03125 0.125,-0.125 z m 0,0"
               id="path10109"
               inkscape:connector-curvature="0" />
          </symbol>
        </g>
      </defs>
      <g
         id="g10111">
        <g
           style="fill:#000000;fill-opacity:1"
           id="g10113">
          <g
             id="use10115"
             transform="translate(223.43201,134.765)">
            <path
               style="stroke:none"
               d="m 1.328125,-0.828125 c 0.53125,-0.578125 0.828125,-0.828125 1.1875,-1.140625 0,0 0.609375,-0.53125 0.96875,-0.890625 C 4.4375,-3.78125 4.65625,-4.265625 4.65625,-4.3125 c 0,-0.09375 -0.09375,-0.09375 -0.109375,-0.09375 -0.078125,0 -0.09375,0.015625 -0.15625,0.109375 -0.296875,0.484375 -0.5,0.640625 -0.734375,0.640625 -0.25,0 -0.359375,-0.15625 -0.515625,-0.328125 -0.1875,-0.21875 -0.359375,-0.421875 -0.6875,-0.421875 -0.75,0 -1.203125,0.921875 -1.203125,1.140625 0,0.046875 0.03125,0.109375 0.109375,0.109375 0.09375,0 0.109375,-0.046875 0.140625,-0.109375 0.1875,-0.46875 0.765625,-0.46875 0.84375,-0.46875 0.203125,0 0.390625,0.0625 0.625,0.140625 0.40625,0.15625 0.515625,0.15625 0.765625,0.15625 -0.359375,0.421875 -1.1875,1.140625 -1.375,1.296875 l -0.90625,0.84375 C 0.78125,-0.625 0.421875,-0.0625 0.421875,0.015625 c 0,0.09375 0.109375,0.09375 0.125,0.09375 0.078125,0 0.09375,-0.015625 0.15625,-0.125 0.234375,-0.359375 0.53125,-0.625 0.859375,-0.625 0.21875,0 0.328125,0.09375 0.578125,0.375 0.15625,0.21875 0.34375,0.375 0.625,0.375 1,0 1.578125,-1.265625 1.578125,-1.53125 0,-0.046875 -0.046875,-0.109375 -0.125,-0.109375 -0.09375,0 -0.109375,0.0625 -0.140625,0.140625 C 3.84375,-0.75 3.203125,-0.5625 2.875,-0.5625 c -0.1875,0 -0.375,-0.0625 -0.578125,-0.125 -0.34375,-0.125 -0.5,-0.171875 -0.703125,-0.171875 -0.015625,0 -0.171875,0 -0.265625,0.03125 z m 0,0"
               id="path10265"
               inkscape:connector-curvature="0" />
          </g>
        </g>
        <g
           style="fill:#000000;fill-opacity:1"
           id="g10117">
          <g
             id="use10119"
             transform="translate(231.271,134.765)">
            <path
               style="stroke:none"
               d="m 6.84375,-3.265625 c 0.15625,0 0.34375,0 0.34375,-0.1875 C 7.1875,-3.65625 7,-3.65625 6.859375,-3.65625 l -5.96875,0 c -0.140625,0 -0.328125,0 -0.328125,0.203125 0,0.1875 0.1875,0.1875 0.328125,0.1875 z m 0.015625,1.9375 c 0.140625,0 0.328125,0 0.328125,-0.203125 0,-0.1875 -0.1875,-0.1875 -0.34375,-0.1875 l -5.953125,0 c -0.140625,0 -0.328125,0 -0.328125,0.1875 0,0.203125 0.1875,0.203125 0.328125,0.203125 z m 0,0"
               id="path10277"
               inkscape:connector-curvature="0" />
          </g>
        </g>
        <g
           style="fill:#000000;fill-opacity:1"
           id="g10121">
          <g
             id="use10123"
             transform="translate(241.787,134.765)">
            <path
               style="stroke:none"
               d="m 1.328125,-0.828125 c 0.53125,-0.578125 0.828125,-0.828125 1.1875,-1.140625 0,0 0.609375,-0.53125 0.96875,-0.890625 C 4.4375,-3.78125 4.65625,-4.265625 4.65625,-4.3125 c 0,-0.09375 -0.09375,-0.09375 -0.109375,-0.09375 -0.078125,0 -0.09375,0.015625 -0.15625,0.109375 -0.296875,0.484375 -0.5,0.640625 -0.734375,0.640625 -0.25,0 -0.359375,-0.15625 -0.515625,-0.328125 -0.1875,-0.21875 -0.359375,-0.421875 -0.6875,-0.421875 -0.75,0 -1.203125,0.921875 -1.203125,1.140625 0,0.046875 0.03125,0.109375 0.109375,0.109375 0.09375,0 0.109375,-0.046875 0.140625,-0.109375 0.1875,-0.46875 0.765625,-0.46875 0.84375,-0.46875 0.203125,0 0.390625,0.0625 0.625,0.140625 0.40625,0.15625 0.515625,0.15625 0.765625,0.15625 -0.359375,0.421875 -1.1875,1.140625 -1.375,1.296875 l -0.90625,0.84375 C 0.78125,-0.625 0.421875,-0.0625 0.421875,0.015625 c 0,0.09375 0.109375,0.09375 0.125,0.09375 0.078125,0 0.09375,-0.015625 0.15625,-0.125 0.234375,-0.359375 0.53125,-0.625 0.859375,-0.625 0.21875,0 0.328125,0.09375 0.578125,0.375 0.15625,0.21875 0.34375,0.375 0.625,0.375 1,0 1.578125,-1.265625 1.578125,-1.53125 0,-0.046875 -0.046875,-0.109375 -0.125,-0.109375 -0.09375,0 -0.109375,0.0625 -0.140625,0.140625 C 3.84375,-0.75 3.203125,-0.5625 2.875,-0.5625 c -0.1875,0 -0.375,-0.0625 -0.578125,-0.125 -0.34375,-0.125 -0.5,-0.171875 -0.703125,-0.171875 -0.015625,0 -0.171875,0 -0.265625,0.03125 z m 0,0"
               id="path10269"
               inkscape:connector-curvature="0" />
          </g>
        </g>
        <g
           style="fill:#000000;fill-opacity:1"
           id="g10125">
          <g
             id="use10127"
             transform="translate(246.42,136.259)">
            <path
               style="stroke:none"
               d="m 4.765625,-2.84375 c 0.03125,-0.125 0.078125,-0.328125 0.53125,-0.34375 0.046875,0 0.125,0 0.125,-0.125 0,-0.03125 -0.015625,-0.09375 -0.078125,-0.09375 -0.09375,0 -0.1875,0.015625 -0.28125,0.015625 -0.09375,0 -0.1875,0 -0.28125,0 -0.09375,0 -0.203125,0 -0.296875,0 -0.09375,0 -0.1875,-0.015625 -0.28125,-0.015625 -0.03125,0 -0.125,0 -0.125,0.140625 0,0.078125 0.078125,0.078125 0.125,0.078125 0.328125,0.015625 0.359375,0.109375 0.359375,0.203125 0,0.03125 -0.015625,0.0625 -0.015625,0.09375 L 4,-0.75 2.5,-3.3125 C 2.453125,-3.40625 2.453125,-3.40625 2.328125,-3.40625 l -0.765625,0 c -0.109375,0 -0.1875,0 -0.1875,0.140625 0,0.078125 0.078125,0.078125 0.1875,0.078125 0.015625,0 0.21875,0 0.34375,0.03125 L 1.25,-0.5625 c -0.03125,0.140625 -0.078125,0.328125 -0.546875,0.34375 -0.03125,0 -0.125,0 -0.125,0.140625 C 0.578125,-0.046875 0.625,0 0.671875,0 0.75,0 0.859375,-0.015625 0.953125,-0.015625 c 0.09375,0 0.1875,0 0.28125,0 0.09375,0 0.203125,0 0.296875,0 C 1.625,-0.015625 1.71875,0 1.8125,0 1.875,0 1.9375,-0.03125 1.9375,-0.140625 1.9375,-0.21875 1.859375,-0.21875 1.796875,-0.21875 1.5625,-0.234375 1.453125,-0.296875 1.453125,-0.40625 c 0,-0.046875 0.015625,-0.078125 0.03125,-0.125 l 0.625,-2.5 1.703125,2.9375 C 3.875,0 3.890625,0 3.953125,0 c 0.09375,0 0.109375,-0.03125 0.125,-0.125 z m 0,0"
               id="path10285"
               inkscape:connector-curvature="0" />
          </g>
        </g>
      </g>
    </g>
    <g
       id="g5899"
       style="display:inline"
       transform="matrix(1.4121478,0,0,1.4121477,-212.7122,174.15772)"
       ns0:preamble="/home/homer/misc/physcmds.tex"
       ns0:text="$z=z\\subt{GP}$">
      <defs
         id="defs5901">
        <g
           id="g5903">
          <symbol
             id="textext-83ef2674-0"
             overflow="visible"
             style="overflow:visible">
            <path
               id="path5906"
               d=""
               style="stroke:none"
               inkscape:connector-curvature="0" />
          </symbol>
          <symbol
             id="textext-83ef2674-1"
             overflow="visible"
             style="overflow:visible">
            <path
               id="path5909"
               d="m 1.328125,-0.828125 c 0.53125,-0.578125 0.828125,-0.828125 1.1875,-1.140625 0,0 0.609375,-0.53125 0.96875,-0.890625 C 4.4375,-3.78125 4.65625,-4.265625 4.65625,-4.3125 c 0,-0.09375 -0.09375,-0.09375 -0.109375,-0.09375 -0.078125,0 -0.09375,0.015625 -0.15625,0.109375 -0.296875,0.484375 -0.5,0.640625 -0.734375,0.640625 -0.25,0 -0.359375,-0.15625 -0.515625,-0.328125 -0.1875,-0.21875 -0.359375,-0.421875 -0.6875,-0.421875 -0.75,0 -1.203125,0.921875 -1.203125,1.140625 0,0.046875 0.03125,0.109375 0.109375,0.109375 0.09375,0 0.109375,-0.046875 0.140625,-0.109375 0.1875,-0.46875 0.765625,-0.46875 0.84375,-0.46875 0.203125,0 0.390625,0.0625 0.625,0.140625 0.40625,0.15625 0.515625,0.15625 0.765625,0.15625 -0.359375,0.421875 -1.1875,1.140625 -1.375,1.296875 l -0.90625,0.84375 C 0.78125,-0.625 0.421875,-0.0625 0.421875,0.015625 c 0,0.09375 0.109375,0.09375 0.125,0.09375 0.078125,0 0.09375,-0.015625 0.15625,-0.125 0.234375,-0.359375 0.53125,-0.625 0.859375,-0.625 0.21875,0 0.328125,0.09375 0.578125,0.375 0.15625,0.21875 0.34375,0.375 0.625,0.375 1,0 1.578125,-1.265625 1.578125,-1.53125 0,-0.046875 -0.046875,-0.109375 -0.125,-0.109375 -0.09375,0 -0.109375,0.0625 -0.140625,0.140625 C 3.84375,-0.75 3.203125,-0.5625 2.875,-0.5625 c -0.1875,0 -0.375,-0.0625 -0.578125,-0.125 -0.34375,-0.125 -0.5,-0.171875 -0.703125,-0.171875 -0.015625,0 -0.171875,0 -0.265625,0.03125 z m 0,0"
               style="stroke:none"
               inkscape:connector-curvature="0" />
          </symbol>
          <symbol
             id="textext-83ef2674-2"
             overflow="visible"
             style="overflow:visible">
            <path
               id="path5912"
               d=""
               style="stroke:none"
               inkscape:connector-curvature="0" />
          </symbol>
          <symbol
             id="textext-83ef2674-3"
             overflow="visible"
             style="overflow:visible">
            <path
               id="path5915"
               d="m 6.84375,-3.265625 c 0.15625,0 0.34375,0 0.34375,-0.1875 C 7.1875,-3.65625 7,-3.65625 6.859375,-3.65625 l -5.96875,0 c -0.140625,0 -0.328125,0 -0.328125,0.203125 0,0.1875 0.1875,0.1875 0.328125,0.1875 z m 0.015625,1.9375 c 0.140625,0 0.328125,0 0.328125,-0.203125 0,-0.1875 -0.1875,-0.1875 -0.34375,-0.1875 l -5.953125,0 c -0.140625,0 -0.328125,0 -0.328125,0.1875 0,0.203125 0.1875,0.203125 0.328125,0.203125 z m 0,0"
               style="stroke:none"
               inkscape:connector-curvature="0" />
          </symbol>
          <symbol
             id="textext-83ef2674-4"
             overflow="visible"
             style="overflow:visible">
            <path
               id="path5918"
               d=""
               style="stroke:none"
               inkscape:connector-curvature="0" />
          </symbol>
          <symbol
             id="textext-83ef2674-5"
             overflow="visible"
             style="overflow:visible">
            <path
               id="path5921"
               d="m 4.28125,-0.96875 c 0,-0.15625 0,-0.203125 0.328125,-0.203125 l 0.109375,0 0,-0.21875 c -0.296875,0.015625 -0.609375,0.03125 -0.75,0.03125 -0.28125,0 -0.75,0 -1,-0.03125 l 0,0.21875 0.25,0 c 0.53125,0 0.53125,0.0625 0.53125,0.21875 l 0,0.3125 c 0,0.109375 0,0.3125 -0.328125,0.4375 -0.25,0.09375 -0.5625,0.09375 -0.625,0.09375 -0.84375,0 -1.734375,-0.453125 -1.734375,-1.59375 0,-1.1875 0.9375,-1.59375 1.65625,-1.59375 0.453125,0 1.1875,0.25 1.34375,1.171875 0.015625,0.0625 0.0625,0.0625 0.109375,0.0625 0.109375,0 0.109375,-0.046875 0.109375,-0.140625 l 0,-1.171875 c 0,-0.078125 0,-0.140625 -0.078125,-0.140625 -0.046875,0 -0.0625,0.015625 -0.09375,0.0625 l -0.296875,0.375 c -0.234375,-0.1875 -0.59375,-0.4375 -1.1875,-0.4375 -1.1875,0 -2.140625,0.828125 -2.140625,1.8125 0,0.9375 0.890625,1.8125 2.171875,1.8125 0.1875,0 0.453125,-0.015625 0.703125,-0.078125 0.375,-0.09375 0.5,-0.28125 0.515625,-0.3125 C 4,-0.125 4.171875,0 4.21875,0 c 0.0625,0 0.0625,-0.0625 0.0625,-0.140625 z m 0,0"
               style="stroke:none"
               inkscape:connector-curvature="0" />
          </symbol>
          <symbol
             id="textext-83ef2674-6"
             overflow="visible"
             style="overflow:visible">
            <path
               id="path5924"
               d="m 1.5,-1.515625 1.09375,0 C 3.265625,-1.515625 4,-1.890625 4,-2.453125 4,-2.96875 3.34375,-3.40625 2.546875,-3.40625 l -2.125,0 0,0.21875 0.15625,0 c 0.40625,0 0.40625,0.046875 0.40625,0.203125 l 0,2.5625 c 0,0.15625 0,0.203125 -0.40625,0.203125 l -0.15625,0 0,0.21875 c 0.21875,-0.015625 0.53125,-0.015625 0.8125,-0.015625 0.296875,0 0.59375,0 0.828125,0.015625 l 0,-0.21875 -0.15625,0 C 1.5,-0.21875 1.5,-0.265625 1.5,-0.421875 Z M 2.421875,-3.1875 c 0.8125,0 1,0.34375 1,0.734375 0,0.421875 -0.203125,0.75 -1,0.75 l -0.9375,0 0,-1.296875 c 0,-0.15625 0,-0.1875 0.25,-0.1875 z m 0,0"
               style="stroke:none"
               inkscape:connector-curvature="0" />
          </symbol>
        </g>
      </defs>
      <g
         id="textext-83ef2674-7">
        <g
           id="g5927"
           style="fill:#000000;fill-opacity:1">
          <use
             id="use5929"
             y="134.765"
             x="223.43201"
             xlink:href="#textext-83ef2674-1"
             width="100%"
             height="100%" />
        </g>
        <g
           id="g5931"
           style="fill:#000000;fill-opacity:1">
          <use
             id="use5933"
             y="134.765"
             x="231.271"
             xlink:href="#textext-83ef2674-3"
             width="100%"
             height="100%" />
        </g>
        <g
           id="g5935"
           style="fill:#000000;fill-opacity:1">
          <use
             id="use5937"
             y="134.765"
             x="241.787"
             xlink:href="#textext-83ef2674-1"
             width="100%"
             height="100%" />
        </g>
        <g
           id="g5939"
           style="fill:#000000;fill-opacity:1">
          <use
             id="use5941"
             y="136.259"
             x="246.42"
             xlink:href="#textext-83ef2674-5"
             width="100%"
             height="100%" />
          <use
             id="use5943"
             y="136.259"
             x="251.56767"
             xlink:href="#textext-83ef2674-6"
             width="100%"
             height="100%" />
        </g>
      </g>
    </g>
  </g>
</svg>
