<?xml version="1.0" encoding="UTF-8" standalone="no"?>
<!-- Created with Inkscape (http://www.inkscape.org/) -->

<svg
   xmlns:ns0="http://www.iki.fi/pav/software/textext/"
   xmlns:dc="http://purl.org/dc/elements/1.1/"
   xmlns:cc="http://creativecommons.org/ns#"
   xmlns:rdf="http://www.w3.org/1999/02/22-rdf-syntax-ns#"
   xmlns:svg="http://www.w3.org/2000/svg"
   xmlns="http://www.w3.org/2000/svg"
   xmlns:xlink="http://www.w3.org/1999/xlink"
   xmlns:sodipodi="http://sodipodi.sourceforge.net/DTD/sodipodi-0.dtd"
   xmlns:inkscape="http://www.inkscape.org/namespaces/inkscape"
   width="4.4130731in"
   height="2.6915162in"
   viewBox="0 0 397.17657 242.23646"
   id="svg2"
   version="1.1"
   inkscape:version="0.91 r"
   sodipodi:docname="DielectricSubstrateCartoon.svg"
   inkscape:export-filename="/tmp/doom.png"
   inkscape:export-xdpi="200"
   inkscape:export-ydpi="200">
  <sodipodi:namedview
     id="base"
     pagecolor="#ffffff"
     bordercolor="#666666"
     borderopacity="1.0"
     inkscape:pageopacity="0.0"
     inkscape:pageshadow="2"
     inkscape:zoom="3.5649198"
     inkscape:cx="188.36344"
     inkscape:cy="118.13662"
     inkscape:document-units="px"
     inkscape:current-layer="layer1"
     showgrid="true"
     units="in"
     inkscape:window-width="2374"
     inkscape:window-height="1500"
     inkscape:window-x="447"
     inkscape:window-y="86"
     inkscape:window-maximized="0"
     inkscape:snap-global="false"
     fit-margin-top="0"
     fit-margin-left="0"
     fit-margin-right="0"
     fit-margin-bottom="0">
    <inkscape:grid
       spacingy="5"
       spacingx="5"
       id="grid4136"
       type="xygrid"
       originx="-103.4026"
       originy="-685.63218" />
  </sodipodi:namedview>
  <defs
     id="defs4">
    <inkscape:path-effect
       is_visible="true"
       id="path-effect4453"
       effect="spiro" />
    <inkscape:path-effect
       effect="spiro"
       id="path-effect5563"
       is_visible="true" />
    <inkscape:path-effect
       is_visible="true"
       id="path-effect11242"
       effect="spiro" />
    <inkscape:path-effect
       effect="spiro"
       id="path-effect10555"
       is_visible="true" />
    <inkscape:path-effect
       is_visible="true"
       id="path-effect10551"
       effect="spiro" />
    <inkscape:path-effect
       is_visible="true"
       id="path-effect11029"
       effect="spiro" />
    <inkscape:path-effect
       is_visible="true"
       id="path-effect11021"
       effect="spiro" />
    <inkscape:path-effect
       effect="spiro"
       id="path-effect8947"
       is_visible="true" />
    <inkscape:path-effect
       effect="spiro"
       id="path-effect8945"
       is_visible="true" />
    <marker
       inkscape:isstock="true"
       style="overflow:visible"
       id="marker6656"
       refX="0"
       refY="0"
       orient="auto"
       inkscape:stockid="Arrow2Mend">
      <path
         transform="scale(-0.6,-0.6)"
         d="M 8.7185878,4.0337352 -2.2072895,0.01601326 8.7185884,-4.0017078 c -1.7454984,2.3720609 -1.7354408,5.6174519 -6e-7,8.035443 z"
         style="fill:#000000;fill-opacity:1;fill-rule:evenodd;stroke:#000000;stroke-width:0.625;stroke-linejoin:round;stroke-opacity:1"
         id="path6658"
         inkscape:connector-curvature="0" />
    </marker>
    <marker
       inkscape:isstock="true"
       style="overflow:visible"
       id="marker6646"
       refX="0"
       refY="0"
       orient="auto"
       inkscape:stockid="Arrow2Mstart">
      <path
         transform="scale(0.6,0.6)"
         d="M 8.7185878,4.0337352 -2.2072895,0.01601326 8.7185884,-4.0017078 c -1.7454984,2.3720609 -1.7354408,5.6174519 -6e-7,8.035443 z"
         style="fill:#000000;fill-opacity:1;fill-rule:evenodd;stroke:#000000;stroke-width:0.625;stroke-linejoin:round;stroke-opacity:1"
         id="path6648"
         inkscape:connector-curvature="0" />
    </marker>
    <inkscape:path-effect
       effect="spiro"
       id="path-effect6644"
       is_visible="true" />
    <marker
       inkscape:isstock="true"
       style="overflow:visible"
       id="Arrow1Mstart"
       refX="0"
       refY="0"
       orient="auto"
       inkscape:stockid="Arrow1Mstart">
      <path
         transform="matrix(0.4,0,0,0.4,4,0)"
         style="fill:#000000;fill-opacity:1;fill-rule:evenodd;stroke:#000000;stroke-width:1pt;stroke-opacity:1"
         d="M 0,0 5,-5 -12.5,0 5,5 0,0 Z"
         id="path4327"
         inkscape:connector-curvature="0" />
    </marker>
    <inkscape:path-effect
       is_visible="true"
       id="path-effect4315"
       effect="spiro" />
    <inkscape:path-effect
       is_visible="true"
       id="path-effect4311"
       effect="spiro" />
    <inkscape:path-effect
       is_visible="true"
       id="path-effect4140"
       effect="spiro" />
  </defs>
  <metadata
     id="metadata7">
    <rdf:RDF>
      <cc:Work
         rdf:about="">
        <dc:format>image/svg+xml</dc:format>
        <dc:type
           rdf:resource="http://purl.org/dc/dcmitype/StillImage" />
        <dc:title></dc:title>
      </cc:Work>
    </rdf:RDF>
  </metadata>
  <g
     transform="translate(-103.40258,-124.49353)"
     id="layer1"
     inkscape:groupmode="layer"
     inkscape:label="Points"
     style="display:none">
    <circle
       style="opacity:1;fill:#000000;fill-opacity:1;stroke:none;stroke-width:0.69999999;stroke-miterlimit:4;stroke-dasharray:none;stroke-dashoffset:0;stroke-opacity:1"
       id="path4201"
       cx="385"
       cy="157.36221"
       r="2.4179351" />
    <circle
       r="2.4179351"
       cy="142.36221"
       cx="275"
       id="circle4203"
       style="opacity:1;fill:#000000;fill-opacity:1;stroke:none;stroke-width:0.69999999;stroke-miterlimit:4;stroke-dasharray:none;stroke-dashoffset:0;stroke-opacity:1" />
    <g
       id="g8966"
       transform="matrix(2.3914845,0,0,2.3914845,-294.42463,-176.6994)"
       ns0:preamble="/home/homer/misc/physcmds.tex"
       ns0:text="$\\vb x\\subt{D}$">
      <defs
         id="defs8968">
        <g
           id="g8970">
          <symbol
             id="textext-fd006cd4-0"
             overflow="visible"
             style="overflow:visible">
            <path
               id="path8973"
               d=""
               style="stroke:none"
               inkscape:connector-curvature="0" />
          </symbol>
          <symbol
             id="textext-fd006cd4-1"
             overflow="visible"
             style="overflow:visible">
            <path
               id="path8976"
               d="M 3.453125,-2.453125 4.609375,-3.75 C 4.75,-3.890625 4.8125,-3.953125 5.625,-3.953125 l 0,-0.46875 c -0.34375,0.015625 -0.859375,0.03125 -0.90625,0.03125 -0.25,0 -0.75,-0.03125 -1.03125,-0.03125 l 0,0.46875 c 0.140625,0 0.265625,0.015625 0.375,0.078125 -0.03125,0.0625 -0.03125,0.09375 -0.078125,0.125 l -0.828125,0.9375 -0.984375,-1.140625 0.40625,0 0,-0.46875 c -0.265625,0 -0.890625,0.03125 -1.21875,0.03125 -0.3125,0 -0.765625,-0.03125 -1.09375,-0.03125 l 0,0.46875 0.71875,0 1.546875,1.828125 -1.3125,1.46875 c -0.15625,0.1875 -0.515625,0.1875 -1,0.1875 l 0,0.46875 c 0.34375,-0.015625 0.875,-0.03125 0.921875,-0.03125 0.25,0 0.828125,0.015625 1.015625,0.03125 l 0,-0.46875 c -0.171875,0 -0.359375,-0.046875 -0.359375,-0.109375 0,-0.015625 0,-0.015625 0.0625,-0.09375 l 0.96875,-1.09375 1.09375,1.296875 -0.390625,0 0,0.46875 c 0.265625,-0.015625 0.875,-0.03125 1.203125,-0.03125 0.3125,0 0.765625,0.015625 1.09375,0.03125 l 0,-0.46875 -0.703125,0 z m 0,0"
               style="stroke:none"
               inkscape:connector-curvature="0" />
          </symbol>
          <symbol
             id="textext-fd006cd4-2"
             overflow="visible"
             style="overflow:visible">
            <path
               id="path8979"
               d=""
               style="stroke:none"
               inkscape:connector-curvature="0" />
          </symbol>
          <symbol
             id="textext-fd006cd4-3"
             overflow="visible"
             style="overflow:visible">
            <path
               id="path8982"
               d="m 0.984375,-0.4375 c 0,0.125 0,0.1875 -0.1875,0.203125 C 0.6875,-0.21875 0.53125,-0.21875 0.421875,-0.21875 l 0,0.21875 2.1875,0 c 1.0625,0 1.90625,-0.75 1.90625,-1.671875 0,-0.9375 -0.828125,-1.734375 -1.90625,-1.734375 l -2.1875,0 0,0.21875 c 0.125,0 0.265625,0 0.375,0.015625 0.1875,0.015625 0.1875,0.078125 0.1875,0.203125 z m 0.75,0.21875 c -0.25,0 -0.25,-0.03125 -0.25,-0.203125 l 0,-2.5625 c 0,-0.171875 0,-0.203125 0.25,-0.203125 l 0.734375,0 c 0.59375,0 0.953125,0.25 1.078125,0.375 0.1875,0.1875 0.40625,0.484375 0.40625,1.140625 0,0.4375 -0.09375,0.796875 -0.390625,1.078125 -0.15625,0.15625 -0.515625,0.375 -1.09375,0.375 z m 0,0"
               style="stroke:none"
               inkscape:connector-curvature="0" />
          </symbol>
        </g>
      </defs>
      <g
         id="textext-fd006cd4-4">
        <g
           id="g8985"
           style="fill:#000000;fill-opacity:1">
          <use
             id="use8987"
             y="134.765"
             x="223.43201"
             xlink:href="#textext-fd006cd4-1"
             width="100%"
             height="100%" />
        </g>
        <g
           id="g8989"
           style="fill:#000000;fill-opacity:1">
          <use
             id="use8991"
             y="136.259"
             x="229.479"
             xlink:href="#textext-fd006cd4-3"
             width="100%"
             height="100%" />
        </g>
      </g>
    </g>
    <g
       ns0:text="$\\vb x\\subt{S}$"
       ns0:preamble="/home/homer/misc/physcmds.tex"
       transform="matrix(2.3914845,0,0,2.3914845,-134.42463,-156.6994)"
       id="g9455">
      <defs
         id="defs9457">
        <g
           id="g9459">
          <symbol
             style="overflow:visible"
             overflow="visible"
             id="textext-5e206131-0">
            <path
               inkscape:connector-curvature="0"
               style="stroke:none"
               d=""
               id="path9462" />
          </symbol>
          <symbol
             style="overflow:visible"
             overflow="visible"
             id="textext-5e206131-1">
            <path
               inkscape:connector-curvature="0"
               style="stroke:none"
               d="M 3.453125,-2.453125 4.609375,-3.75 C 4.75,-3.890625 4.8125,-3.953125 5.625,-3.953125 l 0,-0.46875 c -0.34375,0.015625 -0.859375,0.03125 -0.90625,0.03125 -0.25,0 -0.75,-0.03125 -1.03125,-0.03125 l 0,0.46875 c 0.140625,0 0.265625,0.015625 0.375,0.078125 -0.03125,0.0625 -0.03125,0.09375 -0.078125,0.125 l -0.828125,0.9375 -0.984375,-1.140625 0.40625,0 0,-0.46875 c -0.265625,0 -0.890625,0.03125 -1.21875,0.03125 -0.3125,0 -0.765625,-0.03125 -1.09375,-0.03125 l 0,0.46875 0.71875,0 1.546875,1.828125 -1.3125,1.46875 c -0.15625,0.1875 -0.515625,0.1875 -1,0.1875 l 0,0.46875 c 0.34375,-0.015625 0.875,-0.03125 0.921875,-0.03125 0.25,0 0.828125,0.015625 1.015625,0.03125 l 0,-0.46875 c -0.171875,0 -0.359375,-0.046875 -0.359375,-0.109375 0,-0.015625 0,-0.015625 0.0625,-0.09375 l 0.96875,-1.09375 1.09375,1.296875 -0.390625,0 0,0.46875 c 0.265625,-0.015625 0.875,-0.03125 1.203125,-0.03125 0.3125,0 0.765625,0.015625 1.09375,0.03125 l 0,-0.46875 -0.703125,0 z m 0,0"
               id="path9465" />
          </symbol>
          <symbol
             style="overflow:visible"
             overflow="visible"
             id="textext-5e206131-2">
            <path
               inkscape:connector-curvature="0"
               style="stroke:none"
               d=""
               id="path9468" />
          </symbol>
          <symbol
             style="overflow:visible"
             overflow="visible"
             id="textext-5e206131-3">
            <path
               inkscape:connector-curvature="0"
               style="stroke:none"
               d="m 3.078125,-3.375 c 0,-0.078125 0,-0.140625 -0.078125,-0.140625 -0.03125,0 -0.0625,0 -0.109375,0.0625 l -0.1875,0.296875 c -0.234375,-0.21875 -0.546875,-0.359375 -1,-0.359375 -0.71875,0 -1.21875,0.4375 -1.21875,0.9375 0,0.28125 0.15625,0.5 0.296875,0.625 0.265625,0.21875 0.515625,0.265625 0.734375,0.3125 0.09375,0.015625 0.75,0.15625 0.796875,0.15625 0.328125,0.078125 0.640625,0.328125 0.640625,0.671875 0,0.34375 -0.359375,0.703125 -0.9375,0.703125 -0.21875,0 -0.640625,-0.03125 -0.953125,-0.234375 -0.234375,-0.15625 -0.359375,-0.375 -0.375,-0.671875 0,-0.078125 0,-0.109375 -0.09375,-0.109375 -0.109375,0 -0.109375,0.03125 -0.109375,0.140625 l 0,0.953125 c 0,0.09375 0,0.140625 0.078125,0.140625 0.046875,0 0.0625,-0.015625 0.09375,-0.0625 0.015625,-0.03125 0.1875,-0.265625 0.1875,-0.28125 0.375,0.28125 0.84375,0.34375 1.171875,0.34375 0.75,0 1.234375,-0.5 1.234375,-1.015625 C 3.25,-1.28125 3.015625,-1.5 2.9375,-1.578125 2.703125,-1.8125 2.421875,-1.859375 2.015625,-1.9375 1.734375,-2 1.453125,-2.046875 1.40625,-2.0625 1.203125,-2.109375 0.78125,-2.28125 0.78125,-2.671875 0.78125,-3 1.15625,-3.3125 1.703125,-3.3125 c 0.890625,0 1.109375,0.59375 1.15625,0.953125 0.015625,0.078125 0.03125,0.09375 0.109375,0.09375 0.109375,0 0.109375,-0.046875 0.109375,-0.140625 z m 0,0"
               id="path9471" />
          </symbol>
        </g>
      </defs>
      <g
         id="textext-5e206131-4">
        <g
           style="fill:#000000;fill-opacity:1"
           id="g9474">
          <use
             height="100%"
             width="100%"
             xlink:href="#textext-5e206131-1"
             x="223.43201"
             y="134.765"
             id="use9476" />
        </g>
        <g
           style="fill:#000000;fill-opacity:1"
           id="g9478">
          <use
             height="100%"
             width="100%"
             xlink:href="#textext-5e206131-3"
             x="229.479"
             y="136.259"
             id="use9480" />
        </g>
      </g>
    </g>
  </g>
  <g
     style="display:inline"
     inkscape:label="Ground plane"
     id="layer3"
     inkscape:groupmode="layer"
     transform="translate(46.247415,-34.479372)" />
  <g
     style="display:inline"
     transform="translate(-103.40258,-124.49353)"
     id="g6421"
     inkscape:groupmode="layer"
     inkscape:label="Dielectric layers">
    <rect
       y="177.3622"
       x="150"
       height="50.000008"
       width="350"
       id="rect6425"
       style="opacity:1;fill:#00ff00;fill-opacity:0.19607843;stroke:none;stroke-width:0.69999999;stroke-miterlimit:4;stroke-dasharray:none;stroke-dashoffset:0;stroke-opacity:1" />
    <g
       ns0:text="$\\epsilon_1$"
       ns0:preamble="/home/homer/misc/physcmds.tex"
       transform="matrix(3.2805,0,0,3.2805,-421.28183,-233.50715)"
       id="g7398">
      <defs
         id="defs7400">
        <g
           id="g7402">
          <symbol
             overflow="visible"
             id="textext-ddbc7512-0"
             style="overflow:visible">
            <path
               style="stroke:none"
               d=""
               id="path7405"
               inkscape:connector-curvature="0" />
          </symbol>
          <symbol
             overflow="visible"
             id="textext-ddbc7512-1"
             style="overflow:visible">
            <path
               style="stroke:none"
               d="m 2.96875,-2.25 c 0.15625,0 0.34375,0 0.34375,-0.171875 0,-0.140625 -0.125,-0.140625 -0.296875,-0.140625 l -1.609375,0 c 0.234375,-0.84375 0.796875,-1.421875 1.703125,-1.421875 l 0.3125,0 c 0.171875,0 0.328125,0 0.328125,-0.171875 0,-0.140625 -0.125,-0.140625 -0.296875,-0.140625 l -0.359375,0 c -1.296875,0 -2.625,1 -2.625,2.515625 0,1.109375 0.75,1.890625 1.796875,1.890625 0.65625,0 1.296875,-0.40625 1.296875,-0.515625 0,-0.015625 0,-0.125 -0.09375,-0.125 -0.015625,0 -0.046875,0 -0.125,0.046875 -0.3125,0.203125 -0.6875,0.375 -1.046875,0.375 -0.578125,0 -1.078125,-0.421875 -1.078125,-1.296875 0,-0.34375 0.078125,-0.734375 0.109375,-0.84375 z m 0,0"
               id="path7408"
               inkscape:connector-curvature="0" />
          </symbol>
          <symbol
             overflow="visible"
             id="textext-ddbc7512-2"
             style="overflow:visible">
            <path
               style="stroke:none"
               d=""
               id="path7411"
               inkscape:connector-curvature="0" />
          </symbol>
          <symbol
             overflow="visible"
             id="textext-ddbc7512-3"
             style="overflow:visible">
            <path
               style="stroke:none"
               d="m 2.328125,-4.4375 c 0,-0.1875 0,-0.1875 -0.203125,-0.1875 -0.453125,0.4375 -1.078125,0.4375 -1.359375,0.4375 l 0,0.25 c 0.15625,0 0.625,0 1,-0.1875 l 0,3.546875 c 0,0.234375 0,0.328125 -0.6875,0.328125 l -0.265625,0 0,0.25 c 0.125,0 0.984375,-0.03125 1.234375,-0.03125 0.21875,0 1.09375,0.03125 1.25,0.03125 l 0,-0.25 -0.265625,0 c -0.703125,0 -0.703125,-0.09375 -0.703125,-0.328125 z m 0,0"
               id="path7414"
               inkscape:connector-curvature="0" />
          </symbol>
        </g>
      </defs>
      <g
         id="textext-ddbc7512-4">
        <g
           style="fill:#000000;fill-opacity:1"
           id="g7417">
          <use
             xlink:href="#textext-ddbc7512-1"
             x="223.43201"
             y="134.765"
             id="use7419"
             width="100%"
             height="100%" />
        </g>
        <g
           style="fill:#000000;fill-opacity:1"
           id="g7421">
          <use
             xlink:href="#textext-ddbc7512-3"
             x="227.476"
             y="136.259"
             id="use7423"
             width="100%"
             height="100%" />
        </g>
      </g>
    </g>
    <rect
       style="opacity:1;fill:#00ffff;fill-opacity:1;stroke:none;stroke-width:0.69999999;stroke-miterlimit:4;stroke-dasharray:none;stroke-dashoffset:0;stroke-opacity:1"
       id="rect5227"
       width="350"
       height="35.160854"
       x="149.4966"
       y="227.3622" />
    <rect
       y="312.36221"
       x="150"
       height="50.000008"
       width="350"
       id="rect5309"
       style="opacity:1;fill:#ff0000;fill-opacity:0.19607843;stroke:none;stroke-width:0.69999999;stroke-miterlimit:4;stroke-dasharray:none;stroke-dashoffset:0;stroke-opacity:1" />
    <g
       ns0:text="$\\epsilon_2$"
       ns0:preamble="/home/homer/misc/physcmds.tex"
       transform="matrix(3.2805,0,0,3.2805,-421.28183,-192.55655)"
       id="g6234">
      <defs
         id="defs6236">
        <g
           id="g6238">
          <symbol
             style="overflow:visible"
             overflow="visible"
             id="textext-02d92908-0">
            <path
               inkscape:connector-curvature="0"
               style="stroke:none"
               d=""
               id="path6241" />
          </symbol>
          <symbol
             style="overflow:visible"
             overflow="visible"
             id="textext-02d92908-1">
            <path
               inkscape:connector-curvature="0"
               style="stroke:none"
               d="m 2.96875,-2.25 c 0.15625,0 0.34375,0 0.34375,-0.171875 0,-0.140625 -0.125,-0.140625 -0.296875,-0.140625 l -1.609375,0 c 0.234375,-0.84375 0.796875,-1.421875 1.703125,-1.421875 l 0.3125,0 c 0.171875,0 0.328125,0 0.328125,-0.171875 0,-0.140625 -0.125,-0.140625 -0.296875,-0.140625 l -0.359375,0 c -1.296875,0 -2.625,1 -2.625,2.515625 0,1.109375 0.75,1.890625 1.796875,1.890625 0.65625,0 1.296875,-0.40625 1.296875,-0.515625 0,-0.015625 0,-0.125 -0.09375,-0.125 -0.015625,0 -0.046875,0 -0.125,0.046875 -0.3125,0.203125 -0.6875,0.375 -1.046875,0.375 -0.578125,0 -1.078125,-0.421875 -1.078125,-1.296875 0,-0.34375 0.078125,-0.734375 0.109375,-0.84375 z m 0,0"
               id="path6244" />
          </symbol>
          <symbol
             style="overflow:visible"
             overflow="visible"
             id="textext-02d92908-2">
            <path
               inkscape:connector-curvature="0"
               style="stroke:none"
               d=""
               id="path6247" />
          </symbol>
          <symbol
             style="overflow:visible"
             overflow="visible"
             id="textext-02d92908-3">
            <path
               inkscape:connector-curvature="0"
               style="stroke:none"
               d="m 3.515625,-1.265625 -0.234375,0 c -0.015625,0.15625 -0.09375,0.5625 -0.1875,0.625 -0.046875,0.046875 -0.578125,0.046875 -0.6875,0.046875 l -1.28125,0 c 0.734375,-0.640625 0.984375,-0.84375 1.390625,-1.171875 0.515625,-0.40625 1,-0.84375 1,-1.5 0,-0.84375 -0.734375,-1.359375 -1.625,-1.359375 -0.859375,0 -1.453125,0.609375 -1.453125,1.25 0,0.34375 0.296875,0.390625 0.375,0.390625 0.15625,0 0.359375,-0.125 0.359375,-0.375 0,-0.125 -0.046875,-0.375 -0.40625,-0.375 C 0.984375,-4.21875 1.453125,-4.375 1.78125,-4.375 c 0.703125,0 1.0625,0.546875 1.0625,1.109375 0,0.609375 -0.4375,1.078125 -0.65625,1.328125 L 0.515625,-0.265625 C 0.4375,-0.203125 0.4375,-0.1875 0.4375,0 l 2.875,0 z m 0,0"
               id="path6250" />
          </symbol>
        </g>
      </defs>
      <g
         id="textext-02d92908-4">
        <g
           style="fill:#000000;fill-opacity:1"
           id="g6253">
          <use
             height="100%"
             width="100%"
             xlink:href="#textext-02d92908-1"
             x="223.43201"
             y="134.765"
             id="use6255" />
        </g>
        <g
           style="fill:#000000;fill-opacity:1"
           id="g6257">
          <use
             height="100%"
             width="100%"
             xlink:href="#textext-02d92908-3"
             x="227.476"
             y="136.259"
             id="use6259" />
        </g>
      </g>
    </g>
    <g
       id="g8031"
       transform="matrix(3.2805,0,0,3.2805,-421.28183,-98.507124)"
       ns0:preamble="/home/homer/misc/physcmds.tex"
       ns0:text="$\\epsilon\\subt{$N$}$">
      <defs
         id="defs8033">
        <g
           id="g8035">
          <symbol
             style="overflow:visible"
             id="textext-a913e9a8-0"
             overflow="visible">
            <path
               inkscape:connector-curvature="0"
               id="path8038"
               d=""
               style="stroke:none" />
          </symbol>
          <symbol
             style="overflow:visible"
             id="textext-a913e9a8-1"
             overflow="visible">
            <path
               inkscape:connector-curvature="0"
               id="path8041"
               d="m 2.96875,-2.25 c 0.15625,0 0.34375,0 0.34375,-0.171875 0,-0.140625 -0.125,-0.140625 -0.296875,-0.140625 l -1.609375,0 c 0.234375,-0.84375 0.796875,-1.421875 1.703125,-1.421875 l 0.3125,0 c 0.171875,0 0.328125,0 0.328125,-0.171875 0,-0.140625 -0.125,-0.140625 -0.296875,-0.140625 l -0.359375,0 c -1.296875,0 -2.625,1 -2.625,2.515625 0,1.109375 0.75,1.890625 1.796875,1.890625 0.65625,0 1.296875,-0.40625 1.296875,-0.515625 0,-0.015625 0,-0.125 -0.09375,-0.125 -0.015625,0 -0.046875,0 -0.125,0.046875 -0.3125,0.203125 -0.6875,0.375 -1.046875,0.375 -0.578125,0 -1.078125,-0.421875 -1.078125,-1.296875 0,-0.34375 0.078125,-0.734375 0.109375,-0.84375 z m 0,0"
               style="stroke:none" />
          </symbol>
          <symbol
             style="overflow:visible"
             id="textext-a913e9a8-2"
             overflow="visible">
            <path
               inkscape:connector-curvature="0"
               id="path8044"
               d=""
               style="stroke:none" />
          </symbol>
          <symbol
             style="overflow:visible"
             id="textext-a913e9a8-3"
             overflow="visible">
            <path
               inkscape:connector-curvature="0"
               id="path8047"
               d="m 4.765625,-2.84375 c 0.03125,-0.125 0.078125,-0.328125 0.53125,-0.34375 0.046875,0 0.125,0 0.125,-0.125 0,-0.03125 -0.015625,-0.09375 -0.078125,-0.09375 -0.09375,0 -0.1875,0.015625 -0.28125,0.015625 -0.09375,0 -0.1875,0 -0.28125,0 -0.09375,0 -0.203125,0 -0.296875,0 -0.09375,0 -0.1875,-0.015625 -0.28125,-0.015625 -0.03125,0 -0.125,0 -0.125,0.140625 0,0.078125 0.078125,0.078125 0.125,0.078125 0.328125,0.015625 0.359375,0.109375 0.359375,0.203125 0,0.03125 -0.015625,0.0625 -0.015625,0.09375 L 4,-0.75 2.5,-3.3125 C 2.453125,-3.40625 2.453125,-3.40625 2.328125,-3.40625 l -0.765625,0 c -0.109375,0 -0.1875,0 -0.1875,0.140625 0,0.078125 0.078125,0.078125 0.1875,0.078125 0.015625,0 0.21875,0 0.34375,0.03125 L 1.25,-0.5625 c -0.03125,0.140625 -0.078125,0.328125 -0.546875,0.34375 -0.03125,0 -0.125,0 -0.125,0.140625 C 0.578125,-0.046875 0.625,0 0.671875,0 0.75,0 0.859375,-0.015625 0.953125,-0.015625 c 0.09375,0 0.1875,0 0.28125,0 0.09375,0 0.203125,0 0.296875,0 C 1.625,-0.015625 1.71875,0 1.8125,0 1.875,0 1.9375,-0.03125 1.9375,-0.140625 1.9375,-0.21875 1.859375,-0.21875 1.796875,-0.21875 1.5625,-0.234375 1.453125,-0.296875 1.453125,-0.40625 c 0,-0.046875 0.015625,-0.078125 0.03125,-0.125 l 0.625,-2.5 1.703125,2.9375 C 3.875,0 3.890625,0 3.953125,0 c 0.09375,0 0.109375,-0.03125 0.125,-0.125 z m 0,0"
               style="stroke:none" />
          </symbol>
        </g>
      </defs>
      <g
         id="textext-a913e9a8-4">
        <g
           id="g8050"
           style="fill:#000000;fill-opacity:1">
          <use
             height="100%"
             width="100%"
             id="use8052"
             y="134.765"
             x="223.43201"
             xlink:href="#textext-a913e9a8-1" />
        </g>
        <g
           id="g8054"
           style="fill:#000000;fill-opacity:1">
          <use
             height="100%"
             width="100%"
             id="use8056"
             y="136.259"
             x="227.476"
             xlink:href="#textext-a913e9a8-3" />
        </g>
      </g>
    </g>
    <g
       id="g5109"
       transform="matrix(3.2805,0,0,3.2805,-579.99295,-293.35485)"
       ns0:preamble="/home/homer/misc/physcmds.tex"
       ns0:text="$\\epsilon\\subt{$A$}$">
      <defs
         id="defs5111">
        <g
           id="g5113">
          <symbol
             id="textext-aa4f573b-0"
             overflow="visible"
             style="overflow:visible">
            <path
               id="path5116"
               d=""
               style="stroke:none"
               inkscape:connector-curvature="0" />
          </symbol>
          <symbol
             id="textext-aa4f573b-1"
             overflow="visible"
             style="overflow:visible">
            <path
               id="path5119"
               d="m 2.96875,-2.25 c 0.15625,0 0.34375,0 0.34375,-0.171875 0,-0.140625 -0.125,-0.140625 -0.296875,-0.140625 l -1.609375,0 c 0.234375,-0.84375 0.796875,-1.421875 1.703125,-1.421875 l 0.3125,0 c 0.171875,0 0.328125,0 0.328125,-0.171875 0,-0.140625 -0.125,-0.140625 -0.296875,-0.140625 l -0.359375,0 c -1.296875,0 -2.625,1 -2.625,2.515625 0,1.109375 0.75,1.890625 1.796875,1.890625 0.65625,0 1.296875,-0.40625 1.296875,-0.515625 0,-0.015625 0,-0.125 -0.09375,-0.125 -0.015625,0 -0.046875,0 -0.125,0.046875 -0.3125,0.203125 -0.6875,0.375 -1.046875,0.375 -0.578125,0 -1.078125,-0.421875 -1.078125,-1.296875 0,-0.34375 0.078125,-0.734375 0.109375,-0.84375 z m 0,0"
               style="stroke:none"
               inkscape:connector-curvature="0" />
          </symbol>
          <symbol
             id="textext-aa4f573b-2"
             overflow="visible"
             style="overflow:visible">
            <path
               id="path5122"
               d=""
               style="stroke:none"
               inkscape:connector-curvature="0" />
          </symbol>
          <symbol
             id="textext-aa4f573b-3"
             overflow="visible"
             style="overflow:visible">
            <path
               id="path5125"
               d="m 3.625,-3.4375 c -0.015625,-0.09375 -0.046875,-0.125 -0.15625,-0.125 -0.109375,0 -0.140625,0.03125 -0.1875,0.109375 L 1.328125,-0.625 c -0.21875,0.3125 -0.390625,0.390625 -0.71875,0.40625 -0.09375,0 -0.09375,0.125 -0.09375,0.140625 C 0.515625,-0.015625 0.578125,0 0.59375,0 0.671875,0 0.75,-0.015625 0.828125,-0.015625 c 0.078125,0 0.15625,0 0.25,0 0.09375,0 0.1875,0 0.265625,0 C 1.4375,-0.015625 1.546875,0 1.640625,0 1.671875,0 1.75,0 1.75,-0.140625 1.75,-0.21875 1.6875,-0.21875 1.65625,-0.21875 c -0.03125,0 -0.234375,-0.015625 -0.234375,-0.140625 0,-0.046875 0.0625,-0.140625 0.09375,-0.1875 l 0.375,-0.53125 c 0.015625,-0.03125 0.015625,-0.03125 0.125,-0.03125 l 1.5,0 C 3.53125,-1.0625 3.53125,-1.03125 3.546875,-0.96875 3.5625,-0.875 3.65625,-0.390625 3.65625,-0.328125 c 0,0.109375 -0.3125,0.109375 -0.328125,0.109375 -0.078125,0 -0.15625,0 -0.15625,0.140625 C 3.171875,-0.03125 3.203125,0 3.265625,0 c 0.09375,0 0.21875,-0.015625 0.328125,-0.015625 0.125,0 0.234375,0 0.359375,0 0.09375,0 0.203125,0 0.3125,0 0.09375,0 0.21875,0.015625 0.3125,0.015625 0.09375,0 0.125,-0.0625 0.125,-0.140625 0,-0.078125 -0.078125,-0.078125 -0.15625,-0.078125 -0.328125,0 -0.328125,-0.046875 -0.34375,-0.15625 z m -0.453125,0.484375 0.3125,1.609375 -1.421875,0 z m 0,0"
               style="stroke:none"
               inkscape:connector-curvature="0" />
          </symbol>
        </g>
      </defs>
      <g
         id="textext-aa4f573b-4">
        <g
           id="g5128"
           style="fill:#000000;fill-opacity:1">
          <use
             id="use5130"
             y="134.765"
             x="223.43201"
             xlink:href="#textext-aa4f573b-1"
             width="100%"
             height="100%" />
        </g>
        <g
           id="g5132"
           style="fill:#000000;fill-opacity:1">
          <use
             id="use5134"
             y="136.259"
             x="227.476"
             xlink:href="#textext-aa4f573b-3"
             width="100%"
             height="100%" />
        </g>
      </g>
    </g>
    <path
       style="fill:none;fill-rule:evenodd;stroke:#0000ff;stroke-width:4;stroke-linecap:butt;stroke-linejoin:miter;stroke-miterlimit:4;stroke-dasharray:none;stroke-opacity:1"
       d="m 500.57914,363.11658 -350.08434,0"
       id="path5561"
       inkscape:path-effect="#path-effect5563"
       inkscape:original-d="m 500.57914,363.11658 c -350.08434,0 -350.08434,0 -350.08434,0"
       inkscape:connector-curvature="0" />
    <path
       inkscape:connector-curvature="0"
       inkscape:original-d="m 431.71439,361.68078 c 24.40448,-21.87987 24.40448,-21.87987 24.40448,-21.87987"
       inkscape:path-effect="#path-effect4453"
       id="path4451"
       d="m 431.71439,361.68078 24.40448,-21.87987"
       style="fill:#0000ff;fill-rule:evenodd;stroke:#0000ff;stroke-width:1px;stroke-linecap:butt;stroke-linejoin:miter;stroke-opacity:1" />
    <g
       id="g4603"
       ns0:preamble="/home/homer/misc/physcmds.tex"
       ns0:text="$\\phi=0$"
       transform="matrix(1.7433922,0,0,1.7433923,49.045819,102.47481)"
       style="fill:#0000ff">
      <defs
         id="defs4605">
        <g
           id="g4607">
          <symbol
             id="textext-4d9d7c61-0"
             overflow="visible"
             style="overflow:visible">
            <path
               id="path4610"
               d=""
               style="stroke:none"
               inkscape:connector-curvature="0" />
          </symbol>
          <symbol
             id="textext-4d9d7c61-1"
             overflow="visible"
             style="overflow:visible">
            <path
               id="path4613"
               d="m 4.359375,-6.671875 c 0,-0.03125 0.03125,-0.140625 0.03125,-0.140625 0,-0.015625 0,-0.109375 -0.125,-0.109375 -0.09375,0 -0.109375,0.03125 -0.15625,0.203125 L 3.53125,-4.421875 c -1.578125,0.0625 -3.046875,1.375 -3.046875,2.734375 0,0.953125 0.703125,1.734375 1.921875,1.8125 C 2.328125,0.421875 2.25,0.75 2.171875,1.0625 c -0.125,0.46875 -0.21875,0.84375 -0.21875,0.875 0,0.09375 0.078125,0.109375 0.125,0.109375 C 2.125,2.046875 2.140625,2.03125 2.171875,2 2.1875,1.984375 2.25,1.75 2.28125,1.609375 L 2.65625,0.125 c 1.609375,-0.0625 3.0625,-1.40625 3.0625,-2.734375 0,-0.796875 -0.53125,-1.703125 -1.921875,-1.8125 z m -1.90625,6.578125 c -0.59375,-0.03125 -1.3125,-0.390625 -1.3125,-1.375 0,-1.203125 0.859375,-2.59375 2.34375,-2.734375 z m 1.28125,-4.109375 c 0.765625,0.046875 1.328125,0.5 1.328125,1.375 0,1.1875 -0.859375,2.609375 -2.34375,2.734375 z m 0,0"
               style="stroke:none"
               inkscape:connector-curvature="0" />
          </symbol>
          <symbol
             id="textext-4d9d7c61-2"
             overflow="visible"
             style="overflow:visible">
            <path
               id="path4616"
               d=""
               style="stroke:none"
               inkscape:connector-curvature="0" />
          </symbol>
          <symbol
             id="textext-4d9d7c61-3"
             overflow="visible"
             style="overflow:visible">
            <path
               id="path4619"
               d="m 6.84375,-3.265625 c 0.15625,0 0.34375,0 0.34375,-0.1875 C 7.1875,-3.65625 7,-3.65625 6.859375,-3.65625 l -5.96875,0 c -0.140625,0 -0.328125,0 -0.328125,0.203125 0,0.1875 0.1875,0.1875 0.328125,0.1875 z m 0.015625,1.9375 c 0.140625,0 0.328125,0 0.328125,-0.203125 0,-0.1875 -0.1875,-0.1875 -0.34375,-0.1875 l -5.953125,0 c -0.140625,0 -0.328125,0 -0.328125,0.1875 0,0.203125 0.1875,0.203125 0.328125,0.203125 z m 0,0"
               style="stroke:none"
               inkscape:connector-curvature="0" />
          </symbol>
          <symbol
             id="textext-4d9d7c61-4"
             overflow="visible"
             style="overflow:visible">
            <path
               id="path4622"
               d="m 4.578125,-3.1875 c 0,-0.796875 -0.046875,-1.59375 -0.390625,-2.328125 -0.453125,-0.96875 -1.28125,-1.125 -1.6875,-1.125 -0.609375,0 -1.328125,0.265625 -1.75,1.1875 -0.3125,0.6875 -0.359375,1.46875 -0.359375,2.265625 0,0.75 0.03125,1.640625 0.453125,2.40625 0.421875,0.796875 1.15625,1 1.640625,1 0.53125,0 1.296875,-0.203125 1.734375,-1.15625 0.3125,-0.6875 0.359375,-1.46875 0.359375,-2.25 z M 2.484375,0 C 2.09375,0 1.5,-0.25 1.328125,-1.203125 1.21875,-1.796875 1.21875,-2.71875 1.21875,-3.3125 c 0,-0.640625 0,-1.296875 0.078125,-1.828125 0.1875,-1.1875 0.9375,-1.28125 1.1875,-1.28125 0.328125,0 0.984375,0.1875 1.171875,1.171875 0.109375,0.5625 0.109375,1.3125 0.109375,1.9375 0,0.75 0,1.421875 -0.109375,2.0625 C 3.5,-0.296875 2.9375,0 2.484375,0 Z m 0,0"
               style="stroke:none"
               inkscape:connector-curvature="0" />
          </symbol>
        </g>
      </defs>
      <g
         id="textext-4d9d7c61-5"
         style="fill:#0000ff">
        <g
           id="g4625"
           style="fill:#0000ff;fill-opacity:1">
          <use
             id="use4627"
             y="134.765"
             x="223.43201"
             xlink:href="#textext-4d9d7c61-1"
             width="100%"
             height="100%"
             style="fill:#0000ff" />
        </g>
        <g
           id="g4629"
           style="fill:#0000ff;fill-opacity:1">
          <use
             id="use4631"
             y="134.765"
             x="232.136"
             xlink:href="#textext-4d9d7c61-3"
             width="100%"
             height="100%"
             style="fill:#0000ff" />
        </g>
        <g
           id="g4633"
           style="fill:#0000ff;fill-opacity:1">
          <use
             id="use4635"
             y="134.765"
             x="242.65451"
             xlink:href="#textext-4d9d7c61-4"
             width="100%"
             height="100%"
             style="fill:#0000ff" />
        </g>
      </g>
    </g>
    <rect
       style="opacity:1;fill:#1a1a1a;fill-opacity:0;stroke:#000000;stroke-width:1.00000012;stroke-miterlimit:4;stroke-dasharray:none;stroke-dashoffset:0;stroke-opacity:1"
       id="rect5139"
       width="35.344421"
       height="29.453657"
       x="150.41986"
       y="129.4175" />
  </g>
  <g
     inkscape:label="Sigma layers"
     inkscape:groupmode="layer"
     id="g10445"
     transform="translate(-103.40258,-124.49353)"
     style="display:none">
    <path
       inkscape:connector-curvature="0"
       inkscape:original-d="m 149.74242,177.20523 c 350.41252,0 350.15218,0.52068 350.15218,0.52068"
       inkscape:path-effect="#path-effect10551"
       id="path10549"
       d="m 149.74242,177.20523 350.15218,0.52068"
       style="fill:#00ff00;fill-opacity:0.19607843;fill-rule:evenodd;stroke:#00ff00;stroke-width:4;stroke-linecap:butt;stroke-linejoin:miter;stroke-miterlimit:4;stroke-dasharray:none;stroke-opacity:0.19607843" />
    <path
       style="fill:#ff0000;fill-opacity:0.19607843;fill-rule:evenodd;stroke:#ff0000;stroke-width:4;stroke-linecap:butt;stroke-linejoin:miter;stroke-miterlimit:4;stroke-dasharray:none;stroke-opacity:0.19607843"
       d="m 149.74242,312.20523 350.15218,0.52068"
       id="path10553"
       inkscape:path-effect="#path-effect10555"
       inkscape:original-d="m 149.74242,312.20523 c 350.41252,0 350.15218,0.52068 350.15218,0.52068"
       inkscape:connector-curvature="0" />
    <g
       id="g10726"
       transform="matrix(3.2805,0,0,3.2805,-571.28183,-273.50715)"
       ns0:preamble="/home/homer/misc/physcmds.tex"
       ns0:text="$\\sigma_1$"
       style="fill:#00ff00;fill-opacity:0.19607843">
      <defs
         id="defs10728">
        <g
           id="g10730">
          <symbol
             id="textext-64f6aa1c-0"
             overflow="visible"
             style="overflow:visible">
            <path
               id="path10733"
               d=""
               style="stroke:none"
               inkscape:connector-curvature="0" />
          </symbol>
          <symbol
             id="textext-64f6aa1c-1"
             overflow="visible"
             style="overflow:visible">
            <path
               id="path10736"
               d="m 5.15625,-3.71875 c 0.140625,0 0.5,0 0.5,-0.34375 0,-0.234375 -0.21875,-0.234375 -0.390625,-0.234375 l -2.28125,0 c -1.5,0 -2.609375,1.640625 -2.609375,2.828125 0,0.875 0.59375,1.578125 1.5,1.578125 1.171875,0 2.5,-1.203125 2.5,-2.734375 0,-0.171875 0,-0.65625 -0.3125,-1.09375 z M 1.890625,-0.109375 C 1.390625,-0.109375 1,-0.46875 1,-1.1875 c 0,-0.296875 0.109375,-1.109375 0.46875,-1.703125 0.421875,-0.6875 1.015625,-0.828125 1.359375,-0.828125 0.828125,0 0.90625,0.65625 0.90625,0.96875 0,0.46875 -0.203125,1.28125 -0.53125,1.796875 -0.390625,0.578125 -0.9375,0.84375 -1.3125,0.84375 z m 0,0"
               style="stroke:none"
               inkscape:connector-curvature="0" />
          </symbol>
          <symbol
             id="textext-64f6aa1c-2"
             overflow="visible"
             style="overflow:visible">
            <path
               id="path10739"
               d=""
               style="stroke:none"
               inkscape:connector-curvature="0" />
          </symbol>
          <symbol
             id="textext-64f6aa1c-3"
             overflow="visible"
             style="overflow:visible">
            <path
               id="path10742"
               d="m 2.328125,-4.4375 c 0,-0.1875 0,-0.1875 -0.203125,-0.1875 -0.453125,0.4375 -1.078125,0.4375 -1.359375,0.4375 l 0,0.25 c 0.15625,0 0.625,0 1,-0.1875 l 0,3.546875 c 0,0.234375 0,0.328125 -0.6875,0.328125 l -0.265625,0 0,0.25 c 0.125,0 0.984375,-0.03125 1.234375,-0.03125 0.21875,0 1.09375,0.03125 1.25,0.03125 l 0,-0.25 -0.265625,0 c -0.703125,0 -0.703125,-0.09375 -0.703125,-0.328125 z m 0,0"
               style="stroke:none"
               inkscape:connector-curvature="0" />
          </symbol>
        </g>
      </defs>
      <g
         id="textext-64f6aa1c-4"
         style="fill:#00ff00;fill-opacity:0.19607843">
        <g
           id="g10745"
           style="fill:#00ff00;fill-opacity:0.19607843">
          <use
             id="use10747"
             y="134.765"
             x="223.43201"
             xlink:href="#textext-64f6aa1c-1"
             width="100%"
             height="100%"
             style="fill:#00ff00;fill-opacity:0.19607843" />
        </g>
        <g
           id="g10749"
           style="fill:#00ff00;fill-opacity:0.19607843">
          <use
             id="use10751"
             y="136.259"
             x="229.125"
             xlink:href="#textext-64f6aa1c-3"
             width="100%"
             height="100%"
             style="fill:#00ff00;fill-opacity:0.19607843" />
        </g>
      </g>
    </g>
    <path
       inkscape:connector-curvature="0"
       inkscape:original-d="m 149.74242,227.20523 c 350.41252,0 350.15218,0.52068 350.15218,0.52068"
       inkscape:path-effect="#path-effect11242"
       id="path11240"
       d="m 149.74242,227.20523 350.15218,0.52068"
       style="fill:#00ffff;fill-opacity:1;fill-rule:evenodd;stroke:#00ffff;stroke-width:4;stroke-linecap:butt;stroke-linejoin:miter;stroke-miterlimit:4;stroke-dasharray:none;stroke-opacity:1" />
    <g
       ns0:text="$\\sigma\\subt{$N$}$"
       ns0:preamble="/home/homer/misc/physcmds.tex"
       transform="matrix(3.2805,0,0,3.2805,-571.28183,-138.50715)"
       id="g11425"
       style="fill:#ff0000;fill-opacity:0.19607843">
      <defs
         id="defs11427">
        <g
           id="g11429">
          <symbol
             overflow="visible"
             id="textext-44a9a892-0"
             style="overflow:visible">
            <path
               style="stroke:none"
               d=""
               id="path11432"
               inkscape:connector-curvature="0" />
          </symbol>
          <symbol
             overflow="visible"
             id="textext-44a9a892-1"
             style="overflow:visible">
            <path
               style="stroke:none"
               d="m 5.15625,-3.71875 c 0.140625,0 0.5,0 0.5,-0.34375 0,-0.234375 -0.21875,-0.234375 -0.390625,-0.234375 l -2.28125,0 c -1.5,0 -2.609375,1.640625 -2.609375,2.828125 0,0.875 0.59375,1.578125 1.5,1.578125 1.171875,0 2.5,-1.203125 2.5,-2.734375 0,-0.171875 0,-0.65625 -0.3125,-1.09375 z M 1.890625,-0.109375 C 1.390625,-0.109375 1,-0.46875 1,-1.1875 c 0,-0.296875 0.109375,-1.109375 0.46875,-1.703125 0.421875,-0.6875 1.015625,-0.828125 1.359375,-0.828125 0.828125,0 0.90625,0.65625 0.90625,0.96875 0,0.46875 -0.203125,1.28125 -0.53125,1.796875 -0.390625,0.578125 -0.9375,0.84375 -1.3125,0.84375 z m 0,0"
               id="path11435"
               inkscape:connector-curvature="0" />
          </symbol>
          <symbol
             overflow="visible"
             id="textext-44a9a892-2"
             style="overflow:visible">
            <path
               style="stroke:none"
               d=""
               id="path11438"
               inkscape:connector-curvature="0" />
          </symbol>
          <symbol
             overflow="visible"
             id="textext-44a9a892-3"
             style="overflow:visible">
            <path
               style="stroke:none"
               d="m 4.765625,-2.84375 c 0.03125,-0.125 0.078125,-0.328125 0.53125,-0.34375 0.046875,0 0.125,0 0.125,-0.125 0,-0.03125 -0.015625,-0.09375 -0.078125,-0.09375 -0.09375,0 -0.1875,0.015625 -0.28125,0.015625 -0.09375,0 -0.1875,0 -0.28125,0 -0.09375,0 -0.203125,0 -0.296875,0 -0.09375,0 -0.1875,-0.015625 -0.28125,-0.015625 -0.03125,0 -0.125,0 -0.125,0.140625 0,0.078125 0.078125,0.078125 0.125,0.078125 0.328125,0.015625 0.359375,0.109375 0.359375,0.203125 0,0.03125 -0.015625,0.0625 -0.015625,0.09375 L 4,-0.75 2.5,-3.3125 C 2.453125,-3.40625 2.453125,-3.40625 2.328125,-3.40625 l -0.765625,0 c -0.109375,0 -0.1875,0 -0.1875,0.140625 0,0.078125 0.078125,0.078125 0.1875,0.078125 0.015625,0 0.21875,0 0.34375,0.03125 L 1.25,-0.5625 c -0.03125,0.140625 -0.078125,0.328125 -0.546875,0.34375 -0.03125,0 -0.125,0 -0.125,0.140625 C 0.578125,-0.046875 0.625,0 0.671875,0 0.75,0 0.859375,-0.015625 0.953125,-0.015625 c 0.09375,0 0.1875,0 0.28125,0 0.09375,0 0.203125,0 0.296875,0 C 1.625,-0.015625 1.71875,0 1.8125,0 1.875,0 1.9375,-0.03125 1.9375,-0.140625 1.9375,-0.21875 1.859375,-0.21875 1.796875,-0.21875 1.5625,-0.234375 1.453125,-0.296875 1.453125,-0.40625 c 0,-0.046875 0.015625,-0.078125 0.03125,-0.125 l 0.625,-2.5 1.703125,2.9375 C 3.875,0 3.890625,0 3.953125,0 c 0.09375,0 0.109375,-0.03125 0.125,-0.125 z m 0,0"
               id="path11441"
               inkscape:connector-curvature="0" />
          </symbol>
        </g>
      </defs>
      <g
         id="textext-44a9a892-4"
         style="fill:#ff0000;fill-opacity:0.19607843">
        <g
           style="fill:#ff0000;fill-opacity:0.19607843"
           id="g11444">
          <use
             xlink:href="#textext-44a9a892-1"
             x="223.43201"
             y="134.765"
             id="use11446"
             style="fill:#ff0000;fill-opacity:0.19607843"
             width="100%"
             height="100%" />
        </g>
        <g
           style="fill:#ff0000;fill-opacity:0.19607843"
           id="g11448">
          <use
             xlink:href="#textext-44a9a892-3"
             x="229.125"
             y="136.259"
             id="use11450"
             style="fill:#ff0000;fill-opacity:0.19607843"
             width="100%"
             height="100%" />
        </g>
      </g>
    </g>
    <g
       id="g11960"
       transform="matrix(3.2805,0,0,3.2805,-571.28183,-223.50715)"
       ns0:preamble="/home/homer/misc/physcmds.tex"
       ns0:text="$\\sigma_2$"
       style="fill:#00ffff;fill-opacity:1">
      <defs
         id="defs11962">
        <g
           id="g11964">
          <symbol
             id="textext-2e0821a7-0"
             overflow="visible"
             style="overflow:visible">
            <path
               id="path11967"
               d=""
               style="stroke:none"
               inkscape:connector-curvature="0" />
          </symbol>
          <symbol
             id="textext-2e0821a7-1"
             overflow="visible"
             style="overflow:visible">
            <path
               id="path11970"
               d="m 5.15625,-3.71875 c 0.140625,0 0.5,0 0.5,-0.34375 0,-0.234375 -0.21875,-0.234375 -0.390625,-0.234375 l -2.28125,0 c -1.5,0 -2.609375,1.640625 -2.609375,2.828125 0,0.875 0.59375,1.578125 1.5,1.578125 1.171875,0 2.5,-1.203125 2.5,-2.734375 0,-0.171875 0,-0.65625 -0.3125,-1.09375 z M 1.890625,-0.109375 C 1.390625,-0.109375 1,-0.46875 1,-1.1875 c 0,-0.296875 0.109375,-1.109375 0.46875,-1.703125 0.421875,-0.6875 1.015625,-0.828125 1.359375,-0.828125 0.828125,0 0.90625,0.65625 0.90625,0.96875 0,0.46875 -0.203125,1.28125 -0.53125,1.796875 -0.390625,0.578125 -0.9375,0.84375 -1.3125,0.84375 z m 0,0"
               style="stroke:none"
               inkscape:connector-curvature="0" />
          </symbol>
          <symbol
             id="textext-2e0821a7-2"
             overflow="visible"
             style="overflow:visible">
            <path
               id="path11973"
               d=""
               style="stroke:none"
               inkscape:connector-curvature="0" />
          </symbol>
          <symbol
             id="textext-2e0821a7-3"
             overflow="visible"
             style="overflow:visible">
            <path
               id="path11976"
               d="m 3.515625,-1.265625 -0.234375,0 c -0.015625,0.15625 -0.09375,0.5625 -0.1875,0.625 -0.046875,0.046875 -0.578125,0.046875 -0.6875,0.046875 l -1.28125,0 c 0.734375,-0.640625 0.984375,-0.84375 1.390625,-1.171875 0.515625,-0.40625 1,-0.84375 1,-1.5 0,-0.84375 -0.734375,-1.359375 -1.625,-1.359375 -0.859375,0 -1.453125,0.609375 -1.453125,1.25 0,0.34375 0.296875,0.390625 0.375,0.390625 0.15625,0 0.359375,-0.125 0.359375,-0.375 0,-0.125 -0.046875,-0.375 -0.40625,-0.375 C 0.984375,-4.21875 1.453125,-4.375 1.78125,-4.375 c 0.703125,0 1.0625,0.546875 1.0625,1.109375 0,0.609375 -0.4375,1.078125 -0.65625,1.328125 L 0.515625,-0.265625 C 0.4375,-0.203125 0.4375,-0.1875 0.4375,0 l 2.875,0 z m 0,0"
               style="stroke:none"
               inkscape:connector-curvature="0" />
          </symbol>
        </g>
      </defs>
      <g
         id="textext-2e0821a7-4"
         style="fill:#00ffff;fill-opacity:1">
        <g
           id="g11979"
           style="fill:#00ffff;fill-opacity:1">
          <use
             id="use11981"
             y="134.765"
             x="223.43201"
             xlink:href="#textext-2e0821a7-1"
             style="fill:#00ffff;fill-opacity:1"
             width="100%"
             height="100%" />
        </g>
        <g
           id="g11983"
           style="fill:#00ffff;fill-opacity:1">
          <use
             id="use11985"
             y="136.259"
             x="229.125"
             xlink:href="#textext-2e0821a7-3"
             style="fill:#00ffff;fill-opacity:1"
             width="100%"
             height="100%" />
        </g>
      </g>
    </g>
  </g>
  <g
     style="display:inline"
     inkscape:label="Ellipses"
     inkscape:groupmode="layer"
     id="g10351"
     transform="translate(-103.40258,-124.49353)">
    <circle
       r="2.4179351"
       cy="277.36221"
       cx="325"
       id="circle10357"
       style="opacity:1;fill:#000000;fill-opacity:1;stroke:none;stroke-width:0.69999999;stroke-miterlimit:4;stroke-dasharray:none;stroke-dashoffset:0;stroke-opacity:1" />
    <circle
       style="opacity:1;fill:#000000;fill-opacity:1;stroke:none;stroke-width:0.69999999;stroke-miterlimit:4;stroke-dasharray:none;stroke-dashoffset:0;stroke-opacity:1"
       id="circle10359"
       cx="325"
       cy="287.36221"
       r="2.4179351" />
    <circle
       r="2.4179351"
       cy="297.36221"
       cx="325"
       id="circle10361"
       style="opacity:1;fill:#000000;fill-opacity:1;stroke:none;stroke-width:0.69999999;stroke-miterlimit:4;stroke-dasharray:none;stroke-dashoffset:0;stroke-opacity:1" />
    <circle
       style="opacity:1;fill:#000000;fill-opacity:1;stroke:none;stroke-width:0.69999999;stroke-miterlimit:4;stroke-dasharray:none;stroke-dashoffset:0;stroke-opacity:1"
       id="circle10363"
       cx="325"
       cy="297.36221"
       r="2.4179351" />
    <circle
       style="opacity:1;fill:#000000;fill-opacity:1;stroke:none;stroke-width:0.69999999;stroke-miterlimit:4;stroke-dasharray:none;stroke-dashoffset:0;stroke-opacity:1"
       id="circle10365"
       cx="225"
       cy="277.36221"
       r="2.4179351" />
    <circle
       r="2.4179351"
       cy="287.36221"
       cx="225"
       id="circle10367"
       style="opacity:1;fill:#000000;fill-opacity:1;stroke:none;stroke-width:0.69999999;stroke-miterlimit:4;stroke-dasharray:none;stroke-dashoffset:0;stroke-opacity:1" />
    <circle
       style="opacity:1;fill:#000000;fill-opacity:1;stroke:none;stroke-width:0.69999999;stroke-miterlimit:4;stroke-dasharray:none;stroke-dashoffset:0;stroke-opacity:1"
       id="circle10369"
       cx="225"
       cy="297.36221"
       r="2.4179351" />
    <circle
       r="2.4179351"
       cy="297.36221"
       cx="225"
       id="circle10371"
       style="opacity:1;fill:#000000;fill-opacity:1;stroke:none;stroke-width:0.69999999;stroke-miterlimit:4;stroke-dasharray:none;stroke-dashoffset:0;stroke-opacity:1" />
    <circle
       r="2.4179351"
       cy="277.36221"
       cx="425"
       id="circle10373"
       style="opacity:1;fill:#000000;fill-opacity:1;stroke:none;stroke-width:0.69999999;stroke-miterlimit:4;stroke-dasharray:none;stroke-dashoffset:0;stroke-opacity:1" />
    <circle
       style="opacity:1;fill:#000000;fill-opacity:1;stroke:none;stroke-width:0.69999999;stroke-miterlimit:4;stroke-dasharray:none;stroke-dashoffset:0;stroke-opacity:1"
       id="circle10375"
       cx="425"
       cy="287.36221"
       r="2.4179351" />
    <circle
       r="2.4179351"
       cy="297.36221"
       cx="425"
       id="circle10377"
       style="opacity:1;fill:#000000;fill-opacity:1;stroke:none;stroke-width:0.69999999;stroke-miterlimit:4;stroke-dasharray:none;stroke-dashoffset:0;stroke-opacity:1" />
    <circle
       style="opacity:1;fill:#000000;fill-opacity:1;stroke:none;stroke-width:0.69999999;stroke-miterlimit:4;stroke-dasharray:none;stroke-dashoffset:0;stroke-opacity:1"
       id="circle10379"
       cx="425"
       cy="297.36221"
       r="2.4179351" />
  </g>
  <g
     inkscape:label="Z labels"
     inkscape:groupmode="layer"
     id="g9913"
     transform="translate(-103.40258,-124.49353)"
     style="display:inline">
    <g
       id="g9949"
       style="display:inline"
       transform="matrix(1.4121478,0,0,1.4121477,-207.7122,-10.842299)"
       ns0:preamble="/home/homer/misc/physcmds.tex"
       ns0:text="$z=z_1$">
      <defs
         id="defs9951">
        <g
           id="g9953">
          <symbol
             id="symbol9955"
             overflow="visible"
             style="overflow:visible">
            <path
               id="path9957"
               d=""
               style="stroke:none"
               inkscape:connector-curvature="0" />
          </symbol>
          <symbol
             id="symbol9959"
             overflow="visible"
             style="overflow:visible">
            <path
               id="path9961"
               d="m 1.328125,-0.828125 c 0.53125,-0.578125 0.828125,-0.828125 1.1875,-1.140625 0,0 0.609375,-0.53125 0.96875,-0.890625 C 4.4375,-3.78125 4.65625,-4.265625 4.65625,-4.3125 c 0,-0.09375 -0.09375,-0.09375 -0.109375,-0.09375 -0.078125,0 -0.09375,0.015625 -0.15625,0.109375 -0.296875,0.484375 -0.5,0.640625 -0.734375,0.640625 -0.25,0 -0.359375,-0.15625 -0.515625,-0.328125 -0.1875,-0.21875 -0.359375,-0.421875 -0.6875,-0.421875 -0.75,0 -1.203125,0.921875 -1.203125,1.140625 0,0.046875 0.03125,0.109375 0.109375,0.109375 0.09375,0 0.109375,-0.046875 0.140625,-0.109375 0.1875,-0.46875 0.765625,-0.46875 0.84375,-0.46875 0.203125,0 0.390625,0.0625 0.625,0.140625 0.40625,0.15625 0.515625,0.15625 0.765625,0.15625 -0.359375,0.421875 -1.1875,1.140625 -1.375,1.296875 l -0.90625,0.84375 C 0.78125,-0.625 0.421875,-0.0625 0.421875,0.015625 c 0,0.09375 0.109375,0.09375 0.125,0.09375 0.078125,0 0.09375,-0.015625 0.15625,-0.125 0.234375,-0.359375 0.53125,-0.625 0.859375,-0.625 0.21875,0 0.328125,0.09375 0.578125,0.375 0.15625,0.21875 0.34375,0.375 0.625,0.375 1,0 1.578125,-1.265625 1.578125,-1.53125 0,-0.046875 -0.046875,-0.109375 -0.125,-0.109375 -0.09375,0 -0.109375,0.0625 -0.140625,0.140625 C 3.84375,-0.75 3.203125,-0.5625 2.875,-0.5625 c -0.1875,0 -0.375,-0.0625 -0.578125,-0.125 -0.34375,-0.125 -0.5,-0.171875 -0.703125,-0.171875 -0.015625,0 -0.171875,0 -0.265625,0.03125 z m 0,0"
               style="stroke:none"
               inkscape:connector-curvature="0" />
          </symbol>
          <symbol
             id="symbol9963"
             overflow="visible"
             style="overflow:visible">
            <path
               id="path9965"
               d=""
               style="stroke:none"
               inkscape:connector-curvature="0" />
          </symbol>
          <symbol
             id="symbol9967"
             overflow="visible"
             style="overflow:visible">
            <path
               id="path9969"
               d="m 6.84375,-3.265625 c 0.15625,0 0.34375,0 0.34375,-0.1875 C 7.1875,-3.65625 7,-3.65625 6.859375,-3.65625 l -5.96875,0 c -0.140625,0 -0.328125,0 -0.328125,0.203125 0,0.1875 0.1875,0.1875 0.328125,0.1875 z m 0.015625,1.9375 c 0.140625,0 0.328125,0 0.328125,-0.203125 0,-0.1875 -0.1875,-0.1875 -0.34375,-0.1875 l -5.953125,0 c -0.140625,0 -0.328125,0 -0.328125,0.1875 0,0.203125 0.1875,0.203125 0.328125,0.203125 z m 0,0"
               style="stroke:none"
               inkscape:connector-curvature="0" />
          </symbol>
          <symbol
             id="symbol9971"
             overflow="visible"
             style="overflow:visible">
            <path
               id="path9973"
               d=""
               style="stroke:none"
               inkscape:connector-curvature="0" />
          </symbol>
          <symbol
             id="symbol9975"
             overflow="visible"
             style="overflow:visible">
            <path
               id="path9977"
               d="m 2.328125,-4.4375 c 0,-0.1875 0,-0.1875 -0.203125,-0.1875 -0.453125,0.4375 -1.078125,0.4375 -1.359375,0.4375 l 0,0.25 c 0.15625,0 0.625,0 1,-0.1875 l 0,3.546875 c 0,0.234375 0,0.328125 -0.6875,0.328125 l -0.265625,0 0,0.25 c 0.125,0 0.984375,-0.03125 1.234375,-0.03125 0.21875,0 1.09375,0.03125 1.25,0.03125 l 0,-0.25 -0.265625,0 c -0.703125,0 -0.703125,-0.09375 -0.703125,-0.328125 z m 0,0"
               style="stroke:none"
               inkscape:connector-curvature="0" />
          </symbol>
        </g>
      </defs>
      <g
         id="g9979">
        <g
           id="g9981"
           style="fill:#000000;fill-opacity:1">
          <g
             transform="translate(223.43201,134.765)"
             id="use9983">
            <path
               id="path10329"
               d="m 1.328125,-0.828125 c 0.53125,-0.578125 0.828125,-0.828125 1.1875,-1.140625 0,0 0.609375,-0.53125 0.96875,-0.890625 C 4.4375,-3.78125 4.65625,-4.265625 4.65625,-4.3125 c 0,-0.09375 -0.09375,-0.09375 -0.109375,-0.09375 -0.078125,0 -0.09375,0.015625 -0.15625,0.109375 -0.296875,0.484375 -0.5,0.640625 -0.734375,0.640625 -0.25,0 -0.359375,-0.15625 -0.515625,-0.328125 -0.1875,-0.21875 -0.359375,-0.421875 -0.6875,-0.421875 -0.75,0 -1.203125,0.921875 -1.203125,1.140625 0,0.046875 0.03125,0.109375 0.109375,0.109375 0.09375,0 0.109375,-0.046875 0.140625,-0.109375 0.1875,-0.46875 0.765625,-0.46875 0.84375,-0.46875 0.203125,0 0.390625,0.0625 0.625,0.140625 0.40625,0.15625 0.515625,0.15625 0.765625,0.15625 -0.359375,0.421875 -1.1875,1.140625 -1.375,1.296875 l -0.90625,0.84375 C 0.78125,-0.625 0.421875,-0.0625 0.421875,0.015625 c 0,0.09375 0.109375,0.09375 0.125,0.09375 0.078125,0 0.09375,-0.015625 0.15625,-0.125 0.234375,-0.359375 0.53125,-0.625 0.859375,-0.625 0.21875,0 0.328125,0.09375 0.578125,0.375 0.15625,0.21875 0.34375,0.375 0.625,0.375 1,0 1.578125,-1.265625 1.578125,-1.53125 0,-0.046875 -0.046875,-0.109375 -0.125,-0.109375 -0.09375,0 -0.109375,0.0625 -0.140625,0.140625 C 3.84375,-0.75 3.203125,-0.5625 2.875,-0.5625 c -0.1875,0 -0.375,-0.0625 -0.578125,-0.125 -0.34375,-0.125 -0.5,-0.171875 -0.703125,-0.171875 -0.015625,0 -0.171875,0 -0.265625,0.03125 z m 0,0"
               style="stroke:none"
               inkscape:connector-curvature="0" />
          </g>
        </g>
        <g
           id="g9985"
           style="fill:#000000;fill-opacity:1">
          <g
             transform="translate(231.271,134.765)"
             id="use9987">
            <path
               id="path10341"
               d="m 6.84375,-3.265625 c 0.15625,0 0.34375,0 0.34375,-0.1875 C 7.1875,-3.65625 7,-3.65625 6.859375,-3.65625 l -5.96875,0 c -0.140625,0 -0.328125,0 -0.328125,0.203125 0,0.1875 0.1875,0.1875 0.328125,0.1875 z m 0.015625,1.9375 c 0.140625,0 0.328125,0 0.328125,-0.203125 0,-0.1875 -0.1875,-0.1875 -0.34375,-0.1875 l -5.953125,0 c -0.140625,0 -0.328125,0 -0.328125,0.1875 0,0.203125 0.1875,0.203125 0.328125,0.203125 z m 0,0"
               style="stroke:none"
               inkscape:connector-curvature="0" />
          </g>
        </g>
        <g
           id="g9989"
           style="fill:#000000;fill-opacity:1">
          <g
             transform="translate(241.787,134.765)"
             id="use9991">
            <path
               id="path10333"
               d="m 1.328125,-0.828125 c 0.53125,-0.578125 0.828125,-0.828125 1.1875,-1.140625 0,0 0.609375,-0.53125 0.96875,-0.890625 C 4.4375,-3.78125 4.65625,-4.265625 4.65625,-4.3125 c 0,-0.09375 -0.09375,-0.09375 -0.109375,-0.09375 -0.078125,0 -0.09375,0.015625 -0.15625,0.109375 -0.296875,0.484375 -0.5,0.640625 -0.734375,0.640625 -0.25,0 -0.359375,-0.15625 -0.515625,-0.328125 -0.1875,-0.21875 -0.359375,-0.421875 -0.6875,-0.421875 -0.75,0 -1.203125,0.921875 -1.203125,1.140625 0,0.046875 0.03125,0.109375 0.109375,0.109375 0.09375,0 0.109375,-0.046875 0.140625,-0.109375 0.1875,-0.46875 0.765625,-0.46875 0.84375,-0.46875 0.203125,0 0.390625,0.0625 0.625,0.140625 0.40625,0.15625 0.515625,0.15625 0.765625,0.15625 -0.359375,0.421875 -1.1875,1.140625 -1.375,1.296875 l -0.90625,0.84375 C 0.78125,-0.625 0.421875,-0.0625 0.421875,0.015625 c 0,0.09375 0.109375,0.09375 0.125,0.09375 0.078125,0 0.09375,-0.015625 0.15625,-0.125 0.234375,-0.359375 0.53125,-0.625 0.859375,-0.625 0.21875,0 0.328125,0.09375 0.578125,0.375 0.15625,0.21875 0.34375,0.375 0.625,0.375 1,0 1.578125,-1.265625 1.578125,-1.53125 0,-0.046875 -0.046875,-0.109375 -0.125,-0.109375 -0.09375,0 -0.109375,0.0625 -0.140625,0.140625 C 3.84375,-0.75 3.203125,-0.5625 2.875,-0.5625 c -0.1875,0 -0.375,-0.0625 -0.578125,-0.125 -0.34375,-0.125 -0.5,-0.171875 -0.703125,-0.171875 -0.015625,0 -0.171875,0 -0.265625,0.03125 z m 0,0"
               style="stroke:none"
               inkscape:connector-curvature="0" />
          </g>
        </g>
        <g
           id="g9993"
           style="fill:#000000;fill-opacity:1">
          <g
             transform="translate(246.42,136.259)"
             id="use9995">
            <path
               id="path10349"
               d="m 2.328125,-4.4375 c 0,-0.1875 0,-0.1875 -0.203125,-0.1875 -0.453125,0.4375 -1.078125,0.4375 -1.359375,0.4375 l 0,0.25 c 0.15625,0 0.625,0 1,-0.1875 l 0,3.546875 c 0,0.234375 0,0.328125 -0.6875,0.328125 l -0.265625,0 0,0.25 c 0.125,0 0.984375,-0.03125 1.234375,-0.03125 0.21875,0 1.09375,0.03125 1.25,0.03125 l 0,-0.25 -0.265625,0 c -0.703125,0 -0.703125,-0.09375 -0.703125,-0.328125 z m 0,0"
               style="stroke:none"
               inkscape:connector-curvature="0" />
          </g>
        </g>
      </g>
    </g>
    <g
       ns0:text="$z=z_2$"
       ns0:preamble="/home/homer/misc/physcmds.tex"
       transform="matrix(1.4121478,0,0,1.4121477,-207.7122,39.157707)"
       style="display:inline"
       id="g10001">
      <defs
         id="defs10003">
        <g
           id="g10005">
          <symbol
             overflow="visible"
             id="symbol10007"
             style="overflow:visible">
            <path
               style="stroke:none"
               d=""
               id="path10009"
               inkscape:connector-curvature="0" />
          </symbol>
          <symbol
             overflow="visible"
             id="symbol10011"
             style="overflow:visible">
            <path
               style="stroke:none"
               d="m 1.328125,-0.828125 c 0.53125,-0.578125 0.828125,-0.828125 1.1875,-1.140625 0,0 0.609375,-0.53125 0.96875,-0.890625 C 4.4375,-3.78125 4.65625,-4.265625 4.65625,-4.3125 c 0,-0.09375 -0.09375,-0.09375 -0.109375,-0.09375 -0.078125,0 -0.09375,0.015625 -0.15625,0.109375 -0.296875,0.484375 -0.5,0.640625 -0.734375,0.640625 -0.25,0 -0.359375,-0.15625 -0.515625,-0.328125 -0.1875,-0.21875 -0.359375,-0.421875 -0.6875,-0.421875 -0.75,0 -1.203125,0.921875 -1.203125,1.140625 0,0.046875 0.03125,0.109375 0.109375,0.109375 0.09375,0 0.109375,-0.046875 0.140625,-0.109375 0.1875,-0.46875 0.765625,-0.46875 0.84375,-0.46875 0.203125,0 0.390625,0.0625 0.625,0.140625 0.40625,0.15625 0.515625,0.15625 0.765625,0.15625 -0.359375,0.421875 -1.1875,1.140625 -1.375,1.296875 l -0.90625,0.84375 C 0.78125,-0.625 0.421875,-0.0625 0.421875,0.015625 c 0,0.09375 0.109375,0.09375 0.125,0.09375 0.078125,0 0.09375,-0.015625 0.15625,-0.125 0.234375,-0.359375 0.53125,-0.625 0.859375,-0.625 0.21875,0 0.328125,0.09375 0.578125,0.375 0.15625,0.21875 0.34375,0.375 0.625,0.375 1,0 1.578125,-1.265625 1.578125,-1.53125 0,-0.046875 -0.046875,-0.109375 -0.125,-0.109375 -0.09375,0 -0.109375,0.0625 -0.140625,0.140625 C 3.84375,-0.75 3.203125,-0.5625 2.875,-0.5625 c -0.1875,0 -0.375,-0.0625 -0.578125,-0.125 -0.34375,-0.125 -0.5,-0.171875 -0.703125,-0.171875 -0.015625,0 -0.171875,0 -0.265625,0.03125 z m 0,0"
               id="path10013"
               inkscape:connector-curvature="0" />
          </symbol>
          <symbol
             overflow="visible"
             id="symbol10015"
             style="overflow:visible">
            <path
               style="stroke:none"
               d=""
               id="path10017"
               inkscape:connector-curvature="0" />
          </symbol>
          <symbol
             overflow="visible"
             id="symbol10019"
             style="overflow:visible">
            <path
               style="stroke:none"
               d="m 6.84375,-3.265625 c 0.15625,0 0.34375,0 0.34375,-0.1875 C 7.1875,-3.65625 7,-3.65625 6.859375,-3.65625 l -5.96875,0 c -0.140625,0 -0.328125,0 -0.328125,0.203125 0,0.1875 0.1875,0.1875 0.328125,0.1875 z m 0.015625,1.9375 c 0.140625,0 0.328125,0 0.328125,-0.203125 0,-0.1875 -0.1875,-0.1875 -0.34375,-0.1875 l -5.953125,0 c -0.140625,0 -0.328125,0 -0.328125,0.1875 0,0.203125 0.1875,0.203125 0.328125,0.203125 z m 0,0"
               id="path10021"
               inkscape:connector-curvature="0" />
          </symbol>
          <symbol
             overflow="visible"
             id="symbol10023"
             style="overflow:visible">
            <path
               style="stroke:none"
               d=""
               id="path10025"
               inkscape:connector-curvature="0" />
          </symbol>
          <symbol
             overflow="visible"
             id="symbol10027"
             style="overflow:visible">
            <path
               style="stroke:none"
               d="m 3.515625,-1.265625 -0.234375,0 c -0.015625,0.15625 -0.09375,0.5625 -0.1875,0.625 -0.046875,0.046875 -0.578125,0.046875 -0.6875,0.046875 l -1.28125,0 c 0.734375,-0.640625 0.984375,-0.84375 1.390625,-1.171875 0.515625,-0.40625 1,-0.84375 1,-1.5 0,-0.84375 -0.734375,-1.359375 -1.625,-1.359375 -0.859375,0 -1.453125,0.609375 -1.453125,1.25 0,0.34375 0.296875,0.390625 0.375,0.390625 0.15625,0 0.359375,-0.125 0.359375,-0.375 0,-0.125 -0.046875,-0.375 -0.40625,-0.375 C 0.984375,-4.21875 1.453125,-4.375 1.78125,-4.375 c 0.703125,0 1.0625,0.546875 1.0625,1.109375 0,0.609375 -0.4375,1.078125 -0.65625,1.328125 L 0.515625,-0.265625 C 0.4375,-0.203125 0.4375,-0.1875 0.4375,0 l 2.875,0 z m 0,0"
               id="path10029"
               inkscape:connector-curvature="0" />
          </symbol>
        </g>
      </defs>
      <g
         id="g10031">
        <g
           style="fill:#000000;fill-opacity:1"
           id="g10033">
          <g
             transform="translate(223.43201,134.765)"
             id="use10035">
            <path
               style="stroke:none"
               d="m 1.328125,-0.828125 c 0.53125,-0.578125 0.828125,-0.828125 1.1875,-1.140625 0,0 0.609375,-0.53125 0.96875,-0.890625 C 4.4375,-3.78125 4.65625,-4.265625 4.65625,-4.3125 c 0,-0.09375 -0.09375,-0.09375 -0.109375,-0.09375 -0.078125,0 -0.09375,0.015625 -0.15625,0.109375 -0.296875,0.484375 -0.5,0.640625 -0.734375,0.640625 -0.25,0 -0.359375,-0.15625 -0.515625,-0.328125 -0.1875,-0.21875 -0.359375,-0.421875 -0.6875,-0.421875 -0.75,0 -1.203125,0.921875 -1.203125,1.140625 0,0.046875 0.03125,0.109375 0.109375,0.109375 0.09375,0 0.109375,-0.046875 0.140625,-0.109375 0.1875,-0.46875 0.765625,-0.46875 0.84375,-0.46875 0.203125,0 0.390625,0.0625 0.625,0.140625 0.40625,0.15625 0.515625,0.15625 0.765625,0.15625 -0.359375,0.421875 -1.1875,1.140625 -1.375,1.296875 l -0.90625,0.84375 C 0.78125,-0.625 0.421875,-0.0625 0.421875,0.015625 c 0,0.09375 0.109375,0.09375 0.125,0.09375 0.078125,0 0.09375,-0.015625 0.15625,-0.125 0.234375,-0.359375 0.53125,-0.625 0.859375,-0.625 0.21875,0 0.328125,0.09375 0.578125,0.375 0.15625,0.21875 0.34375,0.375 0.625,0.375 1,0 1.578125,-1.265625 1.578125,-1.53125 0,-0.046875 -0.046875,-0.109375 -0.125,-0.109375 -0.09375,0 -0.109375,0.0625 -0.140625,0.140625 C 3.84375,-0.75 3.203125,-0.5625 2.875,-0.5625 c -0.1875,0 -0.375,-0.0625 -0.578125,-0.125 -0.34375,-0.125 -0.5,-0.171875 -0.703125,-0.171875 -0.015625,0 -0.171875,0 -0.265625,0.03125 z m 0,0"
               id="path10297"
               inkscape:connector-curvature="0" />
          </g>
        </g>
        <g
           style="fill:#000000;fill-opacity:1"
           id="g10037">
          <g
             transform="translate(231.271,134.765)"
             id="use10039">
            <path
               style="stroke:none"
               d="m 6.84375,-3.265625 c 0.15625,0 0.34375,0 0.34375,-0.1875 C 7.1875,-3.65625 7,-3.65625 6.859375,-3.65625 l -5.96875,0 c -0.140625,0 -0.328125,0 -0.328125,0.203125 0,0.1875 0.1875,0.1875 0.328125,0.1875 z m 0.015625,1.9375 c 0.140625,0 0.328125,0 0.328125,-0.203125 0,-0.1875 -0.1875,-0.1875 -0.34375,-0.1875 l -5.953125,0 c -0.140625,0 -0.328125,0 -0.328125,0.1875 0,0.203125 0.1875,0.203125 0.328125,0.203125 z m 0,0"
               id="path10309"
               inkscape:connector-curvature="0" />
          </g>
        </g>
        <g
           style="fill:#000000;fill-opacity:1"
           id="g10041">
          <g
             transform="translate(241.787,134.765)"
             id="use10043">
            <path
               style="stroke:none"
               d="m 1.328125,-0.828125 c 0.53125,-0.578125 0.828125,-0.828125 1.1875,-1.140625 0,0 0.609375,-0.53125 0.96875,-0.890625 C 4.4375,-3.78125 4.65625,-4.265625 4.65625,-4.3125 c 0,-0.09375 -0.09375,-0.09375 -0.109375,-0.09375 -0.078125,0 -0.09375,0.015625 -0.15625,0.109375 -0.296875,0.484375 -0.5,0.640625 -0.734375,0.640625 -0.25,0 -0.359375,-0.15625 -0.515625,-0.328125 -0.1875,-0.21875 -0.359375,-0.421875 -0.6875,-0.421875 -0.75,0 -1.203125,0.921875 -1.203125,1.140625 0,0.046875 0.03125,0.109375 0.109375,0.109375 0.09375,0 0.109375,-0.046875 0.140625,-0.109375 0.1875,-0.46875 0.765625,-0.46875 0.84375,-0.46875 0.203125,0 0.390625,0.0625 0.625,0.140625 0.40625,0.15625 0.515625,0.15625 0.765625,0.15625 -0.359375,0.421875 -1.1875,1.140625 -1.375,1.296875 l -0.90625,0.84375 C 0.78125,-0.625 0.421875,-0.0625 0.421875,0.015625 c 0,0.09375 0.109375,0.09375 0.125,0.09375 0.078125,0 0.09375,-0.015625 0.15625,-0.125 0.234375,-0.359375 0.53125,-0.625 0.859375,-0.625 0.21875,0 0.328125,0.09375 0.578125,0.375 0.15625,0.21875 0.34375,0.375 0.625,0.375 1,0 1.578125,-1.265625 1.578125,-1.53125 0,-0.046875 -0.046875,-0.109375 -0.125,-0.109375 -0.09375,0 -0.109375,0.0625 -0.140625,0.140625 C 3.84375,-0.75 3.203125,-0.5625 2.875,-0.5625 c -0.1875,0 -0.375,-0.0625 -0.578125,-0.125 -0.34375,-0.125 -0.5,-0.171875 -0.703125,-0.171875 -0.015625,0 -0.171875,0 -0.265625,0.03125 z m 0,0"
               id="path10301"
               inkscape:connector-curvature="0" />
          </g>
        </g>
        <g
           style="fill:#000000;fill-opacity:1"
           id="g10045">
          <g
             transform="translate(246.42,136.259)"
             id="use10047">
            <path
               style="stroke:none"
               d="m 3.515625,-1.265625 -0.234375,0 c -0.015625,0.15625 -0.09375,0.5625 -0.1875,0.625 -0.046875,0.046875 -0.578125,0.046875 -0.6875,0.046875 l -1.28125,0 c 0.734375,-0.640625 0.984375,-0.84375 1.390625,-1.171875 0.515625,-0.40625 1,-0.84375 1,-1.5 0,-0.84375 -0.734375,-1.359375 -1.625,-1.359375 -0.859375,0 -1.453125,0.609375 -1.453125,1.25 0,0.34375 0.296875,0.390625 0.375,0.390625 0.15625,0 0.359375,-0.125 0.359375,-0.375 0,-0.125 -0.046875,-0.375 -0.40625,-0.375 C 0.984375,-4.21875 1.453125,-4.375 1.78125,-4.375 c 0.703125,0 1.0625,0.546875 1.0625,1.109375 0,0.609375 -0.4375,1.078125 -0.65625,1.328125 L 0.515625,-0.265625 C 0.4375,-0.203125 0.4375,-0.1875 0.4375,0 l 2.875,0 z m 0,0"
               id="path10317"
               inkscape:connector-curvature="0" />
          </g>
        </g>
      </g>
    </g>
    <g
       id="g10081"
       style="display:inline"
       transform="matrix(1.4121478,0,0,1.4121477,-207.7122,124.15772)"
       ns0:preamble="/home/homer/misc/physcmds.tex"
       ns0:text="$z=z\\subt{$N$}$">
      <defs
         id="defs10083">
        <g
           id="g10085">
          <symbol
             style="overflow:visible"
             id="symbol10087"
             overflow="visible">
            <path
               inkscape:connector-curvature="0"
               id="path10089"
               d=""
               style="stroke:none" />
          </symbol>
          <symbol
             style="overflow:visible"
             id="symbol10091"
             overflow="visible">
            <path
               inkscape:connector-curvature="0"
               id="path10093"
               d="m 1.328125,-0.828125 c 0.53125,-0.578125 0.828125,-0.828125 1.1875,-1.140625 0,0 0.609375,-0.53125 0.96875,-0.890625 C 4.4375,-3.78125 4.65625,-4.265625 4.65625,-4.3125 c 0,-0.09375 -0.09375,-0.09375 -0.109375,-0.09375 -0.078125,0 -0.09375,0.015625 -0.15625,0.109375 -0.296875,0.484375 -0.5,0.640625 -0.734375,0.640625 -0.25,0 -0.359375,-0.15625 -0.515625,-0.328125 -0.1875,-0.21875 -0.359375,-0.421875 -0.6875,-0.421875 -0.75,0 -1.203125,0.921875 -1.203125,1.140625 0,0.046875 0.03125,0.109375 0.109375,0.109375 0.09375,0 0.109375,-0.046875 0.140625,-0.109375 0.1875,-0.46875 0.765625,-0.46875 0.84375,-0.46875 0.203125,0 0.390625,0.0625 0.625,0.140625 0.40625,0.15625 0.515625,0.15625 0.765625,0.15625 -0.359375,0.421875 -1.1875,1.140625 -1.375,1.296875 l -0.90625,0.84375 C 0.78125,-0.625 0.421875,-0.0625 0.421875,0.015625 c 0,0.09375 0.109375,0.09375 0.125,0.09375 0.078125,0 0.09375,-0.015625 0.15625,-0.125 0.234375,-0.359375 0.53125,-0.625 0.859375,-0.625 0.21875,0 0.328125,0.09375 0.578125,0.375 0.15625,0.21875 0.34375,0.375 0.625,0.375 1,0 1.578125,-1.265625 1.578125,-1.53125 0,-0.046875 -0.046875,-0.109375 -0.125,-0.109375 -0.09375,0 -0.109375,0.0625 -0.140625,0.140625 C 3.84375,-0.75 3.203125,-0.5625 2.875,-0.5625 c -0.1875,0 -0.375,-0.0625 -0.578125,-0.125 -0.34375,-0.125 -0.5,-0.171875 -0.703125,-0.171875 -0.015625,0 -0.171875,0 -0.265625,0.03125 z m 0,0"
               style="stroke:none" />
          </symbol>
          <symbol
             style="overflow:visible"
             id="symbol10095"
             overflow="visible">
            <path
               inkscape:connector-curvature="0"
               id="path10097"
               d=""
               style="stroke:none" />
          </symbol>
          <symbol
             style="overflow:visible"
             id="symbol10099"
             overflow="visible">
            <path
               inkscape:connector-curvature="0"
               id="path10101"
               d="m 6.84375,-3.265625 c 0.15625,0 0.34375,0 0.34375,-0.1875 C 7.1875,-3.65625 7,-3.65625 6.859375,-3.65625 l -5.96875,0 c -0.140625,0 -0.328125,0 -0.328125,0.203125 0,0.1875 0.1875,0.1875 0.328125,0.1875 z m 0.015625,1.9375 c 0.140625,0 0.328125,0 0.328125,-0.203125 0,-0.1875 -0.1875,-0.1875 -0.34375,-0.1875 l -5.953125,0 c -0.140625,0 -0.328125,0 -0.328125,0.1875 0,0.203125 0.1875,0.203125 0.328125,0.203125 z m 0,0"
               style="stroke:none" />
          </symbol>
          <symbol
             style="overflow:visible"
             id="symbol10103"
             overflow="visible">
            <path
               inkscape:connector-curvature="0"
               id="path10105"
               d=""
               style="stroke:none" />
          </symbol>
          <symbol
             style="overflow:visible"
             id="symbol10107"
             overflow="visible">
            <path
               inkscape:connector-curvature="0"
               id="path10109"
               d="m 4.765625,-2.84375 c 0.03125,-0.125 0.078125,-0.328125 0.53125,-0.34375 0.046875,0 0.125,0 0.125,-0.125 0,-0.03125 -0.015625,-0.09375 -0.078125,-0.09375 -0.09375,0 -0.1875,0.015625 -0.28125,0.015625 -0.09375,0 -0.1875,0 -0.28125,0 -0.09375,0 -0.203125,0 -0.296875,0 -0.09375,0 -0.1875,-0.015625 -0.28125,-0.015625 -0.03125,0 -0.125,0 -0.125,0.140625 0,0.078125 0.078125,0.078125 0.125,0.078125 0.328125,0.015625 0.359375,0.109375 0.359375,0.203125 0,0.03125 -0.015625,0.0625 -0.015625,0.09375 L 4,-0.75 2.5,-3.3125 C 2.453125,-3.40625 2.453125,-3.40625 2.328125,-3.40625 l -0.765625,0 c -0.109375,0 -0.1875,0 -0.1875,0.140625 0,0.078125 0.078125,0.078125 0.1875,0.078125 0.015625,0 0.21875,0 0.34375,0.03125 L 1.25,-0.5625 c -0.03125,0.140625 -0.078125,0.328125 -0.546875,0.34375 -0.03125,0 -0.125,0 -0.125,0.140625 C 0.578125,-0.046875 0.625,0 0.671875,0 0.75,0 0.859375,-0.015625 0.953125,-0.015625 c 0.09375,0 0.1875,0 0.28125,0 0.09375,0 0.203125,0 0.296875,0 C 1.625,-0.015625 1.71875,0 1.8125,0 1.875,0 1.9375,-0.03125 1.9375,-0.140625 1.9375,-0.21875 1.859375,-0.21875 1.796875,-0.21875 1.5625,-0.234375 1.453125,-0.296875 1.453125,-0.40625 c 0,-0.046875 0.015625,-0.078125 0.03125,-0.125 l 0.625,-2.5 1.703125,2.9375 C 3.875,0 3.890625,0 3.953125,0 c 0.09375,0 0.109375,-0.03125 0.125,-0.125 z m 0,0"
               style="stroke:none" />
          </symbol>
        </g>
      </defs>
      <g
         id="g10111">
        <g
           id="g10113"
           style="fill:#000000;fill-opacity:1">
          <g
             transform="translate(223.43201,134.765)"
             id="use10115">
            <path
               inkscape:connector-curvature="0"
               id="path10265"
               d="m 1.328125,-0.828125 c 0.53125,-0.578125 0.828125,-0.828125 1.1875,-1.140625 0,0 0.609375,-0.53125 0.96875,-0.890625 C 4.4375,-3.78125 4.65625,-4.265625 4.65625,-4.3125 c 0,-0.09375 -0.09375,-0.09375 -0.109375,-0.09375 -0.078125,0 -0.09375,0.015625 -0.15625,0.109375 -0.296875,0.484375 -0.5,0.640625 -0.734375,0.640625 -0.25,0 -0.359375,-0.15625 -0.515625,-0.328125 -0.1875,-0.21875 -0.359375,-0.421875 -0.6875,-0.421875 -0.75,0 -1.203125,0.921875 -1.203125,1.140625 0,0.046875 0.03125,0.109375 0.109375,0.109375 0.09375,0 0.109375,-0.046875 0.140625,-0.109375 0.1875,-0.46875 0.765625,-0.46875 0.84375,-0.46875 0.203125,0 0.390625,0.0625 0.625,0.140625 0.40625,0.15625 0.515625,0.15625 0.765625,0.15625 -0.359375,0.421875 -1.1875,1.140625 -1.375,1.296875 l -0.90625,0.84375 C 0.78125,-0.625 0.421875,-0.0625 0.421875,0.015625 c 0,0.09375 0.109375,0.09375 0.125,0.09375 0.078125,0 0.09375,-0.015625 0.15625,-0.125 0.234375,-0.359375 0.53125,-0.625 0.859375,-0.625 0.21875,0 0.328125,0.09375 0.578125,0.375 0.15625,0.21875 0.34375,0.375 0.625,0.375 1,0 1.578125,-1.265625 1.578125,-1.53125 0,-0.046875 -0.046875,-0.109375 -0.125,-0.109375 -0.09375,0 -0.109375,0.0625 -0.140625,0.140625 C 3.84375,-0.75 3.203125,-0.5625 2.875,-0.5625 c -0.1875,0 -0.375,-0.0625 -0.578125,-0.125 -0.34375,-0.125 -0.5,-0.171875 -0.703125,-0.171875 -0.015625,0 -0.171875,0 -0.265625,0.03125 z m 0,0"
               style="stroke:none" />
          </g>
        </g>
        <g
           id="g10117"
           style="fill:#000000;fill-opacity:1">
          <g
             transform="translate(231.271,134.765)"
             id="use10119">
            <path
               inkscape:connector-curvature="0"
               id="path10277"
               d="m 6.84375,-3.265625 c 0.15625,0 0.34375,0 0.34375,-0.1875 C 7.1875,-3.65625 7,-3.65625 6.859375,-3.65625 l -5.96875,0 c -0.140625,0 -0.328125,0 -0.328125,0.203125 0,0.1875 0.1875,0.1875 0.328125,0.1875 z m 0.015625,1.9375 c 0.140625,0 0.328125,0 0.328125,-0.203125 0,-0.1875 -0.1875,-0.1875 -0.34375,-0.1875 l -5.953125,0 c -0.140625,0 -0.328125,0 -0.328125,0.1875 0,0.203125 0.1875,0.203125 0.328125,0.203125 z m 0,0"
               style="stroke:none" />
          </g>
        </g>
        <g
           id="g10121"
           style="fill:#000000;fill-opacity:1">
          <g
             transform="translate(241.787,134.765)"
             id="use10123">
            <path
               inkscape:connector-curvature="0"
               id="path10269"
               d="m 1.328125,-0.828125 c 0.53125,-0.578125 0.828125,-0.828125 1.1875,-1.140625 0,0 0.609375,-0.53125 0.96875,-0.890625 C 4.4375,-3.78125 4.65625,-4.265625 4.65625,-4.3125 c 0,-0.09375 -0.09375,-0.09375 -0.109375,-0.09375 -0.078125,0 -0.09375,0.015625 -0.15625,0.109375 -0.296875,0.484375 -0.5,0.640625 -0.734375,0.640625 -0.25,0 -0.359375,-0.15625 -0.515625,-0.328125 -0.1875,-0.21875 -0.359375,-0.421875 -0.6875,-0.421875 -0.75,0 -1.203125,0.921875 -1.203125,1.140625 0,0.046875 0.03125,0.109375 0.109375,0.109375 0.09375,0 0.109375,-0.046875 0.140625,-0.109375 0.1875,-0.46875 0.765625,-0.46875 0.84375,-0.46875 0.203125,0 0.390625,0.0625 0.625,0.140625 0.40625,0.15625 0.515625,0.15625 0.765625,0.15625 -0.359375,0.421875 -1.1875,1.140625 -1.375,1.296875 l -0.90625,0.84375 C 0.78125,-0.625 0.421875,-0.0625 0.421875,0.015625 c 0,0.09375 0.109375,0.09375 0.125,0.09375 0.078125,0 0.09375,-0.015625 0.15625,-0.125 0.234375,-0.359375 0.53125,-0.625 0.859375,-0.625 0.21875,0 0.328125,0.09375 0.578125,0.375 0.15625,0.21875 0.34375,0.375 0.625,0.375 1,0 1.578125,-1.265625 1.578125,-1.53125 0,-0.046875 -0.046875,-0.109375 -0.125,-0.109375 -0.09375,0 -0.109375,0.0625 -0.140625,0.140625 C 3.84375,-0.75 3.203125,-0.5625 2.875,-0.5625 c -0.1875,0 -0.375,-0.0625 -0.578125,-0.125 -0.34375,-0.125 -0.5,-0.171875 -0.703125,-0.171875 -0.015625,0 -0.171875,0 -0.265625,0.03125 z m 0,0"
               style="stroke:none" />
          </g>
        </g>
        <g
           id="g10125"
           style="fill:#000000;fill-opacity:1">
          <g
             transform="translate(246.42,136.259)"
             id="use10127">
            <path
               inkscape:connector-curvature="0"
               id="path10285"
               d="m 4.765625,-2.84375 c 0.03125,-0.125 0.078125,-0.328125 0.53125,-0.34375 0.046875,0 0.125,0 0.125,-0.125 0,-0.03125 -0.015625,-0.09375 -0.078125,-0.09375 -0.09375,0 -0.1875,0.015625 -0.28125,0.015625 -0.09375,0 -0.1875,0 -0.28125,0 -0.09375,0 -0.203125,0 -0.296875,0 -0.09375,0 -0.1875,-0.015625 -0.28125,-0.015625 -0.03125,0 -0.125,0 -0.125,0.140625 0,0.078125 0.078125,0.078125 0.125,0.078125 0.328125,0.015625 0.359375,0.109375 0.359375,0.203125 0,0.03125 -0.015625,0.0625 -0.015625,0.09375 L 4,-0.75 2.5,-3.3125 C 2.453125,-3.40625 2.453125,-3.40625 2.328125,-3.40625 l -0.765625,0 c -0.109375,0 -0.1875,0 -0.1875,0.140625 0,0.078125 0.078125,0.078125 0.1875,0.078125 0.015625,0 0.21875,0 0.34375,0.03125 L 1.25,-0.5625 c -0.03125,0.140625 -0.078125,0.328125 -0.546875,0.34375 -0.03125,0 -0.125,0 -0.125,0.140625 C 0.578125,-0.046875 0.625,0 0.671875,0 0.75,0 0.859375,-0.015625 0.953125,-0.015625 c 0.09375,0 0.1875,0 0.28125,0 0.09375,0 0.203125,0 0.296875,0 C 1.625,-0.015625 1.71875,0 1.8125,0 1.875,0 1.9375,-0.03125 1.9375,-0.140625 1.9375,-0.21875 1.859375,-0.21875 1.796875,-0.21875 1.5625,-0.234375 1.453125,-0.296875 1.453125,-0.40625 c 0,-0.046875 0.015625,-0.078125 0.03125,-0.125 l 0.625,-2.5 1.703125,2.9375 C 3.875,0 3.890625,0 3.953125,0 c 0.09375,0 0.109375,-0.03125 0.125,-0.125 z m 0,0"
               style="stroke:none" />
          </g>
        </g>
      </g>
    </g>
    <g
       ns0:text="$z=z\\subt{GP}$"
       ns0:preamble="/home/homer/misc/physcmds.tex"
       transform="matrix(1.4121478,0,0,1.4121477,-212.7122,174.15772)"
       style="display:inline"
       id="g5899">
      <defs
         id="defs5901">
        <g
           id="g5903">
          <symbol
             style="overflow:visible"
             overflow="visible"
             id="textext-83ef2674-0">
            <path
               inkscape:connector-curvature="0"
               style="stroke:none"
               d=""
               id="path5906" />
          </symbol>
          <symbol
             style="overflow:visible"
             overflow="visible"
             id="textext-83ef2674-1">
            <path
               inkscape:connector-curvature="0"
               style="stroke:none"
               d="m 1.328125,-0.828125 c 0.53125,-0.578125 0.828125,-0.828125 1.1875,-1.140625 0,0 0.609375,-0.53125 0.96875,-0.890625 C 4.4375,-3.78125 4.65625,-4.265625 4.65625,-4.3125 c 0,-0.09375 -0.09375,-0.09375 -0.109375,-0.09375 -0.078125,0 -0.09375,0.015625 -0.15625,0.109375 -0.296875,0.484375 -0.5,0.640625 -0.734375,0.640625 -0.25,0 -0.359375,-0.15625 -0.515625,-0.328125 -0.1875,-0.21875 -0.359375,-0.421875 -0.6875,-0.421875 -0.75,0 -1.203125,0.921875 -1.203125,1.140625 0,0.046875 0.03125,0.109375 0.109375,0.109375 0.09375,0 0.109375,-0.046875 0.140625,-0.109375 0.1875,-0.46875 0.765625,-0.46875 0.84375,-0.46875 0.203125,0 0.390625,0.0625 0.625,0.140625 0.40625,0.15625 0.515625,0.15625 0.765625,0.15625 -0.359375,0.421875 -1.1875,1.140625 -1.375,1.296875 l -0.90625,0.84375 C 0.78125,-0.625 0.421875,-0.0625 0.421875,0.015625 c 0,0.09375 0.109375,0.09375 0.125,0.09375 0.078125,0 0.09375,-0.015625 0.15625,-0.125 0.234375,-0.359375 0.53125,-0.625 0.859375,-0.625 0.21875,0 0.328125,0.09375 0.578125,0.375 0.15625,0.21875 0.34375,0.375 0.625,0.375 1,0 1.578125,-1.265625 1.578125,-1.53125 0,-0.046875 -0.046875,-0.109375 -0.125,-0.109375 -0.09375,0 -0.109375,0.0625 -0.140625,0.140625 C 3.84375,-0.75 3.203125,-0.5625 2.875,-0.5625 c -0.1875,0 -0.375,-0.0625 -0.578125,-0.125 -0.34375,-0.125 -0.5,-0.171875 -0.703125,-0.171875 -0.015625,0 -0.171875,0 -0.265625,0.03125 z m 0,0"
               id="path5909" />
          </symbol>
          <symbol
             style="overflow:visible"
             overflow="visible"
             id="textext-83ef2674-2">
            <path
               inkscape:connector-curvature="0"
               style="stroke:none"
               d=""
               id="path5912" />
          </symbol>
          <symbol
             style="overflow:visible"
             overflow="visible"
             id="textext-83ef2674-3">
            <path
               inkscape:connector-curvature="0"
               style="stroke:none"
               d="m 6.84375,-3.265625 c 0.15625,0 0.34375,0 0.34375,-0.1875 C 7.1875,-3.65625 7,-3.65625 6.859375,-3.65625 l -5.96875,0 c -0.140625,0 -0.328125,0 -0.328125,0.203125 0,0.1875 0.1875,0.1875 0.328125,0.1875 z m 0.015625,1.9375 c 0.140625,0 0.328125,0 0.328125,-0.203125 0,-0.1875 -0.1875,-0.1875 -0.34375,-0.1875 l -5.953125,0 c -0.140625,0 -0.328125,0 -0.328125,0.1875 0,0.203125 0.1875,0.203125 0.328125,0.203125 z m 0,0"
               id="path5915" />
          </symbol>
          <symbol
             style="overflow:visible"
             overflow="visible"
             id="textext-83ef2674-4">
            <path
               inkscape:connector-curvature="0"
               style="stroke:none"
               d=""
               id="path5918" />
          </symbol>
          <symbol
             style="overflow:visible"
             overflow="visible"
             id="textext-83ef2674-5">
            <path
               inkscape:connector-curvature="0"
               style="stroke:none"
               d="m 4.28125,-0.96875 c 0,-0.15625 0,-0.203125 0.328125,-0.203125 l 0.109375,0 0,-0.21875 c -0.296875,0.015625 -0.609375,0.03125 -0.75,0.03125 -0.28125,0 -0.75,0 -1,-0.03125 l 0,0.21875 0.25,0 c 0.53125,0 0.53125,0.0625 0.53125,0.21875 l 0,0.3125 c 0,0.109375 0,0.3125 -0.328125,0.4375 -0.25,0.09375 -0.5625,0.09375 -0.625,0.09375 -0.84375,0 -1.734375,-0.453125 -1.734375,-1.59375 0,-1.1875 0.9375,-1.59375 1.65625,-1.59375 0.453125,0 1.1875,0.25 1.34375,1.171875 0.015625,0.0625 0.0625,0.0625 0.109375,0.0625 0.109375,0 0.109375,-0.046875 0.109375,-0.140625 l 0,-1.171875 c 0,-0.078125 0,-0.140625 -0.078125,-0.140625 -0.046875,0 -0.0625,0.015625 -0.09375,0.0625 l -0.296875,0.375 c -0.234375,-0.1875 -0.59375,-0.4375 -1.1875,-0.4375 -1.1875,0 -2.140625,0.828125 -2.140625,1.8125 0,0.9375 0.890625,1.8125 2.171875,1.8125 0.1875,0 0.453125,-0.015625 0.703125,-0.078125 0.375,-0.09375 0.5,-0.28125 0.515625,-0.3125 C 4,-0.125 4.171875,0 4.21875,0 c 0.0625,0 0.0625,-0.0625 0.0625,-0.140625 z m 0,0"
               id="path5921" />
          </symbol>
          <symbol
             style="overflow:visible"
             overflow="visible"
             id="textext-83ef2674-6">
            <path
               inkscape:connector-curvature="0"
               style="stroke:none"
               d="m 1.5,-1.515625 1.09375,0 C 3.265625,-1.515625 4,-1.890625 4,-2.453125 4,-2.96875 3.34375,-3.40625 2.546875,-3.40625 l -2.125,0 0,0.21875 0.15625,0 c 0.40625,0 0.40625,0.046875 0.40625,0.203125 l 0,2.5625 c 0,0.15625 0,0.203125 -0.40625,0.203125 l -0.15625,0 0,0.21875 c 0.21875,-0.015625 0.53125,-0.015625 0.8125,-0.015625 0.296875,0 0.59375,0 0.828125,0.015625 l 0,-0.21875 -0.15625,0 C 1.5,-0.21875 1.5,-0.265625 1.5,-0.421875 Z M 2.421875,-3.1875 c 0.8125,0 1,0.34375 1,0.734375 0,0.421875 -0.203125,0.75 -1,0.75 l -0.9375,0 0,-1.296875 c 0,-0.15625 0,-0.1875 0.25,-0.1875 z m 0,0"
               id="path5924" />
          </symbol>
        </g>
      </defs>
      <g
         id="textext-83ef2674-7">
        <g
           style="fill:#000000;fill-opacity:1"
           id="g5927">
          <use
             height="100%"
             width="100%"
             xlink:href="#textext-83ef2674-1"
             x="223.43201"
             y="134.765"
             id="use5929" />
        </g>
        <g
           style="fill:#000000;fill-opacity:1"
           id="g5931">
          <use
             height="100%"
             width="100%"
             xlink:href="#textext-83ef2674-3"
             x="231.271"
             y="134.765"
             id="use5933" />
        </g>
        <g
           style="fill:#000000;fill-opacity:1"
           id="g5935">
          <use
             height="100%"
             width="100%"
             xlink:href="#textext-83ef2674-1"
             x="241.787"
             y="134.765"
             id="use5937" />
        </g>
        <g
           style="fill:#000000;fill-opacity:1"
           id="g5939">
          <use
             height="100%"
             width="100%"
             xlink:href="#textext-83ef2674-5"
             x="246.42"
             y="136.259"
             id="use5941" />
          <use
             height="100%"
             width="100%"
             xlink:href="#textext-83ef2674-6"
             x="251.56767"
             y="136.259"
             id="use5943" />
        </g>
      </g>
    </g>
  </g>
</svg>
